<mxfile host="Electron" modified="2024-04-17T21:57:05.424Z" agent="Mozilla/5.0 (Windows NT 10.0; Win64; x64) AppleWebKit/537.36 (KHTML, like Gecko) draw.io/24.0.4 Chrome/120.0.6099.109 Electron/28.1.0 Safari/537.36" etag="a9a_nrDB2hVB7rMpZ-6S" version="24.0.4" type="device">
  <diagram name="PÃ¡gina-1" id="9unb-lfP6QetmlQbghDW">
    <mxGraphModel dx="1120" dy="572" grid="1" gridSize="10" guides="1" tooltips="1" connect="1" arrows="1" fold="1" page="1" pageScale="1" pageWidth="827" pageHeight="1169" math="0" shadow="0">
      <root>
        <mxCell id="0" />
        <mxCell id="1" parent="0" />
        <mxCell id="MRjh7O3aRTi7gveGqWzr-1" value="" style="shape=image;verticalLabelPosition=bottom;labelBackgroundColor=default;verticalAlign=top;aspect=fixed;imageAspect=0;image=data:image/png,iVBORw0KGgoAAAANSUhEUgAAAu4AAABPCAYAAAC0wkCoAAAAAXNSR0IArs4c6QAAAARnQU1BAACxjwv8YQUAAAAJcEhZcwAADsMAAA7DAcdvqGQAAFrTSURBVHhe7Z15XFNX+v8/ZAOBACrIJoiCVllklUUWFfdanWpVRKt1BrV2VccuLhWntYtjbdW2X6tj/XWxuFWr1o3WulXBlYpUrTsiCAGEgARJQpLn98cNS0JyExSntXPerxevF+See85znu08uffciw0RERgMBoPBYDAYDMafGoHxBwwGg8FgMBgMBuPPByvcGQwGg8FgMBiMxwBWuDMYDAaDwWAwGI8BrHBnMBgMBoPBYDAeA1jhzmAwGAwGg8FgPAawwp3BYDAYDAaDwXgMYIU7g8FgMBgMBoPxGMAKd0br0alQLVdAbfw5468Bsy+DwWAwGH9K/kKFuxrlN37DpTu1xgceGPWJf2FA/DzuD+0dHMvYgCMFWuNmjx4LY6uzFyM5cSGOqoyPPDzaO8eQseEIGobWXvkC43p4wL93EKJePYD7Rsf/GNTIXpyMxIVH8QhU8OCos7E4ORELH4VhAABa3DmWgQ1HCtBW6je27yOR3II/txUG8ftfQ40T/xqA+HmHjQ/8xTCMOeM8YcifND7bHMN4bPC/w3/tSbeCts9XDMb/In+Zwl17czXGh4Sid9I8HFYaH30wqLoY168WcX/cz8KauXPx2bEq42aPHgtjU3Uxrl4phPxh/weu+hQ+mjQNay9oGj+6n7UGc+d+Bm5oDc598wl+9H0bOQUFyF05EFqD438UhOriq7hSKMfDqqBNoWoUX72Cwoc2jDnuI2vNXMz97BjaRv0t7Wtr3KQtsODPbYVB/P7XIFQXX8fVokc7tz8ew5gzzBPGtCI+TeSgPwPqUx9h0rS14BfLMB4b/K/K4qRNocapjyZh2toL4B3ysaKt8xWD8b/JIyvcNYoyFBdX4r7O+MijQIurW7bi94TxGKLYhYyDZq66axQoL60ysQVAB6W8BMVlCvNJUjoeGbIybHu2Y7MPdVDKZZBVtewR6mqUlpSj1opLC+rqUpSU15q/CmFybA0U5TLIzV7NUaO6tATlZgXQQFFeCgPRNYXIyTyAXFnTOdLxGZCVbQM3tAalsgo4+PrBXQAIBAKj4w39KFAuq4TyAW1vUR8NaBQol8nNX8WzZANtrXk5LZ1r1pcAjaIcMvOGsTg/jaIcpaZ8qoW/STE+Q4aybc/CwCuVcpQUl0FhwpnV1TKUVCphasqm7Gs1PPrQKeWQyZodM+nPgLa2AiUyuWl7gG8MK+K3EZ64UFdDVmLGH8yhU0IukxnGUQtaI19zHlZWY39p+FgJeUkxykw5CGA6NzQeMh1z5vNAy7YNmPRTEzkIsCCzVbqwEjPjaApzkHkgF8ZicQdrUF5RC52ZeAQAraIcpXJzcWcKDQpzMnEgV2YiT2hRW1ECmcn+1KiWlaDSCmWYzzNWxKIBWtSWy8yOqakpR0Wtzmy+gj4nltU06VynrESpmTzFJxt/fmMw/iJQG1N7bg1N7etLUpENATYkdo2gtA3XqN64YVtSf47SI9xp3MZbtH2yJ3lM2kZVDcdUWbSo/1OU/p90Gh7UjXzdHMk1ahbtKtYSEZHyxAc0pLsbufn2oAAPF3INS6ONNzXcsf3TqbPrpKZ+EqPptYNKIiLSlv5Mi4d2IzfPbuTv7U5dB75P2Uoioio6tWo8BXt6UtcAb3L17kuzvi8grkcjqk7RqvHB5OnZlQK8Xcm77yz6vsBES+OxZftpXpI3tffoQj5dYijthWHk7jaZdtRxzatOraLxwZ7k2TWAvF29qe+s74nrVkVZi/rTU+n/ofThQdTN140cXaNo1q5iqpd9RRP8XclBKCJpp87k4z+OvijSkiprESVGv0YHlRW0cUoAuTkKSejoRp27xNLC46pmx4mItCTbP4/6ebcnjy4+5Bv5d1o672mKe+0gKYlIefgNikl4i46pGuZ1nBYlxNAbh7h5Wa0P/ThJ+nG6xKTRC8PcyW3yDuJUwGMD1XF6q98oWvT5fBrSqyt183Yhl56ptO5ig1B85/L7EmlltH9eEnm396AuPl0oJu0FGubuRpObDGN2fqqsRdT/qXT6T/pwCurmS26OrhQ1axc1dm3S31SUtSiRovX6JeUJ+mBId3Jz86UeAR7k4hpGaRtvcrJrrtO3aWHk2akL+Xd2p67jv6QCfd8cpux7jw6/EUMJbx2jJpMtooSYN+iQ0hp9lNLPi4dSNzdP6ubvTe5dB9L72coW/kxVp+mzieHk2cmHuvu5UXvf/vTPHbes0rnV8csbFxq6/m0ahXl2oi7+ncm963j60lA5JtBS6c+LaWg3N/Ls5k/e7l1p4PvZpCQl7Z/emVwnfU/EI5/8uzQK6buAjupdg0hJWemJFPbiblK0gaym/UVJJz4YQt3d3Mi3RwB5uLhSWNpG4tRlPjdwvfPHnKk8YK6tOT9Vm8xB93lktkIXVdtoWnAczT/SqGhSZadTUvhLtFvRvKE53WhJ9tUE8nd1IKFISp06+5D/uC+oSMvpa8RbK+mlMCcSiINo3qkag3hU7p9OnTsMpVmvDaaefl3Jy6U9BT77/+h3FTee2di6L6OvJviTq4OQRNJO1NnHn8Z9UURaIqo6/RlNDPekTj7dyc+tPfn2/yftuMX5u+b6t5QW5kmduvhTZ/euNP7LguYT5MawkGd4Y9EAFR1/qx+NWvQ5zR/Si7p28yYXl56Uuu4iNx9VFi3qP4LeWvkShTkJSBw0j06pDPNVgyxr3xpGwQG+1NGlKz39f7/SbxumU3wPP3KXtqeQ6Vv0fm9BNov5jcH469DGhbuGbqz6G0U+9Sr9e/1m2rLmBYqS2pCwywv0s36NfhSoTrxBgR6ptFVOVPPD38m74xjaUKY/qNxP071tyTVhHh2QaYhqT9L8UHsKSz9H9USkyttFGceKuMJHdZmWJUmp1+sn9Kc2W/iV+2l6Z1ea9H0dEd2jPWm+5Dp4JV2sIyJtJf26bQ/lqYhqD8+iHu5DaOWFWiLSUNGmVPL1mkTbKhvF1VNLh2f1IPchK4lrWkSbUn3Ja9I2atHUYGwFZT7vRy5JSymvjkhT8hO9FiUlYUd94V57mGb1cKchKy8Q1+0mSvX1oknbKolISfune5OtawLNOyAjDdXSyfmhZB+WTufqNVRXuoHGtvehtF2lVHWvjjTNdPB9HZGmroy2PutBHs9updIqBamMjpMik573c6GkpXlURxoq+ek1ipIKqaN+wa7bOYXcvdNob8MaqtxH07wbCttW6MPCOLw2UO6n6d5isg9Mo+/yVUT1N2jtCDfq8LcvqURrzbnmfUmR+Tz5uSTRUs4w9NNrUSQVdrRqfsr908nb1pUS5h0gruv5FGofRunn6nn8ralIrCMiUuXRroxjVMQ5M11elkTSXq/TCRWR6ugs6t5pLGWUaYmolm5fK6BaI7W2tG8d7ZziTt5pe/VfiIiU+6aRd8OXRAv6uLcnjXxdB9NKTmiq/HUb7clTGflzLR16pQe5RC+k45VaIqqji58MI7eOo2j9Ha3FMayOX764UB2lWd070diMMtISUe3ta1RgrBxj7u2hNF9XGrzyInEm+ZW27ckjlVHhbk4+7e3/o8FOvjQjUz+Q8hC97N+envqihLQPLas5f1FR3q4MOsY5CKkuL6MkaS96/YTKQm6wHHOtyQPm/dRUDuKR2RpdaO/QmmHO5J22h7g6XUmHX/anDqO+JJlBYcczjqaOSjeMpfY+abSrtIru1Wka9WXXzpeeXH6cbt68RkUKw3hU7p9O3kI7CpzxPRXUE9Vf/5yedO1AT38lI7IQW5q6Utowtj35pO2i0qp7VKchotpD9EoPF4peeJy4ULlInwxzo46j1tMdrYqOzupOncZmEBfit+laC2VYyjMWYtGwJ9o/3ZvE9oGU9l0+qaiebqwdQW4d/kZfljTErR21832Slh+/STevFZGiWWw06sfWlRIXHqYyrZaKvx5Nbo4dKXjCOrpYS6TMW0LRDoH0xkmVRdmsyW8Mxl+FVtwLtwYhur26E2d3r8I/x/VDzIBnkBwggq70Dorqjdu2FSpkb9yBqkFjMcQFcEweh+H2h7BpV0nT7TIbKYbOWYxB7kLAPgyD4jvh9rXrUAOQhIzCxARvCBWlKCjUwsPHCeXFJYZDGKM6jp2Z99Bv6lQE2gEQtEf4MyMQIlHh9PbdKIsagf6iQly5ch2KoHiE3j+BI+eNbhirTmP77jJEjegPUeEVXLmuQFB8KO6fOALjpgaoc7DvYAXip/wDIXaA0GMwlqSPRSe9JVWnt2N3WRRG9Beh8MoVXFcEIT70Pk4cOa+/ZW0D6dA5WDzIHULYI2xQPDrdvobraiHsHO0gtrGB2N4ZzlI7CA1HhtBOCjuxDWzEdnBydoDE6Lg6Zx8OVsRjyj9CYAchPAYvQfrYTtbtx2qFPvjHscIGNlI8lb4CY/0kgKgbUiYkQJN1ECfU1p1r2pfUyNl3EBXxU/APzjAYvCQdY5sMY3F+NtKhmLN4ELiuByG+021cu67m8TfuvEYkIRg1MQHeQgVKCwqh9fCBU3kxSnSAwNkFTnUXcGDfBVTp7OET4At7o9Mt2dckZvWhwvGdmbjXbyqmckKjffgzGGEstCoLW3bKkDBzDuLbCwDYITBtJoaLjmDPoRoLY1gfv7xxIXCGi1MdLhzYhwtVOtj7BMDXWDlGqI7vROa9fpg6NRCcScLxzIiQFjozJ5/AezTGJ97Dvu+OoBaAMmsb9lYPQMooD9Q/rKxm/UWCkFETkeAthKK0AIVaD/g4laO4pCFTmssNlmLOEIttzfqpqRzEI7M1uhB4YMzEZNTt24oDNQCUWfhu3z0kp4yCu4HwPOMI7eBoJ4aNjRj2zs6Q2jVlRkniPKyZE4+uXQPg7dC8Pw4b51FI/2g0fEWAyD8VqYkaHD94wrhZC4R2jvpYtIezsxR2QkCVtQU7ZQmYOSceXKgEIm3mcIiO7MGhGgGcXZxQd+EA9l2ogs7eBwEtlMFhPs9YEYuGPUH6VDpWjPWDBCJ0S5mABE0WDp5o2H4jQeK8NZgT3xVdA7xhQj2wkQ7F7Lf6w00ggHu/RPTS+WLM/KkItAdse8Qhyu0ObuZrLMpmTX5jMP4qmMq7D4Ui53NM6eMNJxcv+D0xCMvO1YO7sm/cso2oPYSMnYVoX5+H1R98gA8+OQOVqxpHN23D7eYb3WyafhFLxNBpuJ2Dujt7sWBoD3j5x2L4mFQs+ekudGRhh5y6FKVyF7h72Bkd0EImK8f9U59gSkoKUlJSkDJ5HQr9Q+DnbFQGa2WQld/HqU+mcO1SUjB5XSH8Q/xg3NQATSlK7zrC3UPa+JGNSNhoSK1MhvL7p/DJFP34KZOxrtAfIX7OzQrxRmXARiyBWKcxsY+y9WhKS3HX0R1NotlAJLTSxVqhD/5xrLGBAGKJuOFk2Lm5walWDrnKmnPN+ZIGpaV34ejugSaxRGgSy7r5NXUthkSsg0bL529G6O5g74Kh6OHlj9jhY5C65Cfc1RF0AEShc7FueTwuL4hD18CRWLgr38Re8QfEpD7UKC2Vw8XdA7xSq++guMIJXl6OTZ+JPOHZUYOK8maPsJkcw/r45Y0LUSjmrluO+MsLENc1ECMX7kK+BeWoS0shd3GHZZOYkU/gjr+NH4D7md/jSK0Sx7ftx/1BKRjh1gaymvUXHe7sXYChPbzgHzscY1KX4Ke7Ohiqy3Ru4I85Qyy25fHTlvDIbI0uIIDbyIkYRpnYklmF+8e3Yf/9wUh5soNRO55xzGIDiZsH3EyrgUMghkTU8Icd3NycUFtZadjGStR3ilHh5AXDUPFER00FyqsECJ27DsvjL2NBXFcEjlyIXS2V0YjpPGNlLDZDIJagMZPaucHNqRbyhud7bCRw83CzWGQ0yiKRQGxj00w2CSRiHbRWyPZI8xuD8SfDUky1Dt0dfD1vLr79zRMv7LmGSsVl/Du+qUDC/Xxk792HM3faLqSqf9qEfapIxHbToLa2FrW1avjExsLl5GZsvWapHFXh0HsvYbV6Bo4U5OPS+dNYM87LslLEUkjtalBVZdy/AFJnKRwGvo/s3Fzk6n/Ond2JueGN2VvfVApnqQMGvp/d2C439xzO7pwL46YGCB3gaF8LeWXTZWhq9q1IIHWG1GEg3s9uGj/33FnsnBsOvm4BvTc0rdutRujgCIdaOeSNd1eMvrAJhLCpr0fTYV3T8VboQ+jgCPtaOZpU0HwcK23QTC61vBIKxw7oYGvluSYRwsHRHrXyyqaH8YiahmnF/Fpg1t8MUR16Dy+tVmPGkQLkXzqP02vGwavRmaUIn/EFTty4iK2pdVg/9RVskPFWJQAAgdAG9fVNt8tI12xOvIghldqhpqqK/0uh2AlO7RSolDfLCbpy3K2SwNXdpXlLE1gfv5biQho+A1+cuIGLW1NRt34qXtkgM+7CALFUCruaKvCbhE8+AdxGjscgdSa27fsR2/arMWzCcLRvC1nN+YvqEN57aTXUM46gIP8Szp9eg3FNDsILf8wZYqktr58a5yALMlvUBQC4DMekEbb4ecv32LN1H+qHT8AwY9eyMI6xWK2haepqyOUKOHbgvjTwx1bLEcVOTminqIRhqNxFlcQV7i4CQBqOGV+cwI2LW5Fatx5TX9nQ/HTLPFAsGiRSVCoc0aHDI3gXlUXZHiy/MRiPI9ZlbWuhOihquSfDSVWKc5tXYuuFhsVDh+Ivp2PgyKcw5LUfDE57cCqwd2MmbEa8iVXvv4t33+V+3lv5DlI6n8PWzZeMTzBCiyr5PYjdfeBlB+gqT+HnsxVmrvw0QxKNpGgtjm7bDS43VCM3YyOyFBL06R8L0S+b8V2zFxqrq6twv/n5ACDpg/6xIvyy+btm7z5Wo7qqRUtDxBGIixDg5O693NiKHHz68U69HICkT3/Ein7B5u+avStXXQ1L3XK0g72tAhV3H+yLlTgiDuGCk9i9RwZOtE/x8U7udwAQ+fjAQ3ERuVfVABQ4s+Ij7ChrFNxqfYgj4hAhOInde02NY4UNqAr7P12B0zXcl83vtx6DIH4g4iRWnGsWMSLiIiA4uRt7OcMg59OPsbPJMFbPrwVm/c2wmbZKjntid/hwzoxTP59FhX545dUzyC3XAnZ+SE5JRpf6GlRbfG2qCD4+HlBczAVnsjNY8dEONJiMHwmik6KhPboNu/U6qM7NwEZjoSVxGBgvwLHNW3FLCwBaFG7/GpmaZIxObrqrZBrr45c3LpRXcSa3HFrYwS85Bcld6lGjV47y9Od49bWvW7wGUBKdhGjtUWzbrfe76lxkbMyC4ewsyNd+OFKG6rAnfR5205OYMJib74PK2og5f6mugvyeGO4+XrCDDpWnfsbZBgexAH/Mta4tn5+2yEFaHpmt0QUAwAHJzz4NlwP/wus/2ODJlIFodt2Wg28cAGhnD1tFBVqbGqlqPz5bcRo1AHTFO/HdMSHiB8ZZFVvt7G2hqLjbeOVYEjcQ8YJj2Lz1FucX2kJs/zoTmuTRSJYqcfVMLrgQT0ZKchfU11Q3dWYNrY5FQtX+T7GCS6S48/1WHBPEY2Cc8YaxNsCCbObym65wN5a8tBjf5/N+w2YwHivatnAXdkXKS+PRTfArVoxOwJDXT8Mn2h9iiQS2AgHauXujo7gdPLzdjM98MKoPYOfRdhg+Ntlw/5ykD8Y/44/Lu3cAEEMssW12uxIQicUQi0UQwB6Dpk2D748vIqZvPCIS0yHr0h3tRPrGYjHEkoYk1KwfgQ+eW/oOIrJnIipyAJIjwzFmfT4EAgE6TViGVU/exOtRgeg7eCiSY3siIOFtZBvvWxd0woRlq/DkzdcRFdgXg4cmI7ZnABLezjbx+rTmY3sgdfFCBB1/ETExAxAbMwM5fccg0l4EEQBBpwlYtupJ3Hw9CoF9B2Nocix6BiTgbb0AYrEEtobKgFgshkgAQBKLkcNdsP+fieiXOBXrC3WAWAyJrUR/td4GIpEIYpG46VpQs+MCj1QsXhCIX16IQcyAWESnZcMtpEOjk4lCnsPspyqwfFA44mPi8OKlJIwLt4eIE9xqfQg8UrF4YRCOv8iNEzMjB33HRMKe68iyDWwc0M3hMJ6LikZSn1jMPp+AD95LhbtF+/H5kgAeqYuxMOg4XoyJwYDYGMzI6YsxkVbOz0DPACCCWCyGWCTg8TdDe9oPmoZpvj/ixZi+iI9IRLqsC7q34/yi7vJ6pIT2QtzAAYgatBJ1k2djgq9x+BvbV4SQ52bjqYrlGBQej5i4F3EpaRzC9b5mSR8+zy3FOxHZmBkViQHJkQgfsx75AoGRP3ti8rIVGHr9DcQEJ2JgUm/EvFmIsWtXItXDqG2LMayPX964qLuM9Smh6BU3EAOiBmFl3WTMnuALQAf5me1Yl/ELCowKd4HPc1j6TgSyZ0YhckAyIsPHYH2+AAIAYrEYEokIsCQfnDF04ig43rgJxzGT0F+/KffBZG2GOX9xHIRp03zx44sx6BsfgcR0Gbp0b8f5p4XcwB9zJvIAT1s+P22RgyqSzctsjS702PV9FuN8ZSh2HInUBkU3x55fN5LYkRjush//TOyHxKnrwaVGI30Z61AsQrueAxBweDIi+vRDn5hXcS7uPbyX6m5FbEkQO3I4XPb/E4n9EjF1fSHgORnLVgzF9TdiEJw4EEm9Y/Bm4VisXZkKD0EdLq9PQWivOAwcEIVBK+swefYEA9kAS3nGUiwaYwOHbg44/FwUopP6IHb2eSR88B5S3U3HLVrox0gWIedvElHD6iKCRCyGWGQ5T5jLb5qiLGzZsAm/GAcwg/EYY0PN91m0EaqyK8i7fg8dAiPg78K3YfvPgabyJs5fqYBLr0j4u5hKUGZQynDx3DVUOwUgIsiz2V5eHRSFF5CXXw2hqz+Ce3rBwVy3OgUKL+Qhv1oIV/9g9PRysOrblK6mAOfziiHxj0CQR8tbkzpFIS7k5aNa6Ar/4J7wMiuAEbpq5OfkodjWH+G9vR7gAR8dam6dw/liCfwjuiP3lQA8p/oMt795mtOPrhaFv51HkdgfkYHuLR7ms14fOtQUnEdesQT+EUFoqQIzNlBlYkbAZNz/pABro64it0gM//Ago73KZs61Bl0NCs7noVjij4ggj5b/wMjq+ZnArL81Q1OJm+evoMKlFyL9XQz6VldcRe6lUgi8QxDezaXFw8fm0NUW4rfzRRD7RyLQvYXFLKCE7OI5XKt2QkBEEDxNCg1AW41beRdwW+mM7qHB8GyF47Umfs3GhboCV3MvoVTgjZDwbnARAtDdwfrR0Vgdsh1Z78aa1LdSdhHnrlXDKSACQWYm1xr5mtMqWU1h0l80qLx5HlcqXNAr0h+tEMeKmGuOhbY8ftoyB/HIbK0udAX4dEhvfNZ7L377OKFl3gEs6kZXnY+cvGLY+oejt1crHFSnwO3z53FH3A3hwYZxyx9bOlTn5yCv2Bb+4b3RMKS2+hbyLtyG0rk7QoM9m+VoNSqu5uJSqQDeIeHoZlYZFrAqFlXInBGAyfc/QcHaKFzNLYLYPxxBLZ6raGN4ZHvQ/MZgPG48ksKdweBQYf90f8PC/Y+msXAvxLej/xQSMf6kqE8tQMKrAqw69C7iTL0Sg/HYoL28FIlRXyP+wHl8+Ci2cvzP0VS4F347+s+R2xmM/xFadb2FwWgdQnQKjEdikMefx9GEbujVNxHBJm/9MhhNSMIX4vAxVrQ//uhQ9XsZnJ5+GZP7sKK9bRDCrVdfJAb/iXI7g/E/ArvizmAwGAwGg8FgPAawL8sMBoPBYDAYDMZjACvcGQwGg8FgMBiMxwBWuDMYDAaDwWAwGI8BrHBnMBgMBoPBYDAeA1jhzmAwGAwGg8FgPAawwp3BYDAYDAaDwXgMYIU7g8FgMBgMBoPxGMAKdwaDwWAwGAwG4zGAFe4MBoPBYDAYDMZjACvcGQwGg8FgMBiMxwBWuDMYDAaDwWAwGI8BrHBnMBgMBoPBYDAeA1jhzmAwGAwGg8FgPAawwp3BYDAYDAaDwXgMYIU7g8FgMBiPBVrcr66ByvhjA3RQVcuhUBt/zmAw/gq0ceGuQ0nGPxD6RARe3lVtfPARoUDhxRzknD2Ls/qfnN9uo8a42SNBizvHMrDhSAG0xoceFvUJ/GtAPOYd5k/RjxL1iX9hQPw8449bwSPUz2OA9s4xZGw4ggKTk1cje3EyEhcetbAI/xdQZ2NxciIWHn14SR7OZzQov3AAW/7ff7B+80FcrtI1O2Yc5znIvSnXH7uPkt/zcL3MSH6lDFevlxp+xoe6DL8d2Iov132BTT//DrnB8IW4mJPTmGPO5uTipr7B/ZLfkXe9zMiOSsiuXkfpQ6pUUXgROTlnkZOTiws3y6E0bgAAUKEkZx82rl+Hr7YfwRV5g8NZp5eGMRrzZ+5Nw7k/KNo7OJaxAUdMB4AFDOODP5b+V9ChfMc09I6ahf1lZgykvYIvxvWAh39vBEW9igMP6X//Kzxc3mK0Jcb56GzOb7j93ynoWqDOXozkxIVog6WxbaE2RUPXl8WTGLY0dE2Z8cFHgubGh5RgK6UuEX2pb1/uJ35IOh1SGrd8FNyjLRPdye2ZDXTX+NDDotxP0zu70qTv64yP/NdQ7p9OnV0nGX/cCh6hfh4D7m2ZSO5uz9AGk5NX0r5p3uQ2eQf9cRbWo9xH07zdaPKOh5fkwX1GSUfm9SYXp84UEhVGfs4ikvim0Df5GqKGOBfbkEAoJKFQSEKhiOwHfsodu7mcEsU2JPROpc0l2sYe63ZOIXff5xv/5kV1nN6K9KYeyZPo+RnPUISrHXVJzaDbWiIiDd34MIHENgL92EISiuxp4Ke3iTQ3aXmimGyE3pS6uYQaR6/bSVPcfen5nx4iEWlu0IcJtiT1i6S+fWMotEt7at8zhdbkNevz3hlaOTqAHGw7UkB4FIX5d6B27fvQomN11ulFc4M+TBCTjaBBr0IS2Q+kT7mJPxz3ttBEdzd6xnQAWMAwPvhj6X+EqgP0Ukg4/fOg3PhII/VnFlCIdACtuqUl0mqb/JHBy4Pnrb8eqpPLaWLaGvqt3vjIf4GGnNclorGe6xs/hNL/OwVdC5T7ppG322Rqg6WxTWnjK+6G6DQ1KCuVQ2Xm4kCboNNCK+yOqV8eRVZWFrKysnD8x7cxwNa4oTE6KOUlKC5TQGN8SI+6uhRlNU1HdcpKlFYq0TQdKcZnyFC27Vl0bPxMj0aB8tIqmLxbqa5GaUk5alt99YhPZjWqZSWoVFqjbA1qyitQ27yplTLplHKUFJdB0VIAvXwyyKoaZm1GP9paVJTIIDcrqwaK8lI0dmOEuroUJeW1La/iq6shK6mE2W6boVPKIZOZsM9DyKaulqGkmX9Ix2dAVrYNzzafvEaBcpnc/FV2C3bQ1JSjopnh+O3B74caRTlkcrOSQFtbgRKZ3Cp98mFRRgCAEB5DluJYQQHyzpzDtVPLEC//Hp9mXOXsrNNCKw7Hol+V0Gg00GjqUfvzy9ypWg00Ij90t/8B6e8fgaJ5t0TN/zKPwBVDPs5C3sFvsWbtNvy04knc2/H/8IOMm7xOq4U4fBF+VWq48etr8fPLPgC00GhE8Otujx/S38cRw8FBD6U7HbRaIZ5I+wa/ZJ1E7vXTWOy1Hwvf26W/o1iNA/NS8ebpYHx4+hau/XoG564X4revxsBdrbFSLzpotWKEL/oVSg03t/ran/Gyj+WlwWwcNiAdjwxZGbYZBAB4Y8hcfJiPJevi3RQW5W9EjerSEpSbC0q++RiggaJcZmWObomOvDD2s2+xqJ+L8aFGNKUyVDj4ws9dAAgETbfULeU1TQ3KK2qbrW3Qz7sMTUugDsrKUpPyWxfjDfDpS4vaihLI5M3XWUOMcyCgz5tlNU3rok6JylJTvsG3hvJgdm2x5BvNsJDb+XK12fXKEg8wpqYwB5kHciEzdY6xn+iUkJcUo8ys4flsbQou53Wf+iWO6uu5rOM/4m3jgs6E3CbRKSGXyVqOzys3F6fmlsbW+fqjwXJ2fiB0KP3pDST4uMLD0w0eoX/Ht9f/y7PU3sCaMUHov+gXbsHSXsGaseF4+rMrUJ1ciqE9POAb1h/9Qn3gGT4Nm/I5L1Vnp2PAyMX4z6LhiIyKRqBvD4xefQ4Xvp2BpNBIhPp5IWzGVtzWAoAa2elJiHn9ELfQqLORPmAkFq9bjCfDQhEV4gPvPrPxQ0mDm1fj9CcpCPHrhbikcPh1icfsHbetWDjAK7P2RgamhfuhR2wiQv0CkPLVbePTgYa5PbUIq17ug84enohZeNp6mVQnsXRoD3j4hqF/v1D4eIZj2qb8xna6soP417Du8A2KR0KwL7oN+gAnVEb6QTXO/N8kRPh0Q3i/ODzh1RUD5u7U3/5WIzt9AEYuXofFT4YhNCoEPt59MPuHkqYkUX0an6SEwK9XHJLC/dAlfjZ23NYC0OJGxjSE+/VAbGIo/AJS8NXtFhmWQ1eGg/8ahu6+QYhPCIZvt0H44ITq4WTT3kDGtHD49YhFYqgfAlK+wm0dp++kmNdxSAUuJjLno5+fL3rHhuKJ2Jewu6h5TPDYQZ2N9AFPYdGql9Gnswc8YxbidA2PPSz5oa4UmfP7wc+3N2JDn0DsS7thKMoZ/N+kCPh0C0e/uCfg1XUA5u58gO1OFnzGEBGeGDAcwS5cShL59UavDgJo1GpYVXoL/TDpjXFQfvUWPv3tAXKN6AkkJnVBw/JgJ5VCYmMDGxujdiYRwm/SGxin/ApvffqbhYKgGtunh6DvgqNN217UJ7C4XwRe3lNr2NQYkQ9CAzuirrIS93UAyndi9cZSJM5fied7O+ob2cN/1Dy8lKz/+2H1YgqzcWiEOhvpSTF4/ZDKcgxZiA9TsdTfzxe9Y8PwRPQ/8O/5o9FXn2dUR95EbOIiHG9YrNVZSE+MxZsN2w6tlR9A9elPkBLih15xSQj364L42Tua5X6++RiiK83E/P5+8O0di7AnovGPf8/H6L76+aiO4M3YRCxqEhhZ6YmIffNwY948/UkKQgMH4R9pQ9DdTI6u3PQcQv6+FaXl2zGtux/i3sqC2oq89tSiVXi5T2d4eMZg4WmFfl7/waLhkYiKDoRvj9FYfe4Cvp2RhNDIUPh5hWHGVv34Vse4ZX1Vn/k/TIrwQbfwfoh7wgtdB8zFzoa9UaZyoEKf5/6zCMMjoxAd6Iseo1fj3IVvMSMpFJGhfvAKm4GtetvyraHmMb+2mPcNYyzldr5cbWa9stJnWjemBqVfp6L3Cz+gujgDkwJ8ETB+Pe7oTPlJDU4uHYoeHr4I698PoT6eCJ+2CZw6Ldv6gTArt6ledSg7+C8M6+6LoPgEBPt2w6APTkAFFY/c+jjtx8Vp6BOxeGl3UVM+t9rX/wsYX4J/OBq2yoBsxF4UP/klei7Bi8Q2AnIdt9G4cZugubaU4tp1p8mrd9IPP/xAP+zeS9k3ufsa8p9epB7SSFp0WkE3144gjx4zaX8lkSpvF2UcKyIlEZHqMi1LklKv108Q6W+Zedu6UuLCw1Sm1VLx16PJzbEjBU9YRxdriZR5SyjaIZDeOKkiIiXtn96ZXCd9z213UO6n6d625Jowjw7INES1J2l+qD2FpZ+jeiKqPTyLergPoZUXaolIQ0WbUsnXaxJtqzSYEofRVhnzMqvo6Kzu1GlsBpVpiaj2Nl0rqDXujahhbnbtyPfJ5XT85k26VqTglcng9qEqj3ZlHKMiTgC6vCyJpL1epxMqIqJ7tCfNl1wHr6SLdUSkraRft+2hPJWhfmoPvUI9XKJp4fFK0hJR3cVPaJhbRxq1/o5el95k65pA8w7ISEO1dHJ+KNmHpdO5eiKiWjo8qwe5D1lJnKhFtCnVl7wmbaNK1VGa1b0Tjc0oI04F18iMCujenjTydR1MKzlBqfLXbbQnT/VQsqmOzqLuncZSBmcAun2tgGqb3X79vo6IFJn0vJ8LJS3NozrSUMlPr1GUVEgd9VsB+OzA+ZUdtfN9kpYfv0k3rxWRgs8eFvxQkfk8+bkk0dK8OiJNCf30WhRJhR31W2Vq6dArPcgleiEdr9QSUR1d/GQYuXUcRevvWL7xbr3P8KM6l05htr40I5MzpObaUoqzD6UF2XdJLpeTXF5FCn0/mmtLKc6hP63Iv0GfD+tAnUZ/RUVa/ZYQnxmGHfOhVVKN/C7d/nUTvRLVkbpO3kLclDV0bWkc2YcuoOy7cm78KgWpiIg012hpnAP1X5FPNz4fRh06jaavuMFpirsPzcg0vsWrpTtrhpGzdxrtUXCfKA+/TP4dRtGXMiP9aq7R0jh7ikw/TRXyCio6/R9K6eZJI9fdIA0RKQ/MJF/baHr3EredyBir9KIfI3RBNt2Vc3OralCsSXji0LipQQ7jjyFL8dGaWKrbOYXcvdNob8PtbYOtYK2Qv/YwzerhTkNWXiCu6SZK9fWiSVxQ8s/HAAVlPu9HLklLiQu5n+i1KCkJO+pvwdftpCnu3pTWJLDBNiHe3NAcTR2VbX2WPDyepa2lXHxYk9fs2vnSk8uP082b16hI0TCvRFp4uIy02mL6erQbOXYMpgnrLlItKSlvSTQ5BL5BJ1WtiXEL+qo9RK/0cKHohceJSzsX6ZNhbtRx1HouBk3lwIY8l7iQDpdpSVv8NY12c6SOwRNoHbdY05JoBwp84yRxoppbQ3m2yphbW3h9wxBe+1nI1ebWq4fyGb4xNXVUumEstfdJo12lVXSvTmPGT1SUtyuDjnGGJ9XlZZQk7UWvcwsQv6350FyjpXHtqPvk1bTzhx/ohx92097sm1bVVwbc20Npvq40eOVFqiMibeWvtG1PHqmIT24LcWq1rz96HtEVdzHC5+/FwW8+w//b9jYGOxDk2YeMG7Udugrk/rAB33zzDb75ZgN2n6uADoDLwHfw4bhKfPrCGDz39iUMX/YOhrQHJCGjMDHBG0JFKQoKtfDwcUJ5cUljdzbSoZj9Vn+4CQRw75eIXjpfjJk/FYH2gG2POES53cHNfDNXr2ykGDpnMQa5CwH7MAyK74Tb165DDRVOb9+NsqgR6C8qxJUr16EIikfo/RM4ct7MPZlmmJdZAGcXJ9RdOIB9F6qgs/dBgK+98elNSBIxb80cxHftigBvkfUySUIwamICvIUKlBYUQuvhA6fyYpToAKiOY2fmPfSbOhWBdgAE7RH+zAiESJp3oELWlp2QJczEnPj2EACwC0zDzOEiHNnT4Bs2kA6dg8WD3CGEPcIGxaPT7Wu4rgagOo3tu8sQNaI/RIVXcOW6AkHxobh/4gjO1zvDxakOFw7sw4UqHex9AmBaBSoc35mJe/2mYionKNqHP4MRIfRQsgmcXeBUdwEH9l1Alc4ePgG+MB5enbMPByviMeUfIbCDEB6DlyB9bCf9LS9rfEOCxHlrMCe+K7oGeMOBzx7g80M1cvYdREX8FPwjxA4QemDwknSM7aRPBaosbNkpQ8LMOYhvLwBgh8C0mRguOoI9h1r5hJAlGc2h+g2f/vMzyIamY96gZprU/I7Vz4QhJCQEISGhGPLuiWYnESDww9/ffRk+Py3BuweqW311R/XTG+jbOxRR/Z/DupLeGDOyN/Q3AAAAmt9X45mwEG780CF490TT/VeCAH5/fxcv+/yEJe8eQLXZwQXwGDMRyXX7sPVADQAlsr7bh3vJKRjlbioda/DbJ39DaEhvRA2ZhR2qnnjCuR71ALTyKtyDMzp04LstYI1eNPh99TMIC+HmFjrkXTSbmiF8cWgxjZmPIf74MKQ1bVvQCvlVp7djd1kURvQXofDKFVxXBCE+9D5OHDmvv6ppfj4GqHOw72AF4qf8A1zIDcaS9LFoCDl+rMkNeoR2kNqJYWMjhp2TMxwk1uRcQJI4D2vmxKNr1wB4O0A/r9l4q78bBAJ39EvsBZ3vGMyfGgh72KJHXBTc7txEvqa1MW5eX6qsLdgpS8DMOfHg0k4g0mYOh+jIHjSlHaMcCH2em/0W+rsJIHDvh8ReOviOmY+p3GKNuCg33LmZD05Uc2soDwLTa4tl32jACvuZzdXm1iuDhdUEDzGm0A6Oeh+yd3aG1E7Y2Kuhn0gQMmoiEryFUJQWoFDrAR+nchQ3LUBmbW0ZHSpyf8CGb77BN998gw27z6HC4rpmiOr4TmTe64epUwPBlSTheGZECCTgkdtSnLbK1x8tVqWO1iOAm5c3bAEIXLrBr6MAuuqGN0A8AoR+GPPvzfjuu+/w3dZNeH+MNzcxQUeMmJuG7nkHcLLTZMwa4QYBAN2dvVgwtAe8/GMxfEwqlvx0FzqjzaiNS6FEArGNTdPfNhJIxDpo+e6PNDWGWCKGTqMFoIVMVo77pz7BlJQUpKSkIGXyOhT6h8DPuSk4zGFeZhFC567D8vjLWBDXFYEjF2JXvrEbN2EjcYOHW4PZWyGT7g72LhiKHl7+iB0+BqlLfsJdHXFFgLoUpXIXuHvYGZ5jgBp3iivg5OWFhpv6gAienh2hqShv1q6pCLERSyDWabhbUVoZZOX3ceqTKZycKSmYvK4Q/iF+cLYNxdx1yxF/eQHiugZi5MJdMK0CNUpL5XBx94ChpA8nmyh0LtYtj8flBXHoGjgSC3flt0gkmtJS3HV0h4e04RMbiIStsIONBG4enP8CFuzRgEk/1KC09C4c3T3QJIoIjaKo76C4wgleXk2agMgTnh01qCivavrMGqyR0RhdMXa+koL3yidi/X/+jq7N3VAUjFmZ+SgsLERh4S1kvRPX7CCHbeQcLJlIyFj8GS5qDExmEdthq5B3uwillTJkL2yP754dhlf3NM1ZFDwLmfmF3Pi3svBOnNECahuJOUsmgjIW4zOewQVuIzFxGCFzSyaq7h/Htv33MTjlSXQwbggAEKH33J9xq7AIJfIy5Cx0wqa/T8FHFzQQSqVwgBwVFZY3E/HrRYTgWZnIL+TmdivrHRhPrRG+OLScxszGEH98GNKati1ohfxamQzl90/hkyn6mEyZjHWF/gjxc0ZTU9PzMUBTitK7jnBvEhg2IqGVi68VucEs1uQ1G0jcPNC4JDTSNC+JRAybZnvGbCQSiHVabp6tjnHT+lLfKUaFkxcM044nOmoqUN7wdinjHNhA02INibj59jYbSCRi6PSLtfk1lAeR6bXFOt+A9fYzmavNrVeWeJgxzWHsJzrc2bsAQ3t4wT92OMakLsFPd3VGz/SYtrVlhPAb829s/u47fPfdVmx6fwy8mxvdCrnVpaWQu7ijZUnCI7elOG21rz86WsRA26BDTfU9zkiKQtyR6yBw5p4qup+fjb37zuCOcWXzKNCVY8/y9ShOGImogvVYur0EOqhw6L2XsFo9A0cK8nHp/GmsGef1qBTRDAGkzlI4DHwf2bm5yNX/nDu7E3PDRcaNjbAgszQcM744gRsXtyK1bj2mvrLB8HSzWC+T6tB7eGm1GjOOFCD/0nmcXjMOXg0CiKWQ2tWgqqplADUhhpNTOygq5c2KWh3K71ZB4upu0NIkAimcpQ4Y+H52o5y5uedwdudchIsAafgMfHHiBi5uTUXd+ql4ZYPMuAcAYkildqipqjJKIA8pG6QIn/EFTty4iK2pdVg/9RVs0D/U2IDQwRH2tXJUNl6OoWbPTVpvhwZ47cGLEA6O9qiVVzZdGSJq2kcudoJTOwUq5c0CVFeOu1USuLqbfyjOFK2WUVeGA2+MwrTDEfh01wo8afIKtCVcMHTRQgy4+SmW7K0yUzpbQNge4WmzMaZLCY4dvtjiSxgfLkMXYeGAm/h0yV5UmR3cBcMnjYDtz1vw/Z6t2Fc/HBOGWaNbRwRPSUGs4AJyzqsgDuuDUMnvOPiTNc8ftIFeYDkOHxT++DBE6OAIh1o55PUNnxi1FQhhU8/dleAO65qOt0J+gdQZUoeBeD+7KSZzz53FzrnhaNVUhQ5wdKiFvElgkKHAENrUo77ZfHRNArc6NzTxsHnNMq2OcTOInZzQTlEJw7RzF1USV7g3v+31wFhYQ3kwtbZY7xsPZz/T6xUeoc9wRaHF/KA6hPdeWg31jCMoyL+E86fXYNyDGP4RIZZKYVdThRYlCZ/cQgc42tdC3pSEDOK0rXy9LXhEw9bjxDtPYdyb72He1H9hX40NOiQkA7pifDl9IEY+NQSv/XDf+KQ2pzLzLby2pwcWrtuCz//ZGfvmLcTu8npUye9B7O4DLztAV3kKP5/lttY8WiTo0z8Wol8247tmLyNWV1fBsia0PDIrcfVMLsq1gJ1fMlKSu6C+xtp36Fsvk7ZKjntid/hwAuDUz2ebbl9JopEUrcXRbbvB1avVyM3YiCyD11hIEDcwHoJjm7H1FjeWtnA7vs7UIHl0cvOGppH0Qf9YEX7Z/F2zdzmrUV11H1BexZnccmhhB7/kFCR3qUdNtak3XksQnRQN7dFt2K0vrKtzM7AxS/1QsimvnkEuZwAkpySjS30NjIcXR8QhQnASu/fKoAOgyPkUH+/kfm+NHRrgtQcvYkTERUBwcjf2ynQAFMj59GPsbPiiIYnDwHgBjm3eCk4VWhRu/xqZmmSMTm66EmENrZOxFiffHY2Ur+ww8+PXEFZ3BRcvXsSlm+Ut3jBiCYHPFCyZ5YfDGzMhb8y7Spz+/FW89vUFkw+P6krO4cSVmsY8oLyajRyZAwJ7B7SuSBP4YMqSWfA7vBGZTYO3wCH5WTztcgD/ev0H2DyZgoHNrjSaR4FLG7fhFMIQE24HgcdYvDDeDVkfTMM7mbdwH4BOcQM/fjwDb2wubZHTTOvFNMrTn+PV177GBWNl8cXhQ8AfHy3bhgtOYvce021FPj7wUFxE7lU1AAXOrPgIOxree94K+SV9+iNW9As2f9fsi5G6Giaa8iOOQFy4ACd37+HyoyIHn368U58ruYeOfTwUuJh7FWoAijMr8NGOsgfODU08ZM61gtbFuHkkcQMRLziGzVtv6e+wFmL715nQJI9GK9OOGfjWUB7MrC3W+8bD2c/0eqV4hD4DoJ09bBUVuMt3xUJbBfk9Mdx9vGAHHSpP/Yyz1hpeV4jdS17C4u8f3YOdkugkRGuPYttufV6ozkXGxiwo+OQWRyAuQoCTu/eajNO28vW2oI0LdxuIbCUQ24Vj3PgOOP7xIvx7TwFE3cZh6dvPAIJ2cPfuCHE7D3i7tWo5NIuNrRSONr/hw6RO6NChAzp06ICOPpOwqewE/v3mdnjO/RBp/nYInfMRXnTZjvnL8jBo2jT4/vgiYvrGIyIxHbIu3dFOpJdHLIbEVtK0WAvFEIvFkIgavoOKIBGLIW5sLoGtpKG1GGKJLRr/BCASiyEWiyCAAJ0mLMOqJ2/i9ahA9B08FMmxPRGQ8DayTVYmYojFEn1f9jwy1+Hy+hSE9orDwAFRGLSyDpNnTzDujMN4bpZkEoshlnD3zO0HTcM03x/xYkxfxEckIl3WBd3bibi+BD54buk7iMieiajIAUiODMeY9fkQCJrrRwDPycuwYuh1vBETjMSBSegd8yYKx67FylQPvXjNdQlAxOleJAAg6IQJy1bhyZuvIyqwLwYPTUZszwAkvJ0NVd1lrE8JRa+4gRgQNQgr6yZj9gTfpn4aEcDnuaV4JyIbM6MiMSA5EuFj1iNfIHoo2eour0dKaC/EDRyAqEErUTd5Nib4Cgz0LfBIxeKFQTj+YgxiBsQiZkYO+o6JhL2I0w2vHUz4Fa89TLRv7oceqYuxMOg4XoyJwYDYGMzI6YsxkfbgRPHE5GUrMPT6G4gJTsTApN6IebMQY9euRKqHFenCWp8xRnMV+3acQVVFFt4bFY7g4GAEBwejd9JCHFbp41AkgrgxDpuhj1Fx411gEXrP+hCvBtsBjs7cRzo5zmxfh4xfCkwX7mUHsWhgN3SLSMKg5GgEJn2E2pRP8WGqOwQAhGIxRCIxWg4v5MZuGhyi3rPw4avBsIMjnKUtTuCw64tnx/lCVuyIkan9WzwTAQCwsYXU0QbnP4iHW8eO6Ni+C4au1mLKhm8xN1AIoD2e+mgLlveXYdVT/nBxdIa0Qy+kflmNLk84Q2CNXiCEWCyCSCxqdpVNB/mZ7ViX8QsKjJXFF4dGTY39kC+G+OPDMHcJPFKxeEEgfnmBaxudlg23kA6Ni5ko5DnMfqoCyweFIz4mDi9eSsK48Ab/tl5+QacJWLbqSdx8PQqBfQdjaHIsegYk4G19wuabjwECD6QuXoDAX15ATMwAxEanIdstBB2aBMZzs59CxfJBCI+PQdyLl5A0LtzK3GCIjYizpdgGD5ZzTXwmFHNrUdMSKOHm2coYN+7XwP6ek7FsxVBcfyMGwYkDkdQ7Bm8WjsXalang0k7LnNbyM30sSpp8WSTh8h7/GmqYtwwws7ZY8o0mLNnPeA6Gudr0eiV4SJ/hGxOQxI7EcJf9+GdiPyROXY9CnQnb2Q/CtGm++PHFGPSNj0BiugxdurfjYsyCraEpQtaWDdhkKhfrc95vHyahk76e69DRB5M2VVmUuzkCn+ew9J0IZM+MQuSAZESGj8H6fAEEfHILPJC6eCGCjr/IxWnMDOT0HYNIe86fW+PrjxobMrxn14boUHPrV5wvaYeAiCB4WHyv+n8XTeVNnL9SAZdekfBvk1tx1qKDovAC8vKrIXT1R3BPLzhYObx5mdWouJqLS6UCeIeEo5uLpb2Pxlgpk6YSN89fQYVLL0T6u7QIFihluHjuGqqdAhAR5GlmX54W1bfycOG2Es7dQxHsabJkMY9OgcILecivFsLVPxg9vRw4OdQVuJp7CaUCb4SEdwO/CpSQXTyHa9VOCIgIgmejoA8um7riKnIvlULgHYLwbi5G+xwb0KGm4DzyiiXwNxkTVtqhAUv24ENXg4LzeSiW+CMiyKPxNYiNaKtxK+8Cbiud0T00GK1QhSEPI2MboruzHqOjVyNkexbejTXtmdBUIf/CJRTeE6Bj994IeuBJW4MOBZ8OQe/PemPvbx8jwUTN0Bpqiy8g73oF0PEJhAe1dk+sEbo7WD86GqtDtiPr3VjTfZmLw4fCUnw0R4eaW+dwvlgC/4juyH0lAM+pPsPtb57m5NXVovC38ygS+yMy0B0t1NsK+XWKQlzIy0e10BX+wT3hxRuU5tHV3MK588WQ+Eege+4rCHhOhc9uf4OnOYFRW/gbzheJ4R8ZCPeWArcuNxjw4HnNKtowxrXVt5B34TaUzt0RGuxp+gvtQ2B+DeWBZ22x3jcexn7m1qtH5zO66nzk5BXD1j8cvb3MWUGDypvncaXCBb0i/Q0e5P+zoJRdxLlr1XAKiEBQo+L45dbVFOB8HhenQcZJqA19/WF4hIU7g8Fg/BlQ49SCBLwqWIVD78Zxb6P4o9FextLEKHwdfwDnP4xrWVj+gahPLUDCqwKsOvQu4v4UyrKECvun+xsW7n9yVPunw9+gcGcwGAzr+KO+MDAYDMZ/CQnCFx7GsT9L0Q5AV/U7ypyexsuT+/ypinYAkIQvxOFjj0vRDgBCdAqMR2KQx2OzoAk7BSI+MUi/DYTBYDCsh11xZzAYDAaDwWAwHgPY930Gg8FgMBgMBuMxgBXuDAaDwWAwGAzGYwAr3BkMBoPBYDAYjMcAVrgzGH8RNIoqKFq8GJfBYDAYDMZfBVa4P3LUyF6cjMSFR1v8gw9Ga9DizrEMbDhizb93t4A6G4uTE7Hw6F/HItorqzCs5xB8+Kup/xjbdqhP/AsD4ucZf8ywFvUJ/GtAPOYdfnDf0945howNR5r958+/AA+sFwUKL+Yg5+xZnD17FmfP5iD3plx/7D5Kfs/D9TKjPpUyXL1eavjZn4i2ta8aJ/41AH3nHf5TrD8G+eOBbf4H8MCyPrx/KgovIifnLHJycnHhZjlMZ3gVSnL2YeP6dfhq+xFckbeJ8zD+pLDC/ZFDqC6+iiuFcrDX9zwM95G1Zi7mfnYMVcaHWgtVo/jqFRRa+r/vjwu62/hm/ucQvv4lFkY/2pdCU3Uxrl8tMv6YYS1UjeLrV1FU9eC+dz9rDebO/QzHHjoQ/kQ8oF60N9dgYngfRMfGIlb/Ez8jgzuW/zlSQsPQM+Lv2NLwf8sBKH98E0kDFzfr5c9F29qXUF18HdeKqtpu/VGfwkeTpmHthdbf3jPIHw9o8z+EB5T1of1TexNrJkZiwNiZePXVmXg2+Ql49ZqAtb81K/ZrzmLVmGB0j5+Cxf/3H6x68xmE+8ch/bjpEp/x+POXKdx1SjlksiqoDT+FUl6C4jJFy3+tCzWqZSWoVDYFTAPa2gqUyOQwcch6NAqUy+Tmr3Koq1FaUo5aS1+M1dWQlVSakEWN6tISlJvrQFOD8opatDitORoFykuNdaaHTz6dEnKZDFUtTuSRycw8dEo5SorLzG7x0NSUo6JWB0CK8RkylG17Fh2bN9DWoqJEBrlxxybQKMohk5u1CNTVpSgprzVxRd+cr+iglMsga6kIyz6krkZpWU2TX+qUqCxtqZ9GtLUol5k5rhMi6IUvsXZ6LzPvBNdAUV5qwl56Pyk3FR98sWOIJRu2Hg1qysvN9MfjYwD/XC2dayJmzPtES5p8VQ9fDDVHp4S8pBhlJifc0sek4zMgK9uGZw0DAbUVJZDJlWZjXqMoR6lpxfDM05zvG2Fprny5xhy8etGj00IrDseiX5XQaDTQaOpR+/PL3DGtBhqRH7rb/4D0949A0fw8vrcgm8lV1qCtLYes0rQNzOsYep+vQK3OnH0t55QW/tcCDWrKTMcGXwyrq2UoaT4nTSFyMg8gV2Y0E2vsZQV8etLUlKPcVP+WxjYR201Yn+sMsDQm2sI/ddBqhXgi7Rv8knUSuddPY7HXfix8bxdqAADVODAvFW+eDsaHp2/h2q9ncO56IX77agzc1TxyMR5v6HFHW0o/Lx5K3dw8qZu/N7l3HUjvZytJeeIDGtLdjdx8e1CAhwu5hqXRxpsaIiLSXP+W0sI8qVMXf+rs3pXGf1nA9VV1mj6bGE6enXyou58btfftT//ccYu4s6xFS7L98yjJuz15dPGhLjFp9MIwd3KbvIPqiIioik6tGk/Bnp7UNcCbXL370qzvC0yMoaHr36ZRmGcn6uLfmdy7jqcvC7RcD6dW0fhgT/LsGkDert7Ud9b3VKAhIlJR1qL+NOKtlfRSmBMJxEE075TKsFtVFi3q/xSl/yedhgd1I183R3KNmkW7irm++eXTUunPi2loNzfy7OZP3u5daeD72aTklcnMPJQn6IMh3cnNzZd6BHiQi2sYpW28yY2jyqJF/UfQWytfojAnAYmD5tEplYqyFiVS9GsHSamX8/RnEyncsxP5dPcjt/a+1P+fO+hWS0USaWW0f14Sebf3oC4+XSgm7QUa5u5Gk3dwFqGqU7RqfDB5enalAG9X8u47i77nhDfrK9rSn2nx0G7k5tmN/L3dqevA9ylbacGHGnS/9i0aFhxAvh1dqOvT/0e//raBpsf3ID93KbUPmU5b9GOT6ji91W8ULfp8Pg3p1ZW6ebuQS89UWnexwaZ8OuB84an0/1D68CDq5utGjq5RNGtXMem9iLL/PYIC3Dyoi48HdfLqTJ19utHoz/Oplid2lPunU2fXSdzwfDZsRtW2aRQcN5+O6NVNpKLs9CQKf2k3KQybUlX2v2lEgBt5dPEhj05e1LmzD3Ub/Tnla/h8zNJcLZ/bImZ4fMIAk77KE0PK/TS9sytN+r6OiJR04oMh1N3NjXx7BJCHiyuFpW0kvarN+pgqaxElRr9GB7lAoKrTn9HEcE/q5NOd/Nzak2//f9IOfSCoshZR/6fS6T/pwymomy+5ObpS1Kxd1BTu5udpzvcN4ZmrxVzTjFbopTmaa0spzj6CFp+vNz7EHXMcQEvWTSVfaRy9n8e1qds5hdx9Zhg358lVh+mNmAR661hD3Kno+KIEinnjECmJSHX8Leo3ahF9Pn8I9erajbxdXKhn6jpqClPzOlZlLaL+I96ilS+FkZNATEHzTrWwr+WcYux/+vOIiEhJ+6d3pg6DX6LZA3tSV+PY4IthzXX6Ni2MPDt1If/O7tR1/JeUX/wVTfB3JQehiKSdOpOP/zj6oui+1fYyzB/Nbc6vJ6rKpn+PCCA3jy7k49GJvDp3Jp9uo+nz/Fqesc3EdjP46gTDhn+Qf2qu0dI4e4paclGfV5V0+OWuZD/4c5JpiajsK3raRUqDPrvVmOsYf30e+8L93p408nUdTCsv1hGRlip/3UZ78lSkyttFGceKuCJPdZmWJUmp1+sniEhFR2d1p05jM6hMS0S1t+laQS0R1dKhV3qQS/RCOl6pJaI6uvjJMHLrOIrW32lFSCgy6Xk/F0pamkd1pKGSn16jKKmQOuoL99rDs6iH+xBaeaGWiDRUtCmVfL0m0bZKo35UR2lW9040NqOMODGvESfmYZrVw52GrLxAtUSkKdpEqb5eNGlbpT5Je5NdO196cvlxunnzGhUZV0bK/TTd25ZcE+bRAZmGqPYkzQ+1p7D0c1RvSb57eyjN15UGr7xIdUSkrfyVtu3JIxWfTObmocqjXRnHqIgzEF1elkTSXq/TCVWDjHbUzvdJWn78Jt28VkQK/QLkOul7To+HXqEeLtG08HglaYmo7uInNMytI41af8dowkSKzOfJzyWJlubVEWlK6KfXokgq7Kgv3Gvp8Kwe5D5kJXFTLqJNqb7kNWkbVZr1lXu0J82XXAevJM7tKunXbXsoT2XBhxp0n7iQDpdpSVv8NY12c6SOwRNo3cVaImUeLYl2oMA3TpKq0VZisg9Mo+/yVUT1N2jtCDfq8LcvqURrSQecL9i6JtC8AzLSUC2dnB9K9mHpdK6eSHNtOSU6R1L62Toi7V3aMy2AOk/ZRnfriSd2jBZePhs2Q3tnDQ1z9qa0PXpnVB6ml/070KgvZYaLjeYaLU90psj0s1RHWrq7ZxoFdJ5C2+7WW+X35uZqzbmGMcPnE0aY8NUyvhgyKABUlLcrg45xCiTV5WWUJO1Fr59Q8fhYkw2+5wKBXunhQtELjxPnchfpk2Fu1HHUeuJcbjp527pSwrwDxIX7fAq1D6N0TjE88zTn+4bw5gsLucYAq/ViCFcYhdKC7Lskl8tJLq8ihb6Z5tpSinPoTyvyb9DnwzpQp9FfUZGWp3A3l6vqdtIUd29K29vwzVNJ+6Z5N16MUe6fTt5iewpM+464MF1LI9w60N++LLGgY/25du3I98nldPzmTbpWpDC0r6V1yYT/GaZ8zr9FLrGmY4MnhlVHZ1H3TmMpg3MAun2tgGpJQ3WlG2hsex9K21VKVffqSNMKe5kv3Pn0pKFryxPJOTKduHS1h6YFdKYp2+5SPe/YpmLbUB6+XGfAH+Wf+sI9Mv00VcgrqOj0fyilmyeNXHeDNESkPDCTfG2j6d1LJr41MP6yPOZbZVQ4vjMT9/pNxdRAOwACtA9/BiNCJJCEjMLEBG8IFaUoKNTCw8cJ5cUlAARwdnFC3YUD2HehCjp7HwT42gOqLGzZKUPCzDmIby8AYIfAtJkYLjqCPYe4m1LWoM7Zh4MV8ZjyjxDYQQiPwUuQPraTfk+SCqe370ZZ1Aj0FxXiypXrUATFI/T+CRw5b7SFQ+AMF6c6XDiwDxeqdLD3CYCvPaA6vR27y6Iwor8IhVeu4LoiCPGh93HiyPnGbTmSxHlYMyceXbsGwNvUvy23kWLonMUY5C4E7MMwKL4Tbl+7DrUF+VTHdyLzXj9MnRoIOwCC9uF4ZkQIiE8mM/OAJASjJibAW6hAaUEhtB4+cCovRknjvUwJEuetwZz4ruga4G30r+pVyNqyE7KEmZgT3x4CAHaBaZg5XIQjew4ZtATUyNl3EBXxU/CPEDtA6IHBS9IxtpPe9VWnsX13GaJG9Ieo8AquXFcgKD4U908cwXmVOV85jp2Z99Bv6lRwbtce4c+MQAhZ4UM2Ugyd/Rb6uwkgcO+HxF46+I6Zj6mB9oBtD8RFueHOzfymW7Y2UjyVvgJj/SSAqBtSJiRAk3UQJ9TW6MAG0qFzsHiQO4SwR9igeHS6fQ3X1YCmqAAljqHoE2QHCNojrLcPqm4XoVYAntgxwqINOQQeYzAxuQ77th5ADQBl1nfYdy8ZKaPcDffqaYpQUOKI0D5BsIMA7cN6w6fqNopqBVb4vfm5Wj7XKGZEfD7RXOAGmvuqKy7yxJDxeSGjJiLBWwhFaQEKtR7wcSpHcYnOvI8Z7YVSZW3BTlkCZs6JB+dygUibORyiI3vQ5HJDMWfxIHDhPgjxnW7jGqcYnnma8X3D0XnzhX5wM7mGDx69mELzO1Y/E4aQkBCEhIRiyLsnmh0kQOCHv7/7Mnx+WoJ3D1Sb2S5hPudag430KaSvGAsuTFMwIUGDrIMnLOhYf7IkEfPWzEF8164IME7YVq1LfLkSAGzgMuJ1k7HBF8MCZxc41V3AgX0XUKWzh0+AL+whhJ2jHcQ2NhDbO8NZagdha+1lCl49aVBUUALH0D7g0lUYevtU4XZRLQRWjM23Hlqd6wywPKYBD+2fGvz2yd8QGtIbUUNmYYeqJ55wrkc9AK28CvfgjA4dbIxPYvyFecwLdzVKS+VwcfeA8SN5ujt7sWBoD3j5x2L4mFQs+ekudKQDIELo3HVYHn8ZC+K6InDkQuzKVwPqOyiucIKXl2NTJyJPeHbUoKLc+qeENKWluOvoDg9pwyc2EAkb1KyFTFaO+6c+wZSUFKSkpCBl8joU+ofAz1nY1AkAiEIxd91yxF9egLiugRi5cBfy1YBWJkP5/VP4ZIr+/JTJWFfojxA/Z3A92EDi5gE3S5ZtjHMbiCVi6DRai/KpS0shd3GHh5GyeWUyMw/o7mDvgqHo4eWP2OFjkLrkJ9zVUVPSspHAzcPNjIOqcae4Ak5eXmiylgienh2hqSg3aAloUFp6F47uHmgyiQhNJpFBVn4fpz6Zopc9BZPXFcI/xA/OQnO+UopSuQvcjRVhrQ816l4CidgGNs1sIZGIodM2390pgFgibvzLzs0NTrVyyFXW6qApoduIJRDrNNACsA0dgDhkYtX7m/Dj3i+w+Ivz6Nk/CV4CvtgxwpINGxC4YeTEYaDMLcisuo/j2/bj/uAUPNnBqJ1tKAbEAZmr3semH/fii8Vf4HzP/kjyEvD7WGMHpudq+VyjmOH1icYhmjDwVf4YMkSHO3sXYGgPL/jHDseY1CX46a4OpIN5HzNCfacYFU5eMHQ5T3TUVKC8qskSTS4mhkSsAxfufPM04/sGWDlXk7mGDx69mEIUjFmZ+SgsLERh4S1kvRNn3AK2kXOwZCIhY/FnuKgxcJUmzOUqaxCI0RSmdnBzc0KtXG5Bx1xrG4kbPMwlbGtyCm+ubMB0bPDFsCh0LtYtj8flBXHoGjgSC3flm/nC1Up7mYJXT7YI5RID3t/0I/Z+sRhfnO+J/kleEFgcm389tDrXGWBpTCMe2j9F6D33Z9wqLEKJvAw5C52w6e9T8NEFDYRSKRwgR0UFzzMbjL8cZtz5cUEMqdQONVVVRg+yqHDovZewWj0DRwrycen8aawZ59U0WWk4ZnxxAjcubkVq3XpMfWUDIHaCUzsFKuXNUpOuHHerJHB1d2n6zAJCB0fY18pR2XhxjZo9ByWA1FkKh4HvIzs3F7n6n3Nnd2JuuKixjwak4TPwxYkbuLg1FXXrp+KVDTIIpM6QOgzE+9lN5+eeO4udc8PRsofWwi+fWCqFXU0VqozWXUsymZqH6tB7eGm1GjOOFCD/0nmcXjMOXlZ7oxhOTu2gqJQ3W0h0KL9bBYmru0FLQAgHR3vUyiubHhQmanrDgkAKZ6kDBr6f3SR77jmc3TkX4ZzwJnxFCqldDaqMFdFGPtSCZjlZLa+EwrEDOti2RgctUV/Kxq/SSPQo3YHVaw/CdspmbJ8fDpGl2GlGa2zoMnwSRtj+jC3f78HWffUYPmEYWmhEfQnZv0oR2aMUO1avxUHbKdi8fT7CRZZ9jI9Wn2vJJ3jhjyEDVIfw3kuroZ5xBAX5l3D+9BqMa1CgOR8zQuzkhHaKShi63F1USVzh7mLGGA1Ymqcp3zfswPq5tgY+vTwwLhi6aCEG3PwUS/ZWmazbYSZXAQIIbepRX9/QiqAz8XBr0ydqyCsVcOzQwbKOLfGocooe/hiWInzGFzhx4yK2ptZh/dRXsEGm46qG5gpsC3vx6kmNS9m/QhrZA6U7VmPtQVtM2bwd88NFDzm29bnOgIca0xzW+SfgiOApKYgVXEDOeRXEYX0QKvkdB39qg9ckMx4bHtbb/mAkiE6KhvboNuzWv06pOjcDG7OqUSW/B7G7D7zsAF3lKfx8tkJ/JVCJq2dyUa4F7PySkZLcBfU11YAkDgPjBTi2eStuaQFAi8LtXyNTk4zRyVJAeRqfv/oavrbwCixxRBwiBCexe68MOgCKnE/x8U7ud0CCPv1jIfplM75r9pJedXUV7jfrAwCgvIozueXQwg5+ySlI7lKPmmolJH36I1b0CzZ/1yxQ1dWoatHBg8AvnyQ6CdHao9i2Wz+f6lxkbMyCmk8mM/PQVslxT+wOH85AOPXzWVSYu2LRAgniBsZDcGwztnLGgrZwO77O1CB5dLJRWzEi4iIgOLkbe2U6AArkfPoxdja8fkvSB/1jRfhl83fN3pusRjUnvBlfiUZStBZHt+0G1001cjM2IkttwYceBKrC/k9X4HQNd3Xs+63HIIgfiDhJa3TQEnVxEUrv10MaOBhPjx+NQcFO0NzXAtDyxI4hrbKhQzKefdoFB/71On6weRIpA5tdQWxAXYyi0vuolwZi8NPjMXpQMJw096EFHsrvW30ur09Ygj+GDNBWQX5PDHcfL9hBh8pTP+NsgwLN+ZjBqycASdxAxAuOYfPWW9zctIXY/nUmNMmjYdHleOdpxvcNaMVcWwOfXh4Cgc8ULJnlh8MbM2HyTbBmchVEPvDxUOBi7lWoASjOrMBHO8oMYoKq9uPTFafBhen32HpMgPiBcRZ0bAWW1qWHhC+GlVfPIJdzACSnJKNLfQ2qlQDQDva2ClTc1X+ZaAt78epJjeKiUtyvlyJw8NMYP3oQgp004NLVw4xtfa4z4KHGNI9F/wQAKHBp4zacQhhiwu0g8BiLF8a7IeuDaXgn8xbuA9ApbuDHj2fgjc2l0BTuxpKXFuP7/Kb4ZDz+POaFuwA+zy3FOxHZmBkViQHJkQgfsx75AkcMmjYNvj++iJi+8YhITIesS3e0E4kA1OHy+hSE9orDwAFRGLSyDpNnTwAEnpi8bAWGXn8DMcGJGJjUGzFvFmLs2pVI9RBAJz+D7esy8EsBf+Eu8EjF4oVBOP5iDGIGxCJmRg76jomEvUgEQIBOE5Zh1ZM38XpUIPoOHork2J4ISHgb2cbbX+suY31KKHrFDcSAqEFYWTcZsyf4QtBpApatehI3X49CYN/BGJoci54BCXhb34FYLIGthO9SjhhiiS2aNxGJxRCLRRBYkE/g8xyWvhOB7JlRiByQjMjwMVifL4CITyYz87AfNA3TfH/EizF9ER+RiHRZF3RvJ9JfAW0pIwzmJoDn5GVYMfQ63ogJRuLAJPSOeROFY9diZaqH4UkQwCN1MRYGHceLMTEYEBuDGTl9MSbSHpxJOmHCslV48ubriArsi8FDkxHbMwAJb2dDZdZXfPDc0ncQkT0TUZEDkBwZjjHr8yEQ8ftQy3kJIRaLIZaIGq+wiCScLRqxcUA3h8N4LioaSX1iMft8Aj54LxXuAss6aOELIjHEYjFEAsA+eggStJdx6tczyDq0Fxn/noKooFFYfdmWJ3YAiMUQS7iN1vw2NMYOfZ8dB19ZMRxHpqK/qb3D9tEYkqDF5VO/4kzWIezN+DemRAVh1OrLID4fszDXVscMr08YY2xT/hgCxBCLJVx7+0GYNs0XP74Yg77xEUhMl6FL93Z6vzTjYwLOBhJbCUQABJ6TsWzFUFx/IwbBiQOR1DsGbxaOxdqVqeBcrqkth4jzOU4xPPM04/sGWDFXs7nGGCv1YoxQDLFIBLHIxDVKIecD4sZdOyL0nvUhXg22AxydDdvCfM6FKATPzX4KFcsHITw+BnEvXkLSuHB9TuewcegGh8PPISo6CX1iZ+N8wgd4L9Xdgo5N2cfoMwvrkikdGyMWi83GBl8M111ej5TQXogbOABRg1aibvJsTPAVAJJYjBzugv3/TES/xKlYX5Fsvb2a5Q8Dm/PqyR7RQxKgvXwKv57JwqG9Gfj3lCgEjVqNy7b8vtIitg2w5891BvxB/mljC6mjDc5/EA+3jh3RsX0XDF2txZQN32JuoBBAezz10RYs7y/Dqqf84eLoDGmHXkj9shpdnnCGrigLWzZssli3MB4vbIhM3PNjGKHDnfWjEb06BNuz3kUs/7ZTBqNtUGViRsBk3P+kAGujriK3SAz/8KAWzxi0HjWOzQnBONm7uLJpHJwBQJOL9KgEnHz+BjJfMHpotI3QFXyKIb0/Q++9v+HjhJZvnFcfm4OQcTK8e2UTxnFCITc9Cgknn8eNzBfg/iiEYjAeElXmDARMvo9PCtYi6mouisT+CA9q+dwV4wFRH8OckHGQvXsFm7jEAE1uOqISTuL5G5l4gSUGxv8YzOOtQX0G/7dWhr9/Np8V7Yw/AAEcfMIQH9cWRTuHrZ0Yityd+GrXLzh18gi2f/wethSFIjmh4yNKClpc3bQJJ71GYVx0y6IdAGBrB7EiFzu/2oVfTp3Eke0f470tRQhNTkDHRyMUg9F2CBzgExaPOFa0tzG2sBMrkLvzK+z65RROHtmOj9/bgqLQZCSwxMD4H4RdcbcKNWprAQcHMwUHg/Eo0ORgxaT3oJq9GfPi2tj3an/H9o9XYGPWNdxViuDi1wd/e2EOpsZYejvFA6KrwI7XJmG7/zJ89VJvM9tpavH79o+xYmMWrt1VQuTihz5/ewFzpsaYfSsEg/FHo8lZgUnvqTB78zy0dZgyOGp/346PV2xE1rW7UIpc4Nfnb3hhzlTEsMTA+B+EFe4MBoPBYDAYDMZjAPu6ymAwGAwGg8FgPAawwp3BYDAYDAaDwXgMYIU7g8FgMBgMBoPxGMAKdwaDwWAwGAwG4zGAFe4MBoPBYDAYDMZjACvcGQwGg8FgMBiMxwBWuDMYDAaDwWAwGI8BrHBnMBgMBoPBYDAeA1jhzmAwGAwGg8FgPAb8f0fnVUWOB67tAAAAAElFTkSuQmCC;" parent="1" vertex="1">
          <mxGeometry x="10" width="664.55" height="70" as="geometry" />
        </mxCell>
        <mxCell id="MRjh7O3aRTi7gveGqWzr-2" value="" style="shape=image;verticalLabelPosition=bottom;labelBackgroundColor=default;verticalAlign=top;aspect=fixed;imageAspect=0;image=data:image/png,iVBORw0KGgoAAAANSUhEUgAAAv0AAADxCAYAAABYmwhGAAAAAXNSR0IArs4c6QAAAARnQU1BAACxjwv8YQUAAAAJcEhZcwAADsMAAA7DAcdvqGQAAPXISURBVHhe7N15WFTV/wfw92zIvsm+KyDKOjOAiLivZblXppXmUrZobj9Ny6WszCy1bDEzszJTy8zUUrPcyRWGVUQRBGQXZhAGZv/8/phhG4YBU/uandfz+Dx17zn3bJ9zOffOvTMcIiIwDMMwDMMwDPPA4hpvYBiGYRiGYRjmwcIW/QzDMAzDMAzzgGOLfoZhGIZhGIZ5wLFFP8MwDMMwDMM84Niin2EYhmEYhmEecGzRzzAMwzAMwzAPOLboZxiGYRiGYZgHHFv0MwzDMAzDMMwDji36GYZhGIZhGOYBxxb9DMMwDMMwDPOAY4t+hmEYhmEYhnnAsUU/wzAMwzAMwzzg2KKfYRiGYRiGYR5wbNHPMAzDMAzDMA84tuhnGIZhGIZhmAccW/QzDMMwDMMwzAOOLfoZhmEYhmEY5gHHFv0MwzAMwzAM84Bji36GYRiGYRiGecCxRT/DMAzDMAzDPOA4RETGG/+nFMVIOnYCqTfqYdMlDkMGhqEzzzjRvVFXdBEnTqejsJoLt8iBGNbLD9bGicypLUbWtXKobbwQEuSGTg3bdSXYPuMhrEzpizUnPsFou5bZGIZhGIZhGOZeuo/u9OtQfuxNPNQtELEjJmH689Px5LAoBPVagUSlcdq7TYv8byege2BPjHhyGmbOfBZje4chfsEfkBonbVM1fn5JjHChCMLQwXjzgqZpF9Wh+EoWrlzKQamieR6GYRiGYRiGuffum0W/rvA7vDhxJQ4X2SDupU/w85Ej+OnjlyGqTEbGrYZUGtSWF6O4qg66ltkBaFBdWoSymmaLbQNtXRVKiitQ23qXAaG6HIh+cT12/nYIO5YMQGdOLdK/3IRDtcZp2yA9iJ2/3UQnZ2dYay/jp53noDJO83eoqlFeUYvGqusUqCqtRF3rDtDT1KC8VAZT10lm+0FTjdKiMpjoPoZhGIZhGOZf7j5Z9GuQ9c0nOFAOdB71AX76+GWMGTIE417+CH9c2oUprnVI2TQVCf7OcPLwhreLI9yjZ+C7HP0KVZ70MR4PdYWLlw88nV0QNu8w5AB0lafwwQQhPJxc4OXtDmfXHhi98g+UtVow8xH5f7vw8/o5mPDwcDzxyuMQ8QHA8OSTrgg7ZogREvMi9pS3ygwAqDjwA36XWmPgktcxxF6L3F924S9TK29oce3zcQjpIsTcQ/oE2ssfY3S3rui5+DgAHYq/eQrduz+Odz6fiz7+bvBwd0HA8Pdw7PSnmBjhATcvN7h1n4AtlzUt02+ah35+LvDwcoWH6EX8VKivq/l+kCPp48cR6uoCLx9POLuEYd5hecsqMwzDMAzDMP9q98mi/xbOncuAGpboNXIUvJrVimtpDUttKU4eTIfzmKXYtGMXPn8hCkrJ11i67gSUunLsfOM17MkLwNTPd2H7hjno5wqQrgw/vPwEXt19A91mfood29/Hkz6F2P/mZCz4uap54QZ1yP3rV/zy4xa89fJHOK2xRuizMzDcFoCuCldSMnA1PRVXpCZegdCVYv+PR3HLug9GT5qE0X3toL3+C3aerDNOCYBQW3IdeflXUVCp1W+pKUHu9XzkFFYCINSX5yP3ys9YMedHaAdMwkPBPBQfWYrhg16HxH8MnohzhSLnJ6xY90fL9K/shLLfMxgbaYtbKV9i2SfngXb6QVe+E2+8tgd5AVPx+a7t2DCnH1wbLnYYhmEYhmGYB8L9sejXylAl04A41nB2NvHqLK8rXtl7Efs/mo/H+8dh4PhBCOLrUFZ0A2oQdFoCaaUoKbdAxITl2PjacNhKf8X2A2XgdpuKDz54EU9OWoBPl4+EE8pw5EAiWj1ar0rDphljMOaJGXhjz1WQT2883NtP/zIuPwKLf02DJP0XzA9p/VaxruQX/HCsBla9R+FRDzeMGN0XtroiHNh1DH/7njlxEbVoH47t2IodKx6GPXRwGvkxjh34Gt9+8QKi+FpU5Oa2SB+56ACO7fwS33/4DAJ4WuTn5ALt9QPpoCWCVlqCcosITFi+Ea8Nt21eE4ZhGIZhGOZf7v5Y9PMc4GDLA4fkqKioMd4LoBZJGycj1tsejl4BCBmyBhI1gYhAXHdMfONNPOJdjl+XjYOwawQmfZEOeXEhilUErpc/Avj6o3Ty9oYrV4fqykqojYuw6Illx64i57IEf25+DmHSo1j79Egs/EO/bO/k3h1R3VxhYZwPOhTu+QGn5Bw483Lw9XvvYcsVDjrztCj5dReOmGpOh3Dh6uMHSwCdHBxgxeHA1tsXzlyA6+gEBw4Anf6Tgob0bj76bxvide4MJy5Bq9VC004/aN0n4o03H4F3+a9YNk6IrhGT8EW6yeeSGIZhGIZhmH+p+2PRDweIo4PBJyXO/PgDcpuvZbVaqIu+weIF3yHd80UcuFqF2svvIUHQlMS25wLsz8rGyS2zEMfPxs5X38AeOMCOA1BleeMz/JqbNyHTceHs5opm2QHD+tnWPQCBIUIMmrYETwl5IE0hJBeLDAkUkCuaV8xAm4efdv+Feg4XlYmb8d7q1Xjv85Oo4HJB5Qex62Dr7//hcrkAaSCvqYUOQH1lJWpNvypwx7gO7fWDLXou2I+s7JPYMisO/OydePWN3bfxrUUMwzAMwzDM/e4+WfTzIZz6IgY7A9V/LMJDo+Zg1UcbsOa1Z9G/+yh8lnsLcg0AEJRlEuz88AdkNKy/tdew5eVpePvna7DoHouQzlyAAK7nQAyMsIAmcxve/uwPXDizG2+u+QUVHE88NKoPLFuUX4EvHwtB38mL8d6GDXh37gx8eFYDDt8XMXF+gDYb6wa5wN79YXx2veXCX3v1R+w+p4RF71VIrapGdXU1qqulyPpwCGyoCod/+A2VLXLw4eXvDUuOGqc/mYM333wJI6d/hXwT1xN3A9fLfD8Irm3By9Pexs/XLNA9NgSG7gPH+EAMwzAMwzDMvxfdN7RU+udbNKqbPfE4IAAEjoBcohfREWkeffdUIFlxQODwyEk8hoYGC8hu/PdUqy2lHU/7UidDHk4nbxr+/nmqJaJbZz+gkV2siaNfxxLH0peGLv+DyrTGZSvp4tqHyd+aa0jLIZ59Nxr73imq1BKRJoc+HuZEFi4jaXN+88xaKvh4MFnx7Gnwhmukab6n+Csa7cQlrstTtPvWddow2IZ49mPomyoikh6lxdEOxOWAODxninlxET3mb0Ee0/YTkZaubxhMNjx7GvNNFRERKf54mQIEAuqx6C9SEpG2+HN6yIZHtiO+MJlec3kN9bHikeOEXUTt9IO2dAc97dupsd2dvIfT++drm7WEYRiGYRiG+be7b36Rt6kadSi5lI6cm1rYendHWKCz4Tl6Jcqz05Bzyxmh4kA4tnifVomK7FRcLie4hgjR3a3xt3ABjRS5qZm4UW8Fn7AodHUyPNhuglZ2HRmXClDN64zg8B7wtLmHH4RoKpGdlIVbruGI7up47z9yMdcPygpkp15GObkiRNgdDd3H4bD7/QzDMAzDMA+C+2bR//jjj2P37t3Gm5n/kR9++AGPP/648WaGYRiGYRjmX+i+WfSfOXMGN27cMN7M/I/06tULvr6+xpsZhmEYhmGYf6H7ZtHPMAzDMAzDMMy9cc8fJWcYhmEYhmEY5n+LLfoZhmEYhmEY5gHHFv0MwzAMwzAM84Bji/57RoNaWS00xpsZhmEYhmEY5h92/yz6ddUouJwP2T36ZdrWVDjzxkAkLD5mvKPDtEWnsH3bcRO/pqtF9kcPofuw95GsMN53e1QV15B+qQjyllvvuO5MB6n+wopBffH6CaXxnvtYU3z807VWnXkDAxMWG2/+V2h7Pt8j2iKc2r4Nx/+xAhnTVPhrxSD0ff3Ebc6Xv38eri3MRFLSRVy8qP+XlJILqa5ZAmUJkn77Hls2f42fjmdD2hAitYXITEpqzHfxYhLSC2oadqIwMwlJzfal5Er1u+pKkJWWg3KjBipKryCn7PZazTDMv9d9s+jX5m7CxOhx+PDSP3VvnFBdnIMrN2TGOzqsLvFzLFjwCU4ZHUJX8C2WbORh4dbX0dOy5b7bos3FZ09EICqyHxYfa371cOd1ZzqIqlF8JRuF0va/5Ep1bi2emrEJGf9UCLepKT7ar/XdRdXFyLny7/zq3bbm8z1Tl4jPFyzAJx0qUIVza5/CjE0Z7NPDu45QXXwF2YXS25wvf/M8rM3F55NEiO3ZC716Gf4lPI/tRfpVf83FjzAuPBgJk1fg0y8+wqvjRQiMX47TCi1yP5+E6IHjMXPOHMwx/Pu/LRehBKDN/RyTRLHo2XDMXr2Q8Px2AFrkbZyAKGF3iKfuQmnjxYUCh1/th8ErTjavHcMwD7D7ZtEPkP6Ea/Ksq4NCWoLi8o49LqOpqUClvPltExWqy0pQIW/vjpr5cnQKKUpLZVAZ/t/uie0oLd+NpzsbpeOF4cWtm/BcD/1vCbeiqUVFWdNx2qK9sgs/ZPXBE8Nq8cv2P43u9v8dKlSXlaOmsXE6KKrKUKVo3lfNaVBbUQaZyYpqIa8sQalUgda5VaguLTFz3CZaeQVKq0wdA9DKK1FSKoWpw6iqS1FiKp+qGmUlFTA91B2NA0BTW4FSaRt3wHQKSEuKUV7bMko0hUk4dCQFpa0Of6d9ZSaNVo7KklJITe0DAGhRW1HW5v57NVdul6q6DOVNgQmdogplpsYXuGdx2dZ8Njdf24pD43NFEw1qKioh1wGwewLbS8uxu1WBWsgrSo3qqUFh0iEcSSlFq5ExFwOqapSWVJmcQ43aiGdTTLer/VhoHWemtrUTe5oaVFTKG/tap5CipLgcpqrd1ri0oKlFRam07bv7Zs8lbWm/LwAdtFoBRMuSodBooNFooJb/gVm+XKD6CBZPfBXnw9/H+etXkXxBgpzCdHw9zh0qDaDTasELfhZbTyQiMTERiYmncfjNgegEADottAIRliUroNFooNGoIf9jFgBAq9GAHxAM633Lsep4bYvaEJntJYZhHiR0n9BcXU3x1mJakapusV1x5l0aFuxKrn7dKMjDkVyE0+n7XE2LNEREpEykZQMeoaUfvkxCey4JwhbTOSWR7NxH9ES4J3l2CSJvF2/qPWcP5WuIiBR08DkfcnlqD1F75WjL6I8Vw6mrqyd1DfQm9y6DadVfClImLqO+Pf+P/lQY6iA7T59MEpGnmy8FB7iSk98Amv/zddI01u9RWv7Fcno4rCv5udqSS8wc+qVY29ACI2qSLBeT++Pf0/WfniFPj6dot6xhn1Hdjy2iuD5L6ZTSsFt5mpb1iaNFRxVEpKTEZQPo0eWbaOlD4RTk15kcu4yhT5PTadtzCdQtwJ3snCLouV35+no2pv+Clj8cRl39XMnWJYbm/FJMDTWVnf+EJok8yc03mAJcnchvwHz6+bo+tybnO5ou9CQ3/0Dyce9CT2zNN+Rqojy9lPqPWkYblwyjHl26krejI3WfuJkyG+pvrh81OfTddCF5uvlToI87dXliK+VriYhkdO6jJyjc05O6BHmTi3dvmrOnoU3m4sCItpQOLu5H3k4e5O/rT3HTX6SH3F3pmZ/riUhBZ94dRsGuruTXLYg8HF1IOP17ytVoqfTrJynQxYZ4fDty8/GlwMe/pBvaO++rttPI6Pwnk0jk6Ua+wQHk6uRHA+b/TPpD6+PDefgc+r+h3Smgixc5OoXS019lkZL+zlxpydxcURx8jnxcnjIkPEaL4vrQ0qbApNPL+lDcoqOkICJl4jIa8Ohy2rT0IQoP8qPOjl1ozKfJlL7tOUroFkDudk4U8dwuQx3+gbhsPp/bm69txaGZc8WAR5bShy8LyZ4roLDF5/Rl9O1J/6cvkE4v7U+jlm2kJcN6UJeu3uTo2J0mbs4kpbaUvn4ykFxseMS3cyMf30B6/MsbpDUbAxrK+W46CT3dyD/Qh9y7PEFb9ROlmbbi2SgZtd0uc7FgMs5qTGwzG3v6cX9k6Yf0stCeuIIwWnzqJL07LJhcXf2oW5AHOboIafr3ue2cH5rTUunBxdTP24k8/H3JP246vfiQO7k+8zPVE7V7LmlyG39DmtNcpdXx1iRekUot/9oRlX89hhzthtAn11tVmog0dHV1PFmLV5DRn0n93jb+hjbksx34Fm1+1o/s4ldRmpqIqJ72TnYn3+cPGaVnGOZBdd8v+pVpv9D2UzdIQUSkvExr+tlRj4VnWqQhIiLFQXrO25Ks/EbQB6dzKffqDaqVH6M53dxp2IcZJCcizY0dNNHPi57aXdXqhG2unFsHppOfy1D6MLOeiLRUlbybDqQpGxc4e+qJiOR0dHY3cuz5Op2u0hJRPWVueIhcO4+iLUVaQ/06kUufxXSkVEMkP0tLoqxJuFzS6sRPRETKM7Qo1IMm/iAlqtlHU70707ht5YadLetev3cyuXtPp1/1f7GIFL/RDO+mherB57ypk0tfev1YOWm1xfTNWFey7RxOT27OJDkpKO2tnmQTuojOKhuO7U2dXPrQ4iOlpCE5nV0SRdbC5SRRE5H8KM3u5kg9Xz9N+mZm0oaHXKnzqC1UpFXSiTnB5PbYdirXEpG8gK7myxta1Ehx8DnyFlhT6PQfKU9JpL62iR5xdabRW0va7UfliTkU7PYYbdcXQAVX80lORPJjc6ib+zD6MENORBq6sWMi+Xk9RburiMhsHLRUe2gmBTj2o9Vp9USaEvr9/2LIjtfZ0JdKSvtlO526ob/KU15eQ/3setDCM0oiTT2VbXuMnHyn0y9lMrpVr7kLfdV2GvnR2dTNsSe9frqK9IfeQA+5dqZRW4oax5BnGUrP78knNakpZ+MIcnEeQ1+XNsTi7cwVo1qZmSstFv31e2myuzdNbwpM+m2Gd+PiSnHwOfLu5EJ9Xz9G5VotFX8zllxtO1P4k5spU06kSHuLetqE0qKzyn8sLhvnczvzta04NHeu8La0Ir8RH9Dp3Fy6eqNWX4aPCz2lL5AOPudNAutQmv5jHilJTdc2PUKuzqNpa4mWNPVltO0xJ/Kd/guVyW6RPrzMxIDyBM0JdqPHtpeTvslXqXWTzcSzkbbaZS4WTMaZqW1mY0/fL5ZWfjTig9OUm3uVblSl0S/bT5G+2kq6vKYf2fVYSGeUbY9LC7WHaGaAI/VbnUb1pKGS3/+PYux41NkQl2bPJS10/G9IC4ZFf9Rrf9FNqZSkUinJavUxfuQFP+rU8226ZOJaoWHxbhX8DH22dx/t27eP9v/6F+Uappf+b2gUvfbXTZJKpSSVyqhW2ZTPZsB6yru2kR5ydqOxX98gLVv0M8x/zn30eI9pFhGjMKmPN3i1Zcgv1MLD1x4VxSXGyQws0Hfx55iX0AVdgrzBP/8T9pfH4JEBfBRmZyOnNgwJUXU4czy11Ue6bZejxOm9h3Cr/7N4NtQSABdOovF4JMLo0R1lInbtLUWfF+YhwYkLwBKh01/Aw/zjOHDU8KIVxw7D563AEHceYC3EkAQ3FFzNMfEIAKD863v8LBuCx4Y5AraD8PjD1ji64xeU/K1PYjmwGz4XSwe4gst1R/++PaDzG4clz4bCGp3QLT4GrkW5yGv8PJoDu+HzsGKIO3iwhnBIAtwKriJHBSgTd2FvaR+8MC8B+maGYvoLD4N//ACO1nDh4GiP+owj+C1DBp21L4L8rFtWxYBj9yiWr38MARYAv+sEPNlHg8Q/z7Tbj1wHR9jXZ+DIbxmQ6azhG+QHayhx/qf9KI95BAP4hcjOzkFtWAKi6s7geKoSyg7HgQpJv/2JyoTJmBZhCfA8MPSt5XjMrWGaWCBi1CT08eahtiwfhVoP+NpXoLhEB/AsYWspAIcjgLWDA+wseXehr9pKo0Tirr0o7fMC5iU4QX/o6XjhYT6OHzhqyMuBw6jlWDvWD3zwEThxIvpqTuPPMw3Rdi/myu3j2A3H3KUD4Mrlwr1/X/TQ+WHckmcRag106haPGNci5DYG5r2PyxbMzNe24tDsucKiLxZ/Pg8JXbogyNvGuDR9+x5djvWPBcACfHSd8CT6aBLx5xkVeJa2sBRwwBFYw8HBDpa8dmKA6wBH+3pkHPkNGTIdrH2D0LrJZuK5hbbb1X4stIwzfatvP/Ys+i7G5/MS0KVLELydIjBqUh9482pRll8IrYcv7CuKUaJra1xaUiX9hj8rEzB5WgQswYPH0Lew/DE3w7Ou5s8l5rTfF81pkPXZeAgjIhAREYGoYW/jjEoLqewW4OAMZ45x+ia6yhTs2/Ytvv32W3y7bT8klc3GS5OFz8YLERERgYiIKAx7+0zTPgK4AVPx9ixf/P7W2zhSbTzODMM86O77Rb+u6Fe8NrwbvAJ74eFxE/HW7zeha+sZRI4FXD1cGxulLS1FRd05bJg8ARMmTMCECc9gc2EgIgIcwDPK2nY5KpSVSeHo7gGz7+SqilBcaQ8vL9umbXxPeHbWoLKi2YtejSdzDgQWAug0ph4YlePo9r0odFIj7bN38e67G3BB6QLViR3YXdBG29vV9FfEwkIADqfp/zkWFhDotEbPCjfbL7CAQKeBFoCqqBiV9l5o2UxPdNZUokLGRdSCzfgg4TJei++C0JGv45c8U5c0ALgCWAga/scSrq72kEul7fYjP2oBNn+QgMuvxaNL6Ei8/kseVNCitLQCdec2YPIEw1g/sxmFgREIcODdRhxoUFZ2E7buHrBr2MThg9c4S3Qo+vU1DO/mhcBeD2PcxLfw+00d2grHO+8rfhtpVCgqroS9lxeaDs2Hp2dnaCorGrdwBRbgN/yPpStc7eWoqjIsXO7JXPl7GiPNwgICDqfZFLGAhUAHbYvAvMdxaayN+Wo6Ds2fKzgWrvBwNX/K5Qos0DQt9GMmNfluSTsxwI/Cgs0fIOHya4jvEoqRr/+C1k3uaDy33a52Y8Eozkxtaz/2OLBw9UBj1+mK8Otrw9HNKxC9Hh6HiW/9jps6gq7NcWlJU1aGm7bu8Gia5OA3TnLz5xJz2u2LFvgIn3MIeYWFKCwsxPXElYi34MHOzgaQVqLS5LtteryAcXhv54/48ccf8cOOVRjn3ax3+eGYcygPhYWFKCy8jsSV8c2zAuiE6HlvYRJtx4pPMqFpMaMYhnnQmf8L9D+nxNF3XsZnqudxPD8Pl1LP4/PHvTpcaa6dA+xsBmPVXylISTH8k1zE3gWipsUQ0E45AtjZWaJGJmv9Al1zAnvYW9WiStrsT4yuAjdlFnBxd2yesn3Vv2PHb0pE9+oKjVwOuVwOlW8v9HI8i50/XG1dDy4PHLUa6ob/Jx3IzB+NOyGwt4dVbRVaNvMmZBYucHfkAnYiPP/lGVzL/AET67fg2dnbmmdvoamKKkiramHr7NyBfrSD6PkvceZaJn6YWI8tz87GtlLAzsEONoNX4a+GcU5JgeTiXiwQ8W8jDniwsbWGXFrVdHebDC+YA4DyKN55+TOonj+O/LxLSD3/OR73aopGrtEf0LvSVybTCGBvb4XaKmmzBY0OFTdlsHBxb5a5WRCopJDW2sLZuVOz/U063kfm5ooxLngcNdRNgQndPQrMu9LXt8VUHPI6dq4wq+WYVTWOWavoajcG7ETP48sz15D5w0TUb3kWs7eVNsvffjw3aesceDux0LaOx56e8ug7ePkzFZ4/no+8S6k4//njaKq2qXFpufDm2djCWi5Fw/UvQM3Ol1yz55K23Y2+EEAYGwWLrD/x+738GlfH4Vj2+kDkfvwWfpWxJT/D/Jfc3jnpXiMFqq5nITMzE5mZl3Cl5BZk0lsQuPvCyxLQVZ3DHxcrzX8jQzMWsQPQi38SO3/Mb/pjpaqGrK5lOkBrphwL9OzXE9oTu7Hf8MejOmU7vk9s+Q0IsIjH4AQuTu38Ade1+mMW/vQNDmkGYeygxltKHVL56/c4xHkEr360Cm+//bb+3zsfYuUEH0h+2AnjbzXl+/rCozYTKVdUAGpxYf1a/Fze0V66PRbxg5HAPYWdP1zX96m2ED99cwiaQWMxyE6BKxdSUKEFLAMGYcIgf6hrqo0PAQAg2UF8vP48agDoivbgh1NcJAyOb7cfFVcuIEVfAAZNGAR/dQ2qFRaIHdAL/JM78WOzP5aqahnqbisOBBDHi8E9ux+/luoA1CLp43XY27Bo0MogvSWAu68XLKFD1bk/cLH5R+tW1uhUW4mbhlXYnfdVW2ksED84AdxTO/GDvpOgLfwJ3xzSYNDYQYa8BNnBT7D+fA0AHYr3/ohTvAQMjjf9jVId7yNzc8UI3xe+HrXITLkCFYDaC+ux9udy02nv0J339e1pKw47dK5oE0F28OPGMSva8wNOcZvGzMq6E2orbxoW+e3EgOIKLqRUQAtLBAyagEH+atRUG/1oSHvx3KitdlV3PBbM6Hjs6WllUtwSuMNXXyjO/XERDdU2PS4t8wvE8RBzz2L/r6XQAahN+hjr9ur/GzB/LmnbbcyLNnHh8diLeMI1Ee/OWIlD1+sA6FB77TDWPb8IO8tu72ht48J38luYE3AM3x9q+ppSXeF+vPXyCuzJu4cXHAzD/E/dN4t+Tic72HKz8PHoSISHhyM8PByilw5iyIwZ8Dv8EuJ6J0DcdzlK/YNhxTd1x0UAgUUnWDTbxXV7Ems+GoHchTEI7T0Uwwf1QvegPnjzL/0tHoFAAAsLPgBrM+Vw4TtlNVaK/8ILMdEYOCgaonFbkMflAgIBLDoZHqHgeuKZNesxPGcR4sL7YnC/SMS9WojHNn2IiR5ck/XjCwQQCPhGg1CNI3tPwOrhxzCoxWO/Foh9YjwCL+/Hz5c1zeoO8COmYO6jlfhgiAgJcfF46VI/PC6yRkM3CQQW6NSsYJ5AAIHAAvyGmzx8CwgEgsa7asbpwRfo93MBruczWLN+OHIWxSG872D0i4zDq4WPYdOHE+HBrcflLRMQ1SMegwfGYMiH9Xhm7pNNx2mGY9MVNsemIKZnP8T2movUPu/inYnu7fZj/eUtmBDVA/GDByJmyIeof2YunvTjw+3JNfhoRC4WxoSi99DhGNSrO4L6vIm/lO3HQRMuPCauwOthp/FSXBwG9orD80m9MS7a0JfWQzBjhh8OvxSH3gli9F1eCv9gq8Z+tug1Eg87HsT8vv3R99ktKHK/075qKw0Xns+swfrhOVgUF46+g/shMu5VFD62CR9O9AAACPhW6D4wCMeeESO2fyziXpEg/p13MNHddCx2vI/MzRUAAgEEFoYLC34Epsx9FJUfDIEoIQ7xL11Cv8dFsG6WtnH+AABPH2cWTYEJC4EAgjbi+K7HZYv6tO6j5vO1rTjs0LmikXEZHNh0tcGxKTHo2S8Wveamos+7DWNmgV4jH4bjwfno278vnt1SBHdzMVB/GVsmRKFH/GAMjBmCD+ufwdwn/VqU3l48N2nrHGhrPhZatc/0tvZiz3jcrYfMwAy/w3gprjcSxH2xvNQfwVZ88Nscl5ZnWK7HRKx4PQynX4pD3MBeiHs+Cb3HRRvikmv2XGKsY39DjPEgEPDBF/BbP1rj9CjW7voAA0o/wqOBjrB1sINzj4nYWu2PEAceOtnZgpP+Pvq5OcPZ2RnOzp3h+9QOyGCYP3w+BI3zp4n+nC9oelSPH4k577+CcEvA1kF/U0pzIxG7tu3Ayfy2v2yUYZh/Nw7RPfq8/S7SVOUiNbsSjj2iEeh4+9cputpCZKTloZrngsDw7vCyMX0M8+UoUJopwdVqewSJw+Bp/HBrA201rqdloEDhgOCocHgav0V2r+jkKExPxQ1BIKJD3WH6fu7do62+jrSMAigcghEV7tnsZTkVKq+k4FIZF94RInR1bP0crPLQ8wh6pg4b8jch5koKbggCIQozel7YTD+qKq8g5VIZuN4REHV1bPbMuQ61hRlIy6sGzyUQ4d290HyoOxoH0NUgPzUNxRaBEId56L8Du5EGVbmpyK50RI/oQBiHia46D0lpxegUKEKkl77Sd9JX5tNoUX09DRkFCjgERyHcRLDpaguQmloEQVcRwtsM2iYd7SPzc6U5HeSF6Ui9IUBgdCjc73Fg3llf356247CD54oWlDj0fBCeqduA/E0xuJJyA4JAEcI8mmfWoTovCWnFnRAoioQ+vMzEgKoSV1IuoYzrjQhRV5husvl4bsl0uzoeC+Z1NPYAAJoq5KZmo9KxB6IDHVvcOGl7XJrToSY/FWnFFggUh8Gj1VNv5s8lbblbfQHIUZyRhpxKoHOIcRwwDMP8Pf+KRT/zYGlc9Bd+h7HsbxnDtFj0F343ttULswzDMAxzp+7kVgTD/C081x7o3TccHiz6GMaAB9cevdE33IOdlBmGYZh7gt3pZxiGYRiGYZgHHLupxDAMwzAMwzAPOLboZxiGYRiGYZgHHFv0MwzDMAzDMMwDji36mXtMhZqq6qZfuGX+Hp0CMmkt/nvfoK2DQiZF7X+v4QzDtEFVU4WaZr++zTBMx7BF/z2hQmVuOlJSMlFQ3fxXFDXI+GgMwrsPxJtn/gNnrOoTWJHQBYG9F2Bvxd/9NUk5sn77Bj+nyPS/nnlgNmJHrkPmf2gRKD2+EkO6+iFMFIaH3r9svLsDanFgdixGrsv8WxcNyvJryCk1+lnTf4L0OFYO6Qq/MBHCHnofl//GD4XeWbxoUJmTgqSLF3HR8C/pUgkAQJ71G775OQWyvxvWDWoPYHbsSKy77QpqcGnDGMS8uBc1xrvuJXkWfvvmZ6TcccObKEsk+O37Lfjym904miW9zV+xvV8Zjc896Le77V8zDhoJ1o8Og3e3GfhFZryTYRiziLnrZIdepCABhwAe+c78nRQNO7QltHGoJXEs+tP669qWmR44Wir98lHqHL+KLqmN992G+l9php8rPfRJDmlISYkLQshp3HaSGad7UCnP0ZIIJxrwQRYpjfd1lDKRFoQ40fjtf6PXtEX06RAbCvm/xL9f/t+ipHNLIshpwAeU9bcLNsTL+L8XL9obn9IQKy5xeTzi8XjE4/HJqudbRFRPv87wI9eHPqEcjXGu26NMXEAhTuPo9oemnL4cYU89Fp35R8el/tcZ5Of6EH1ypw0nItKW0dG3HqEu1p3IJVhMMRG+ZGfhSaM3XzNO+S/Ucnzuar81UtDp9ybS819m0R0d9d84Dre+ppF28bT66h21nGH+c9id/rtNlYqPln2NXAtb2HB1KM+5CmnDLRO1BEmX1OD5RkHkeXtdr5VXoqKm6W6gTilFWVXbd191dVUol5n6NEGF6tIilMhMPXCjhLSkGBXyv3FLtRUFzp5Mgs/gYQhu/kv0WjkqSirQ4SIsR2BzfjkOvhwInu4mkiVFCBKLYGucziQt5BUlJtqjgqysDNVt3lzVQV4lhcLoVpdOXgVpi41KyErb7q9W6VUylJVV39bddm3enziWG4nRj3Vr+SvLShlKi033o1ZegZIKORp26W4mQ1LUDWKxLXQKKcqlpsa+jT5RSZB0SYAIcUSrX3lWSsthKoyU0hKUmCjDuF5mafPw57FcRI5+DN1aNrztPjeOLUO8dBOLYatTQFouNfmYmUpWhrJWDQdUyReRYTEaX9/UQKPRQKNRo+7cUgCWGLE5H+UHX0ag0c+9ttUnpsdeh5vJEhQFiSHqWEBDVV2G8hoNoEzBhQwewkVhrcalba3juq2267WeP5YjNiO//CBebt5wpRQlbcRig9b9ooRkzXiMe78YD3+TgfwrSbiQloecI69hiHdTZ5ivn4k5ZnKbmZgxld7kWHVMW+Njst9MjMftzGtoLuHw9wdwXeMETsukUEpLUGxmrjW1+Z8cB0ApK227Xjo5qqSKZp8wtHFOAqApKECJdQCCPE3/3jLDMG0wvgpg7oSW8r8cSZ25VtRr+dv0mCOH+EFz6KThVpwm822KFXDIdvQ3VEVqylj/KHXrEk3/96f+swDZLy+TsEs3enxzPmk12fTp2BAKefp9+vKVBPK04BDHMpCm7kqjIysfoa42XOLwnan3m2cMB29Kv2VOX/LuxCGOwIOGrEs11K2W0r5+kfr52RCPA+Jwrclv8DL6vUxLRBq6sX8xDfa3IS4HxBG40JB1GXQnN+hJnUErY9zoyR9rDRvklL51BsX5epBfsD+5e8fRokNVRDX76CXREFolMZSmyaHPxobT09vKiYio/vd5FDNwJZ1XE1H9fprq5U0zfmv87KRN8vStNCPOlzz8gsnf3ZviFh0iIqL6jC00JcqVnL18yLPrUHp92dMkfnqbft+hudRz/DJaPTGEbLk2NGprFVH9IZrbczwtWz2RQmy5ZDNqK1WRmq7vW0LDu3mSd2AAuTr60bB3/6Ia/UFMpK+njC1TKMrVmbx8PKnr0Ndp2dPixjaapqG8z8dSoJsdCXg25OITQENWp5JafZ32LRlO3Ty9KTDAlRz9htG7f9Xos8jTaeuMOPL18KNgf3fyjltEh6qI6vdPJW//8bR43hDq7u9NTtae9NCGzMbxNdcn6oyVFG0dR6sua4ionv5Y0IueeOdLWjgslAK8ncjaawR9eslwt016mt59NJjcvLpSF3cXCl3wp/5Trjbq1RZN3uc0NtCN7AQ8snHxoYAhqylVbabP24qt+v001dufxi+eR0O6+5O3kzV5PrSBMpsaTlumRJGrsxf5eHaloa8vo6fFT9O2ci0RqSntDTFZxb5NmcY3E+t/p3kxA2mlPijN94nZsa+n/VO9yHvGb02fBrZFnkZfThGSm7MX+XgGUP9nx1KYVcO41NC+l0Q0ZJXEMKYayvlsLIWbjWtzbW9r/tTT7/NiaODK8/pylNdo94JB1KWzOwUEuJGDRxzN2p1vuOtsvl80uZ/QUEcnGvrxVdN3qc3Vz9QcM7XtH5mnBmbHp2W/mRyP25zXv57fQCO7upItn0e2rj7kGzKNfqgiUl7bTQsGdaHO7gEU4OZAHnGzaHe+oYdNtLniHxkHIvX1fbRkeDfy9A6kAFdH8hv2LumbV0+H5vak8ctW08QQW+LajCJ9eLZ9TiIikm4bS537fkC5JivNMExb2KL/bpL9Rs934RPPbzodKD9HS8IExLF+lL4yLHBk340je46AxG+kkZrKafMIa+IIetG7lzVEpKRT87oRn+tOU/fVE0m30Vh7LglsbMkxeBhNGSckBy6HOrm4Umef3jTpqb7kyQPxeyzSH7wxvQ05Bg6mKU/0pM5ckCD6TSLS0o3vJ5A3j0uO4qn0/rff0qox/sTnCCh8yXki2U/0tDuX+F3H0Xvbd9GXK1+i5XtKqcUDSOpkequvF7m5upJrs39uXafQLhMLOM3l96iP+0jaUqI/iuzILArpnEArzkiJiOhW6h7al1pPyjMLqYfDKNpaach4awc97hxIs48piEhNkmVRZD9iM5UTkTr9TYq2G0obDcdsk+wIzQrpTAkrzpCUiOhWKu3Zl0okP0ULI5wpdslJqtQSSROXU7w9n7rOPmYoS0hWdl4UP2snpebkUlENkVqyjIRWduQVP4t2puZQblEN1Z9ZStGu0TTvYBFpiKj8q1Hk4DmNDtSbTi8/tZAinGNpyclK0pKUEpfHkz2/q6GNZiildGR2N3J4dBPlS2+RXF1PZ5ZGk2v0PDpYpCGicvpqlAN5TjtA9SSjI7NCqHPCCtJ38S1K3bOPUuvVlP5mNFlYetKg5cepXKugU/O6kVX/9ZSvpXb6hEj67Vhy9HmeDimISJ1GK6KtySFgKK04Xk5axQmaE2xFA9bnE5Ga0lfGkl3cSkqrJyJ1KeXkSknbZr2M2tqCkqRHZlM3h0dpU76UbsnVZvu8rdhSp79J0RaW5DloOR0v15Li1DzqZtWf1usbTqcWRpBz7BI6qW84LY+3J37X2aQflir6ZrQ9eU35icqkUpJKpSSr1V+9qyXLKMp+BG0ub69PyPzYq9PpzWg7GrqxpOVca6WWjs8PJceYxXTCUNcVCQ7E955BBxVEpDxDC3s40KimSUQ7HnemwDbjup22tzV/1BJaFmVPIzaXE1ENnVgYSc7iOfTrDTURyenCUjFZBs+jU8r2+kVN6StjyNLveTrYcE+gBfP1MzXHTG0zFzOm0psdK7PaGZ8W/WZqPP7GvJYrqWr/c+TvNI6+LpaSrEZB2poTtDDSmcRzfiX9kFygpWJLCp53isgQty3bLP1HxoHqz9DSaFeKnneQ9M37ikY5eNI0/UDQMqEV2XnF06ydqZSTW0Q17ZyTiDSUvTqeHMd+Z7joZximo9ii/65RUvIb0WTJtadBH10lDd2kLx62JI4gjJacV7dY1D/7Sz2R4gi94MsjnrdhQaUtok8GdyJOp0H08Q0tKU/OpWA+h/h+T9OPxVr9HVcBiOs0hD68pCSSbaFHOoEEouX60g3peb6TaFeRlrQFH9JAC5BFv7VEyrP0aqiAONb96INs/a0RxR8vkh+PQ7bjvyfNtfcpQcAhfpfH6OPE4jt8RlhLJUfX0jMxwdT/rTNUS0SkLaCNwx0pcNZRkhulLd04jOxEyynFcPdVeXYRhTZeBFTSVyMdKOK1C6QmIum3Y8ixxyI6Y7aCWirYOJwcA2fR0ZaFUfm2sdTZZzrtb/hLoTxLi0IbFkuV9NVIW7JNWE3pzT7iqPxqJNnaJtDqho3aUto62pm8J26l1MwUSjzwBc3t605uo7bQda2J9FRO28Z2Jp/p+xv/QLVsoxnaUto4zI5Ey1NITUTa0q002tmbJm5NpcyURDrwxVzq6+5Go7ZcJ3XBRhruGEizjBtNUvp2jD05DPqI9EOvf87d7tGvqKrdPlHSiTlBZPvQJirTElHVNzTazp4Grr+svyuoPEMLe9jTo19VEZGSTs4NJsvQ5+nn3KYVvbbNepljFBfm+lzdVmzp48XeYRB9ZIh5ZeICCrEzXISXb6OxnX1oelPD6eyiUHIYtZUqiYiUx+mVQAHZuvqQj48P+fj4UuDIj+mqRj/GDhGv0QV1e33SzthLv6Uxjj1okfmAJm35NzTWuWVdzyzsQbbDNlKJlkhbupGG2YloedMkMh/XZtve9vyhyq9opEMEvXZB3TiuL//ZlKh+72RytR1H2+Xt9Iu2lDYOsyLnSbv15wdjZutnao6Z2GYuZu7yPG1vfJr3m6nx+HvzWkvX1/cnm57vUJZG///6cXuZmoaknvZOdiXbcduJ2uijez4OpKXSraPJ2XsibU3NpJTEA/TF3L7k7jaKtugHgkba2lLC6vTGTx7Nn5MMm5JXUz/fHjTpa0N8MQzTIbf3YDnTJl3+N1i2QQJlpwB4VP2INe9uxLlKC0BTiCs5CkBXAUlKPrSCUIijLaDNT0JqqQ4W4WIIBQBuJSIxTQ2evxAiV6BMkop8rQCxLy3DWE8ulJezkKflwW/iEszsYQFV9hXkabmw6x4BQNeYvufLKzDeiwt19mXkaHlwD42E9urv+POqGoKY0RgfpH8GUiOVoYa4cOzsDJ7/E3hlcg9Y5e/GK/1CEf/KPpQYP88uzcH5xNM4fbrZv8S/kFpQ1zIhdKi8dhYXKvwwenQMbACg5iSOnLNC/+HxsG6RVg1Jchasw0WG5/51qLiQhMKuQojsASjTkJwpQLioB/hQIS0pE7wIMcLMPsRcg5NHzsGq/3DEtyhMgXNHz4IShmGA4VFVXek5XCjoCqHIvrGsoTOfQ3jjOwhKpCVnQjB0Jp5r2Fh3AodO1kOT9CGmTnkJSzedAnfMZpz8fhr8uSbSK87h6FlCwrABhvcQdCg9dwEFDW00R50CSZYVwoTB4AOoO3EIJ+s1SPpwKqa8tBSbTnExZvNJfD/NH/KTR3DOqj+Gt2w0oEpDUqYAQ6ZPRjceAJ0MGZnF8I+MgF17faIrRXJqMQJEIjhzAVV6EjL5gzFtcgh4AFCTiUtF/oiMsANggd7z1+IV998wMSIMj7x1FOU6oKatepmlRookC1ZhQn1cmOtzeVuxpY8XwZDpmKxvOGQZmSj2j0SEHaA4dxRnKQHDmhqOcxcK0FUogj0AXUkyUktCMfdwHgoLC1FYWICcfbMQxDOMcbgIPfjt9Ek7Y69KS0ImLwJi8wENReIfOI3mdS3DhYsF8BUK4cwF1JJkZFmHQ2R4eUZXcQFJhW3Htfm2tzV/AGVaMjIF4RD14EN+6gjOWffHw72bEslv3kS9sxvceO30i+4GbpQS3H18IGhegIH5+pmYY6a2mYuZuzxP2xuf5v1majz+1ryGCqkp2XCMEKILDwDkOHXkHKz7P4ymIZHj5s16OLu5me6jf2IcUIcTh06iXpOED6dOwUtLN+EUdww2n/we0/y5hr4ZipnPhUOfo51zEgBAitM/7EGJX1/0DXZt9T4DwzBtY4v+u0KGg2+vwiEpF53413Fg/WqsXv0+fkivB6ge169eB1RJSL7UsKjnQpmeistaHnzDwuHEVSFt44fYf5NgEx6NcAsVJMmZ0PAC0CshADxokJWcjhqyRXSfaFhCh6pkCXK1PPQQiQAYp9eiMDkNpToLhIsjoSkpRpmOA4GrJ9y4AFCNowdP4Rac0HtgLMDzwxNfJiH995UY4lIDyRef4pcWX7GpQ8mRT/DmypVY2eLfKnz1102jl7L4CJuxCQtCz2P/8TLoAGgrilCq8oSvX+NqWk9biLTMKgRFRqITAGguY9uOs7CKECOYD+hKJEgrC4FIZAnoSiFJLUE3schocWdEW4GiUhU8ff0Mf0QMdFXIu14Nj4AAw4uPGmTv2IXz1hEQB/MNZXVHXLxDszwlkKSVoXtcPBq2aovzUKCMwOy9SUi6kIij+77F2vkjEWJjOr2uKg/Xqz0QEGBY2GmysWPXeVgb2miO9kYaMqtCIBR2AqBFcV4BlBGzsTcpCRcSj2Lft2sxf2QIbKBFRVEpVJ6+MO5iXakEqSXdERdnp9+gToMkywLhwh7gt9MnUCQj+ZIVIsSh4EOH0uQ0lHaPQy9D45QpycgUhEHYQ18oz3ck3juahQvrhEh7ZzG+uKxqs15maW8gLbMKIUIhOrXT523GliFeusfFQd9yNdIkWbAIF6IHX4eqvOuo9ghA07DswK7z1ogQ6y+wFMnJuGQTDlGI8XH1YxwiEsGynT4xP/Y6lEpSUdJNDJHZgNZBWngDco8A+Dcc5spO/HBeYHhJVIvCtExUBUUiUj+JcHnbDpy1aiuu22l7W/MHOpRI0lAWIoLIUouK4jKoXLzg1ZhIiqN/JsOq1wBEdzLfL+DYwsaaUFVWCnWzEvTaqZ+JOWZq3pmLGVPpzY9VQ0GmtDc+zfut4ZzWfDz+3ryG5hpSM2oRIhTqF+zaChSXqeDi5dU0btKj+DPZCr0GRJts8z8xDtAWI69AiYjZe5GUdAGJR/fh27XzMVI/EPq+6R6HpvBs55wEQHttK1Zu6YwFuzbihd7ObBHDMLeBzZe7QJm0Hiu+ywdfuASnKqpRXa3/V/zlSNhytLh+9So0V5KRVkWwDhMj3AJQyqpRRzqUn9mGd+c8ilFvX4ASfHQTi2CruYKkNCnIOgzRERaArgoSyTVo+D0QLbYFoEbyxQyouV6IFPsAxulRj+TkS9DyAyESOYPv5Q0PLqBI2otvT5zFwQ+fx/zvitFJ9BIWjKzBL+vXYdeJTFRx7WDDB7iu/giwax4aXHg/8SF+Pfw7fv+92b/DB/DRk376O3nNaW6gqNwWPr5O4ALg2NrBBiXIy5Xr99flIim9HDptOcordeDz+eBAhrNr5uHjZA1CxSJYAlCkSJDtEgGRDw9QSJB82RmRYn/woEPFn+9j1vLdxiUDHFvY2QAlebnQl1aH3KR0lMMKtjYcVFeUQw1AdnYN5m2QQBMqhsjSUFbnSIh9m7VGkQJJdmdEin0b28hxcIQ9pwS5ObWNyZS1tfpvhTGRnmtlCxtONSrK1YChjRskDW000w4AipQUXHENh9CLB4ADB0d7cEpy0VS0ErW1SgAc2OobjaYuTkJ6uQ4KSTIudzb0IQDtDQnSbxoupLjm+0RzJRlptT0gFlsCUEAiuQznSDH0XaRFkSQNFSEiiCx1qMqUIEcOALYIigiEQycHONlx26wXdBX48/1ZWL47r6ExTRQpSLniinChF3jt9HmbsaWQIPlyZ0SIfPRjob0BSfpNw2KdCytbG3CqK6AflrNYM28DJJpQiEWW+oVGcjrk3cUQWzYWqadIgSTbxXBcc33S3tgrIEnW5/XnAbqKP/H+rOXYnWf8vSZcWNpYgyurQEVDXWevxXlVCEQiawBalJdXQsfng88xjOHHyWbiup22tzV/dAqkSLLhEiGCD48HR1cX8EtzcKUaAHQoP/wG3j7khZnzR8OpnX4BrwsG9Q9E1d41eOePIigBqMou4NvFr+DTVJ35+pmYY6a2mYsZU+nNj9WdjE/zfjM1Hn9vXkNzFVcLLODhaVj08hzh6sJHac4V6IekHIffeBuHvGZi/mgnk23+J8YBHAc42nNQkpuDpubVolY/EEiRZKNzY5yg3XMSANxKPIm07oMxzIMtXxjmdrFZc8dk2Ld2I1IQhGdXzkNMp6Y9lsHdEcAn1JeXQZGVhVydNaLiY2AHwL73MCQ4AtVnvsA7Pygw7pVRcLPwQc+4ruApsnA5TwfrqHhE2+rvOmVd00AQEIf4AB6gvYGsK1XgOMSgt7AT0Cp9Li7l1IHn2hNxPfjgdZ+BZS+KYFf4I14cEI8R8/ehvvc8fPfjMvTkZ+G39a9i4oAYiAfNx6/qnnjl0xUYZvbuYzvq05F+PRAREfrO4LqNwfNP2uKnqbHoM7g/hMLx2JStAyxCMaCfJ86vehi9o/tiUUE8HuoehOgYD3ChQW76ZaijeiJKAGjy0pClikLPKAEAOY5/+R62nS03LhngumHM80/C9qepiO0zGP2FQozflA0dHDBs0ihwd81EQkIM+r1agJ5DghAUHQMPrqEsYZz+USsDTW46LquFiGu2kes6DrOnO2HP5Bj0Hjocg2JDEP7UNhRpTaeHwzBMGsXFrpkJSIjph1cLemJIUEMbzbQDGlxJzYSyh8hwB5cL13GzMd1pDybH9MbQ4YMQGxKOp7YVQQsu3MY8jydtf8LU2D4Y3F8I4fhNyNZpkJeWBVVkLKIMVVJnZiLXXYQYXx5gtk8AeUYGCryjEevDAzR5SMtSQRhnuLMINTIycuEhjoEvT4fCgwswMFSMQUP7IGr8bvgvextTfPlt1AuA/Di+fG8bzpY3Lg8aaa6kIlPZAyJ9w832eVuxpY+XSMQ2NRyZue4QxegXJA7DJmEUdxdmJiQgpt+rKOg5BEFB0Yjx4AKoRUZmPnyiY+BldIbUj7EhDs32STtjb8gb1TMKAgDy41/ivW1nUc5r/bCC04gpGCvYhefi4xGdMA9XRIMR7B0FcQAPgAVCB/SD5/lVeLh3NPouKkD8Q93NxrXZtrc1fzS5SL+sbqyv8+i5mN3lCF7oGY/BA0UQT/8LvT7ZgWVxlu33CywQ9+rnWNGzAOuGBcDR3h4OfsPw7tVAxAbxzdbP1Bwztc1czJhKb3as7mR8WvSbqfH4O/MaAD8QPYLU+HXJIAwc+y7OqZwxeu5sdDnyAnrGD8ZAkRjT/+qFT3YsQ5xlG23+B8YBXFeMmz0dTnsmI6b3UAwfFIuQ8KewTT8QSL+sbhYnaPecBKiQIcmCU7gQXq1PHQzDtMf4IX/mn6MszaS/ElPphsm3qO42Ld3KT6HTx0/S+as3W76sKy+mjDMn6MSZDCox+60qHaO+uJSEXlPolxbHklNR2mk6kZhKBTXNvqtEK6Nr5xPpYp6swy9kyc8uo1ifQfSBpO3KyovS6PSJREotqGn2zSgakuaco8TkPJJ1tDCT1FR59TydPH6KLmaXUdu1MNBIKedcIiUbtdFsO7SltOkhh8aXeBupK+nq+ZN0/NRFyi4zyicvorTTJygxtYCad7F5d6tPtFSTL6FTJ89SVpnRt520qpeczi6LJZ9BH1DrpmupdNND5NDs5W49c33eRmy1QyPNoXOJyZR3Zw03r42xb0F+lpbF+tCgDyRtxpJWetVMXbUku3aeEi92fAzba7vp+WNEI6O85FN0IjHtb57DFFSWdY5OnjpHl4xOPO3Vr2PMxYwJbY3VHY9PB/ydeV2TTxdPnqKUG00v+WpkeZR86gQlpt0w/XKuSfd6HIjUlVfp/MnjdOpiNhk3rzUz5yRtAX000MnwTUgMw9wuDhGR8YUAw9wJ1dlFED58EgM+/hhvT4qF8938PKnuLJYNn4Nbr+3H+ofd/r0fVbXZDh2qriUj/exXmDvrPMYcO4sVQuMHev/d6s4uw/A5t/Da/vV4WP+SCQBAV3UNyeln8dXcWTg/5hjOrhAaPVf+IKrD2WXDMefWa9i//mHDOzfM/YONz32jJhW7P3oHyz6RY975/Xjejw0Gw9wutuhn7j5tAf74bAtO2jyChdN6Gl6kvFtUqKvjwtr6374cbKsdtTi89DGsvuiE+OlvYPnjITB+rPxfT1WHOq41jJtee3gpHlt9EU7x0/HG8scR8sA13DRVXR241tb/gQucfyc2PvcHbeFv+HCTBM4jZmBKb/d/7w0fhvkfYot+hmEYhmEYhnnAsYtlhmEYhmEYhnnAsUU/wzAMwzAMwzzg2KKfYRiGYRiGYR5wbNHPMAzDMAzDMA+4+2zRX4eSLAmSLl5EUpIEadnFqDH+AcR7RJOzG0tnTMXC7y8b72qfJge7l87A1IXf4/I/VF+GYRiGYRiG6aj7atGv+O0VxEaIERMbi5gYMaK6+8DVrz+WHDL1i6UdoUPhT4sw7pEJ+OCMynhnMxpc+u5drPlqO35LlRnvbJfm0nd4d81X2P5bKmRs0c8wDMMwDMPcZ+6jRb8G2eeSUa6zQK/FB3DyxK/4fEp3UMkprF+zs0VKpawURWU10LTYCkApRUlxBeSNC+96nN39JX75PROVpn6yW1ODSpkSAB/hc3bhr7OpOPpWr6b92jpUFhejsk7XPBe0dZUoLq5Ew2Z++Bzs+ussUo++hV4WTelU1aUoKpFB2bTJiA51VeWQmboeUcpQWlSGmlaNBJTSEhRXyMGuLxiGYRiGYZiOuI8W/bcgSbkKDc8XPR8air79RuDp0dGw5wAcvgAAUHfpO8we1AUuLl7w8XSGa8RkbL2sArRFOLBkCAI6u8Db2x1OHkOxPvUsVg0Kw8y9Mui017BpXDBE8/+A9spnGNe9O55c8TbGdHOHR8/FOFWfjU3PjcaTL21BOgFANS5unIIYbye4envD1dkXj20tBKovYuOUGHg7ucLb2xXOvo9ha6Ea2Zuew+gnX8IWfWbI07/BS/394dzZCz7eneHsPwTLj+g/rWgo/5kPvsLcfn5wdvGAm/9QrE8zrPzrLuG72YPQxcUFXj6ecHaNwOStl6ECoC06gCVDAtDZxRve7k7wGLoemRpAk7kRj0V1Q89Xj5q5wGAYhmEYhmH+q+6fRb8yFUnp9YAgCN38alCUuhsr1hxAFdww4plR0JX/jJcfmYaNGd6Ysu5bbP2/3sCl77Hyk9Oo/mUxZqw5Ad7wd/Hdrs1Y9kRvBLhYwV8YDFs1gd91ECY/PQUvjhOj5vwf+PNqLvat/QQF4qfwwotjIVKcxeHDWSiAPTx4OhTveAFjZn+H/MAZ+Gj7dnw061HEBaqw44UxmP1dPgJnfITt2z/CrEfjENy5FmcPH0ZWAWDvwYOuaAemPzwdm9Jc8MTqb/DtO6PgWnwUq+d/CACN5f/8xgIcsBiC0bHO0JaewPa9VwBdOX5++RFM25gB7ynr8O3W/0NvXML3Kz/BaWU1flk8A2tO8DD83e+wa/MyPNE7AC5cHUr+/BH70/Oh4NuCY9yvDMMwDMMwDEP3CU3uB9RXAAIa/nFI4B5LUz85S1VaNaWsEJMFx5r6vHGC0pOP0tcvRZMt14b6fZBJ195PIAGHT10e+5gSi5WNx1T8PpN8eDzynfk7KYiISEkn5wYTn8OnoJm/UZUhnfL4KxTI55LH1P1Ur75IS6MExLEbRp9e1zYeS31xKUUJOGQ37FNqtplIeZxeCeQT12Mq7a9X0tlXQ0nAsaZ+H2SThohI8Qe96Mcjju34ZuXzyHfSLirSaqngw4FkAQvqtzaP1CkrSGzBIes+b9CJ9GQ6+vVLFG3LJZt+H9Bl5TV6P0FAHH4XeuzjRGrWTCJ5EWWmXqMqTbNtDMMwDMMwDGNw39zpVyQn45KWC6dBi/HF+peR0JkDTZ0FQvpFw4mu4eDhdKioDqffHABh/Fi8dswWo9/YhW9mh8L/iVcwuYcV8ne/gn6h8XhlXwl00OJGSgbKdAJ0F0ZAAAC6MkhS86EV9MRz84fBCQCgQ6kkDYVaAULFIvByj+CPSxpYxDyK0b4N3aNF7pE/cEljgZhHR6NxMwBdqQRphVoIQsUQ8a7i9z+vQi2IwejxQeABgEYKWQ2B69i5RfkvrxgPL64a2ZdzoOW5IzTSDdcOHka6ilB3+k0MEMZj7GvHYDv6Dez6ZjZCLPzxxCuT0cMqH7tf6YfQ+Fewr8TwUoG1F0Iju8LJ1HsLDMMwDMMwzH/efbLo1yArOR23iI/IkS9g+tx1WPV0V/BqzuPHPVnQaIpQWKoDz2s69tdooFHIUHTpOL5b9ggCLACe3xP4Mikdv68cApcaCb749BdU6JRITb0MLc8PERHO+oaqJEjO1IDn3xPxAQ0rZAUkkkxoeP4Qilyhu1GIEh1g4eIGJ0Pv6HQq3CgsgQ4WcHFzMnSaDjodoJBIkKnhwV8ogquuBMVlOnAErvB006eqPnoQp24BTr0HNpUf0AsJATxAW4jktFLoLMIhjuShqLAUOp4Xpu+vgUajgKzoEo5/twyPBFgA4MHviS+RlP47Vg5xQY3kC3z6SwV0AHQKOepMvPDLMAzDMAzDMLh/Fv1SSCTXoOH5QRjtCS4sEBkdDkuOBlkXzkPKc4CTPRe6m2ex/5dzSEs9g8Pb1+H93Vegyv8F69ftwonMKnDtbMAHF67+AbCjUuTm34KO5Lh04GN8su8KlFeSkCYlWIdHI6LhW3Y0V5GcLgNZh0EcbgGegxMcuAT50Y8wf/U6rJw5BAMXJcLKyQFckuPoR/Oxet1KzBwyEItOyHE1OR0yskaYOBwWfC94e3ABRRL2fnsCZw9+iOfnf4fiTiK8tGAMNA3lhxnKr09G8iUt+IEiiJx5cHCyB1d3E2f3/4Jzaak4c3g71r2/G1e0WuT/sh7rdp1AZhUXdjZ8gOsK/wA76CRvo7ebPdzHbUWlUa8yDMMwDMMwDHC/PNOvPEnzuglI4PYU/SDTb1KnrqRYSy5ZhC6iRKWGrn37FAVbcxqf+edY+NDE7cVUd/B58uUbtnME5BY/j365oSWiWjoyK4gsOCBwrGnAuhyS7XyCHHk21HdNlv55eyKimp30hCOPbPquoSwNEWmyafNYP30+cMjCezC9e0ZOmuzNNNbPgjgAgWNB3oPfpTPyGtr5hCPxbPrSmiwNEWmpZN8rJHbk6dOBQ5beA2jBnlxSE1GNUfnq1BUUbSEgr2m/UC0Raa59S08FWxvy6svxmbidirUKOvi8L/E5hrYL3Ch+3i90Q0t064eJ5GLhRL3fvkjqZl3KMAzDMAzDMA04RKT/nsn/sbVr1+Ls2bPGm1vQKWshu1UPLdcCNvb2sBbov6tGU1+N6loVYGEHRwdL/bP0AEBqyKUy1HNt4OhgDX6Hv9pGg/pqGWo1FrBztIdlwwE19aiW1UJjYQdH+2blGCF1Haqr5VBzrWDvaItOt/N5ik6JWtkt1Gu5sLCxh721wPCNPBrUV1dD30xHODRWqrUff/zReBPDMAzDMAzzH3bfLPrXrVvX7qKf6ZgffvjBeBPDMAzDMAzzH3bfLPoZhmEYhmEYhrk3bufBE4ZhGIZhGIZh/oXYop9hGIZhGIZhHnBs0c8wDMMwDMMwDzi26GcYhmEYhmGYBxxb9P+n6aCsqYZCZ7ydYRiGYRiGeZCwRf+9oCyB5LfvseXLb7D7aBakHVlUy7Pw2zc/I0WmA1CLA7NjMXJdJjTG6e4i2ZFXIIp6DrtvaI13tUGOrN++wc8pMnSkSf8JmkvYMCYGL+6tMd7DMAzDMAxz32CL/rtKh/Jjb+PRHkGIn/IGPtu0FvPHCBE27kvjhK0oTqzDiwu/QGIlAao0HD9yDRYePuAbJ7xbqo/ijVfPYvjmzzHJr+0f+mpBcQLrXlyILxIrwb7n1UB6BoeP1cHeo5PxHoZhGIZhmPsGW/TfRUrJGowf9z6KH/4GGflXkHQhDXk5R/DaEG/jpK1YjtiM/PKDeDmQB93NZEiKgiAW2Rona6SUlaK4Qo5W9+iVUpSUSKE03m6MH4Tp23/F+4Od2wgCJaTlspbHsRyBzfnlOPhyYNOvEWvlqCipgLx1RSAtKUZF6x0m6RRSlMtUxpsBqCArK0N1mx956CCvkrZ4REklK0NZ2xla0MorUGKiH80fQ4XqsnLUaABlygVk8MIhCrNo2ms2b2ttt10JWWnbfaiTV0HarOFKaQlKpCZGXilFSbGpMWqilJZDZiIrVDKUlVXf00+cGIZhGIb5BxBzd2hy6ZOhjuQ09GO6qjHeSUQ1++gl0RBaJVHr/1+TQ5+NDaent5UTUT39Pi+GBq48T2oiqt8/lby8Z9BvCuODEKmv76Mlw7uRp3cgBbg6kt+wd+mvGiIiKZ1+91EKdvOirl3cySV0Af3ZKn8N7XtJRENWSUhfCw3lfDaWwp/ept9d/wct6PUEvfPlQhoWGkDeTtbkNeJTumRoT/3v8yhm4Eo6ryYiklP61hkU5+tBfsH+5O4dR4sOVRGRkq7tXkCDunQm94AAcnPwoLhZuynfRJ8o/lhAvcavoE/mDqQQfx9ysfOioWsl1FDt+owtNCXKlZy9fMiz61B6fdnTJDbUtf7QXOo5fhmtnhhCtlwbGrW1iqg+g7ZMiSJXZy/y8exKQ19fRk+Ln6Zt5doW5RIRkTydts6II18PPwr2dyfvuEV0qIraPYY87UuaInTT1ymgPz07Noys4lbRZU37eZsz33Y1Xd+3hIZ38yTvwABydfSjYe/+RTVERPWHaG7P8bRs9UQKseWSzaitVCU9Te8+GkxuXl2pi7sLhS74U38c5TXavWAQdensTgEBbuTgEUezdueTfijq6Y8FveiJd76khcNCKcDbiay9RtCnDYNN9ZSxZQpFuTqTl48ndR36Oi17WmyIV4ZhGIZh/m3Yov8uUaevpBhLP3r+YK3xLiIiUp5ZSD0cRtHWSsOGWzvocedAmn1MQaSW0LIoexqxuZyI1JT+ZjTZDd1IJcZrxfoztDTalaLnHaQiDRGVf0WjHDxp2oF6UqevpFi7OFqZVk9EairNySWpcX7lGVrYw4FGNVWCdjzuTIGzjxERkTptBUVbO1DA0BV0vFxLihNzKNhqAK3P1xKRmiTLosh+xGYqJyLZkVkU0jmBVpyR6o+Uuof2pdZTzYmFFOkspjm/3iA1EckvLCWxZTDNO6VsVhEiIjWlvRFNljY+NHj5cSrXauja2n5k4/8i/aEgIvkpWhjhTLFLTlKllkiauJzi7fnUdfYxQ12EZGXnRfGzdlJqTi4V1cjp1MIIco5dQif1GWh5vD3xu86mY60ufmR0ZFYIdU5YQfrq36LUPfsotb6dY9Qep/mhjhSz+IShTisowYFP3jMOkoLayduC+bbXn1lK0a7RNO9gEemHeRQ5eE6jA/VEaskyElrZkVf8LNqZmkO5RVJKXxlLdnErST/0pZSTKyUt1dCJhZHkLJ5Dv95QE5GcLiwVk2XwPDqlJCJ1Gq2ItiaHgKG04ng5aRUnaE6wFQ1Yn09ERPJTCynCOZaWnKwkLUkpcXk82fO76uOVYRiGYZh/HdNPdjyA6spycSU7G9nZV5BTcrdfutSh8vRpZFr3wbC+NsY7AeggTUnFja5CiOz1W1SXJMjUhkEc2Qm4JUHKdX8IhU4AaiGRXIOPSAjnFqOjQ9nO1fisdAhmPeuHinO/YvOqrTjXKRYJ4RbQSasgU9fgxrUSKMCHe2AXOBqNrk6agtQbXSFsqgQkmVqEiSMBADWSFFzhizHn42Xo78oFx8ICfIEtHOy4AG5BknId/kIhnHSF2PHBd9BMfAuLejkCAOwix2JkeAW+W7UZ8onvY9UIb/ABWIfHINyuBPkFxg+I1CI19Sos4xbis+X94crlwSswANbVUlRpgYo96/CVdCyWv9YXzlzAMWYE+vrYIFwcaahLDniRr+CL9RMQGdgFXvV7sO4rKcYufw199Rkwoq8PbMLFiDR63F5XuAMffKfBxLcWQV99O0SOHYnIGnPH0KHip4/w9a3xWPF6P0OdHkJvL0uERQshqDCXt2X5ZtuuLsPO1Z+hdMgsPOtXgXO/bsaqrefQKTYB4RbALUkKcniReOWL9ZgQGYguXtaQVsmgrrmBayUKgO+OwC6OQOF3WLVZjonvr8IIbz4Aa4THhMOuJB8FGgA1EqRc4UM852Ms6+8KLscCFnwBbB3sAFRgz7qvIB27HK/1dQYXjogZ0Rc+NuH6eGUYhmEY5l/nv7Ho1xVg16InMGHCBEyYMAHPvn/COMUd0uHGjVKQuw98BMb7AEANSXIWrMNFCOYDgA4VF5JQaLgIUKYlI1MQDlEPPqBKQ1ImDxHiMDQ9JQ4AdThx6CTqNUn4cOoUvLR0E05xx2Dzye8xzZ8Li97zsfYVd/w2MQJhj7yFo+Wtv19HLUlGlnU4RPpKQFdxAUmFDRcBKqQnZYI/eBomh+if2K/JvIQi/0hE2AFQpiE5U4BwUQ/wa07iyDkr9B8eD+vmBchP4cg5a/R/uHfTdvlN3Kx3hpub0cvCqgwkZ/IwcOoz6MaD/sKoqBh1bp7w5Ctw7uhZUMIwDDC81qArPYcLBYa6GuoydOZzCDe86aw4dxRnKQHDmjLg3IUCdBWKYLjEaVRz8gjOWfXH8PgWtW/nGAok/nEaaF6nsgu4WOALodAZKrN5jZhru+oEDp2shybpQ0yd8hKWbjoF7pjNOPn9NPhzlUhLzoRg6Ew819BwWKD3/LV4xf03TIwIwyNvHUW5DpCfOoJz1v3xcO+mNspv3kS9sxvceIAqPQmZ/MGYNjlE/35GTSYuFfkjMsIOUJzD0bOEhGEDoG+NDqXnLqCg2UUrwzAMwzD/Lv+NRT/XD1O/uQhJSgpSUiQ4ve5R4xR3iANbG2tQVRlK1cb7AGgLkZZZhaDISHQCAM1lbNtxFlYRYgTzdSiRpKEsRASRJaArlSC1pBvEopYLUmiLkVegRMTsvUhKuoDEo/vw7dr5GBli+GSB54uR7x1F1oV1EKa9g8VfXDZ6OVWLwrRMVAVFGu48a3B52w6ctYqAOJgP6EqRnFaK7nG94AAAUCIlOROCMCF68AFdiQRpZSEQiSyhrShCqcoTvn4tv1tIW1GMMpULvLyatkuP/olkq14YEN3yDrHuZgpSi0PQs2fDKlKGY8dSYB/fH0J+FfKuV8MjIMBw4aNB9o5dOG+tr6u+Lt0RF6+vKaBDVd51VHsEIMBwpaTJ3oFd560RIQ42+gYkLSqKSqHy9EXL6rdzDJ0UhTfk8Ajwb6zTlZ0/4LwgHKIwvvm8zUpBO22PuJmHAmUEZu9NQtKFRBzd9y3Wzh+JEBsAuhJI0srQPS7eMEZ6PN+ReO9oFi6sEyLtncX44rIKFcVlULl4oWkopDj6ZzKseg1AdCcdSpPTUNo9Dr0MB1KmJCNTEAZhDz50VXm4Xu2BgKbGYMeu87COEBsuWhmGYRiG+bf5byz67zkeugzqj8CqvVjzzh8oUgJQleHCt4vxyqep0GjLUV6pA5/PBwcynF0zDx8naxAqFsESCqRIsuESIYIPD1BIknHZORJif6M74xwHONpzUJKbg9qGbcpa1CoBXVUmJDlyAIBtUAQCHTrBwckOnOb5oUV5eSV0fD74HEB2dg3mfZwMTagYIksACgkkl50RKfbV3/nVFkGSVoEQkQiWABQpEmS7REDkwwPH1g42KEFerr5M1OUiKb0cHEdXuPBLkXOlGgCgKz+MN94+BK+Z8zHaqUVloJKkIEtVhes5ldABqE78AOuOeGLKzIdgy7WCrQ0H1RXlUMNQ1w2SxroqUiTI7hwJsW9DH3FhZWsDTnUFyvUZsGbeBkg0oRCLLFsWDA5s7WyAkjw0VT8J6eUwfwyuJWysuZBVVDTWafba81CFiCCyvp3yzbfdzsER9pwS5OY0jjKUtbX6b1FSpECS3blpjKBDVaYE+qG3RVBEIBw6OcDJjg9HVxfwS3OgHwodyg+/gbcPeWHm/NFwggISyWU4R4qh70ItiiRpqDBceHKtbGHDqUaFvjE4u2YeNkga4lWFzG2L8PL7RxvrxzAMwzDM/Y8t+u8Si7hX8fmKnihYNwwBjvawd/DDsHevIjA2CHyLUAzo54nzqx5G7+i+WFQQj4e6ByE6xgNcTS7SL6sR1TMKAmiQl5YFVVRPRBk/JsR1xbjZ0+G0ZzJieg/F8EGxCAl/CtuKtNAVHsSCgaEQDxqKPlHjsdt/Gd6e4ms0uBYIHdAPnudX4eHe0ei7qADxD3VHUHQMPLiAJi8NWSoh4oSGgtUZyMj1gDjGFzxokJt+GWpDvbhuY/D8k7b4aWos+gzuD6FwPDZl6wDn0Zg7uwuOvNAT8YMHQiSejr96fYIdy+LQcumrRa4kDdVd3ZD+ck/E9I2FcOwu+Ly5FUvjOwFwwLBJo8DdNRMJCTHo92oBeg4JMtTVUBdhHBqqCgAOwyZhFHcXZiYkIKbfqyjoOQRBQdGI8TAOcS7cxjyPJ21/wtTYPhjcXwjh+E3I1rV3DCeMmDIWgl3PIT4+GgnzrkA0OBjeUWIE8NrL25z5tnNdx2H2dCfsmRyD3kOHY1BsCMKf2oYiLaDJTcdldbMxgg6FBxdgYKgYg4b2QdT43fBf9jam+HLhPHouZnc5ghd6xmPwQBHE0/9Cr092YFmcJaDJQ1qWCsI4IfRHUiMjIxce4hj9RYDDMEwaxcWumQlIiOmHVwt6YkiQIV61N/D7ls+wO6msRasYhmEYhrm/cYiI/c7SXaQsv4zU7JuASxAie3g0LXZ11chNyoTUNQzCAIem77m/TZqqHEgyi6C09kS3sG5wMxSgqy1AWko+lC4hEHZ30z9G1IoO1blJyJS6IkwYAIe/WwkAQB2K0yXIqbFDl8hw+No2LG61qL6ehvSCejgERiHC29SLzTXY8VgA3up6AJJlnkhPLYFloAjhns0vDbSQXUvCpVtuCIvsWF21smtIunQLbmGRCGgvQ10x0iU5qLHrgshwXzRU3/wxdJDlXMSlGtN1Mp+3QUfarkFVjgSZRUpYe3ZDWDc3o4um5nSoLUhDSr4SLiFCdHdrNvLaalxPS0dBvQMCoyJgcijaopXhWtIl3HILQ+QdxCvDMAzDMPcHtuhn/nmqM1gY9Qhyl+bhp6eaP53+H/BfbjvDMAzDMP8zxs8eMMy9p6mFRddxGNmr7V8cfmD9l9vOMAzDMMz/DLvTzzAMwzAMwzAPOHann2EYhmEYhmEecGzRzzAMwzAMwzAPOLboZ5i7SokaWZ3RD6MB0ClRU61A699JvoeUNaiua1UThmEYhmH+g9ii/15QlkDy2/fY8uU32H00C9J/dKV3n6o9gNmxI7EuU2O85x9UiwOzYzFyXSbuTS0UuPhGP4RN/h43Woy5DEdeESHqud240cE1uDzrN3zzcwpkdxA7ld9NRLcJX6O8Q8fQ4NKGMYh5cS9qjHf9AzSXNmBMzIvY+78onGEYhmH+A9ii/67SofzY23i0RxDip7yBzzatxfwxQoSN+9I44X+OKu04jlyzgIcP33jXP0eVhuNHrsHCwwf3ohbaSx9j/kY+Xnr3Wfg3m1nVR9/Aq2eHY/Pnk+DXoS+8V+DEuhex8ItEVN7Ba/Z2YWFwlSTinMp4jylSnDl8DHX2Hm38xsO9JT1zGMfq7OHxvyicYRiGYf4D2KL/LlJK1mD8uPdR/PA3yMi/gqQLacjLOYLXhngbJ/2P0eFmsgRFQWKI/offVKm7mQxJUTCiRbaAUopyqdI4yd+nq8BPb32IgpFL8GJYy0sKftB0bP/1fQx27uh0s8SIzfkoP/gyAjt0kWAa38sLrtXXcLW07Vv9quoylNdoAGUKLmTwEC4Kg4VxontFVY2y8hpooETKhQzwwkUI+8cKZxiGYZj/lo6uQpj2aPPw5avvITP2Hfyw4TEEWes389z6YdashwEokPnVsxC6dYa3rxcChy3F8mei8cx3FQAUODwvDo8tfw+TutuBZzsaX0tNbQM0+fvx2kMh8PIJQhc3J/gPX40ztWjjGIAi8ys8K3RDZ29feAUOw9LlzyD6me+MKq/X9rFlSFw9Et3cvRHY1QOuYf+HoybWy23nVyE5+TIcosToaryIVfyJ/4ufgFVbFmF4WBf4ONvA+5HPkNXwGIwqFz/932B0dfFAly7ucPTshdk/FeifmVf8if+LfxLvffMahod3gZeTHYKn/YjssxswKSYYvq426NznHVww1FWVnIzLzl2g2TUewtAohPkFYMgHEuh3m+6/ttvUkvbq1/j4NzdMfvkhOABA7X68LB6Kd1M0sPGLQA+XfGwcF9E43n/+XzwmrNqCRcPD0MXHGTbej+CzhkYrjmB+7CC8dUH/EFJdxtd4rpcfPP27IcDDB71ePQwAUOX+hP8b3BUuHl3Qxd0Rnr1m46eCpueHuFZW6ETVkJl6RqguHVueFcG3qxjRIcEY8MJGnK7oBpFIH7gdbTfqMvD1c73g5+mPbgEe8On1Kg5LASgy8dWzQrh19oavVyCGLV2OZ6KfwXcVOgB1SN/yLES+XSGODkHwgBew8XQFuolEsEZ7eY2LN903ZuNecRjz4h7D8vcmobsdD7ajv4bU1DZokL//NTwU4gWfoC5wc/LH8NVnoJ9uptKbm+MMwzAM8z9GzF2hTl9JMZZ+9PzBWuNdREQkP7WQIpxjacnJStKSlBKXx5M9vyvNPqYgUktomdCK7LziadbOVMrJLaIaU9vqz9DSaFeKnneQijREVP4VjXLwpGkH6k0fQ36KFkY4U+ySk1SpJZImLqd4ez51nX3MuHpEZo6tTl9JsXZxtDKtnojUVJqTS1Jtx/OTOp3ejLajoRtLyDibOm0FRVs7UMDQFXS8XEuKE3Mo2GoArc/XElENnVgYSc7iOfTrDTURyenCUjFZBs+jU8qGvI4UMOwNOnlTSzU/TyYPO1/q1v95+jFPTerU5SSyEtOKVDURqSn9zWiysPOhgYuPUKlGQznv9yXrgJfoTwWZ7j9zbWrZCkpdISabuHfokka/RXlmIfVwGEVbKw1Jbu2gx50DDeOdRiuirckhYCitOF5OWsUJmhNsRQPW5+uPJllGUfYjaHM5EcmO0KyQzpSw4gxJiYhupdKefalENSdoYaQzief8SvquuUBLxZYUPO9UY62019dRP+toeiNN3bhNr5aOzw8lx5jFdEIfGLQiwYH43jPooKKdsWxBRkdmhVDnhBV0Rl85St2zj1Lr5XRqYQQ5xy6hk4bjL4+3J37X2XRMQVR7fD6FOsbQ4hOGubAigRz43jTjoIKIzOdtWXwbfdNO3Ksly0hoZUde8bNoZ2oO5RbVmNxWf2YpRbtG07yDRaTvhlHk4DmN9NOtdXqzc5xhGIZh/sfYov+u0FLpxmFk5TyJdptc85fTtrGdyWf6fqoxbFGeXUShDYvCyq9opK0tJaxOp8blWattWirdOpqcvSfS1tRMSkk8QF/M7UvubqNoy3WtifRE5dvGUmef6bS/qVBaFOpAoxpXog3MH1t5ci4FW4bS8z/nkvGyT898fpJ+S2Mce9CiM0rjjFT1zWiysx9I6y/rV8vKMwuph/2j9FUVkbZgIw13DKSX/5Q3pq/fO5lcbcfRdnnrvIqDM8jbojvNO6EfBM2ld6inTR/6IFdDRFL6dow92fZ+l9INHVS/dzK5Oj5JP8j/Rn83p7lK7/W2pqhlyU15Nw4jO9FySjGU1WK8q76h0Xb2NHD9ZdIQESnP0MIe9vToV1VERFT51UhyiHiNLqi1VLBxODkGzqKjTV1ARA3bX6amrqmnvZNdyXbc9sZUypNzKdhmOG0qb9xERETa8m9orLMPTW8KDDqzsAfZDttIJdqOt7thfGa1rBxR+TYa27nl8c8uCiWHUVupUltO34x1bjkXziykHrbDaGOJ1nxewxa9tvqm/biv/Gok2dom0OqGQDC1TVtKW0c7k/fErZSamUKJB76guX3dyW3UFtJPN+NjtDPHGYZhGOZ/7L/xeI+uAFunxEAkFEIoFKHP/APGKe6QDjdulILcfeAjMN4HQHEOR88SEoYNgP6Rdh1Kz11AQVchRPaAMi0ZmYKhmPlceOMLpq231eHEoZOo1yThw6lT8NLSTTjFHYPNJ7/HNH+uifQKnDt6FpQwDAMMz9HrSs/hQkFXCEX2hlIamD+2Re/5WPuKO36bGIGwR97C0VZfB2M+vyotCZm8CIhbPbCtQnpSJviDp2FyiP65n5rMSyjyj0SEHSA/dQTnrPvj4d6GZ6UAyG/eRL2zG9x4xnm1KM7MhjRiIqb1tgEAKDIzkOscinAvHqBKQ1ImF4Oem45wPgDoICspQZ2bJzz5t9/fLdQnISnLHuKePQx51ZAkZ8E6XIRgQ1kVF5JQaBhvVXoSMvmDMW1yCHgAUJOJS0X+iIywA6BEWnImBOEi9ODX4OSRc7DqPxzxTV0AQI5TR87Buv/DaOoaOW7erIezm5vh/3WoSE1DsXcYwhyacgKAIvEPnEYChjUGRhkuXCyAr1AIZ27H211z8gjOWfXH8JaVg+LcUZyl5scvxbkLBegqFMFekYg/TqPFXCi7cBEFvkIInbnm8zYrA2irb9qLe0P/Dp2J5/SBYHpb3QkcOlkPTdKHmDrlJSzddArcMZtx8vtp8OeaSN/OHGcYhmGY/7X/xqKf64ep31yEJCUFKSkSnF73qHGKO8SBrY01qKoMpWrjfYCuKg/Xqz0QEGBY9GqysWPXeVhHiBHM16FEkoay7nGIb1ycmdimLUZegRIRs/ciKekCEo/uw7dr52NkiI3p9Loq5F2vhkdAgOHFTA2yd+zCeesIiPUr0SZmjw2A54uR7x1F1oV1EKa9g8VfXG75PfRm8+tQKklFSTcxDI+LN9GVIjmtFN3jeumfg4cSKcmZEIQJ0YOvRUVxGVQuXvBqrK4UR/9MhlWvAYgWtM4rkVyGs7inYaGtQZYkA8qwaIgEgK5UgtTi7ugV72w4lgzHjkpgH98fQgsT/We2TS1pS/NxQ+mP4CDDFZ+2EGmZVQiKjNR/E47mMrbtOAsrw3iXJqehtHscehnKUqYkI1MQBmEPPqArgSStDCEiESy1FSgqVcHT16/ltw1pK1BcpoKLl1fTdulR/JlshV4Dog0bqnH8WAoc+wyEqMW1lg7SwhuQewTAvyEcr+zED+cF+pd4O9xuLSqKSqHy9IVfi8rpUJV3HdUeAWgK9x3Ydd4aEeJgcKWFuCH3QEBT4dj5w3kIwkUIszCf17gPTPZNe3Fv6N/ucfGGuIHJbdriPBQoIzB7bxKSLiTi6L5vsXb+SOhDunV683O8oSCGYRiG+d/5byz67zkeugzqj8CqvVjzzh8oUgJQleHCt4vxyqep0FnZwoZTjYpyNQAZzq6Zhw0SDULFIlhCgRRJNjpHiuHb+JKriW0cBzjac1CSm6N/kRAAlLWoVbaRnmsFWxsOqivKoQYgO7sG8zZIoAkVQ2TZcAADM8fWVWVCkiMHANgGRSDQoRMcnOzA6WB+QAFJ8mU4R4rh3+olXgkkl50RKfbV3/HWFkGSVqFf8IIHR1cX8EtzcKUaAHQoP/wG3j7khZnzR8PJOK8mG5J0BUKjRdAvvaVIScmHv0gEZy6gkCQjUyVDUaEMOgCy02vwwe+emDLzIdia6j+zbWqJamsh5zihs6shs7Yc5ZU68Pl8cAzj/XFy03hLJPr+0JelRZEkDRUhIv24KFIgyXZBhMgHPI4t7GyAkrxc6EegDrlJ6SjnOMLVhY/SnCvQd005Dr/xNg55zcT80U76OlT+ij0nbDHisYH6l2MbcWFpYw2urAIV+sDAmtlrcV4Von+Jt8Pt5sBWXznk6iuHutwkpJcDVrY24FRXQB/uZ7Fm3gZINKEQiyzBtbSBNVeGCn3hOLtmNtaeVyFEJII1uGbztiy+jb5BO3GvSIEku3NT3MD0No6DI+w5JcjNaXp7WVlbq3/p20R6rtk5Dqgyt2HRy+/jaKXxp2QMwzAM889gi/67xCLuVXy+oicK1g1DgKM97B38MOzdqwiMDQLfYRgmjeJi18wEJMT0w6sFPTEkKAjRMR7ganKRflkNYZzQsFgFYGob1xXjZk+H057JiOk9FMMHxSIk/ClsK9KaTg8HDJs0CtxdM5GQEIN+rxag55AgBEXHwMN41M0cW1d4EAsGhkI8aCj6RI3Hbv9leHuKb8vAMZMfmjykZakQ1TOqWd30NHlpyFIJESc07FFnICPXA+IY/WLKefRczO5yBC/0jMfggSKIp/+FXp/swLI4y9Z5azOQcaMrekZ31tdNdQnpV20gig0FHxrkpmXDKqEH0p6LQc++MRCO/RG+K7diaXwn0/1nrk1GOBYWsOCg6ULIIhQD+nni/KqH0Tu6LxYVxOOh7g3jre+PprLUyMjIhYc4Br48QJObjsvqKPSMEgBcN4x5/knY/jQVsX0Go79QiPGbsqGDM0bPnY0uR15Az/jBGCgSY/pfvfDJjmWIswQALfK2b8VR72fw/GDjO/SA04gpGCvYhefi4xGdMA9XRIMR7B0FcQDvNtrNhduY5/Gk7U+YGtsHg/sLIRy/Cdk6wGHYJIzi7sLMhATE9HsVBT2HICgoGjEeXMBpBKaMFWDXc/GIj07AvCsiDA72RpQ4ADy0k7dF8W31jfm41/dvs7iB6W1c13GYPd0JeybHoPfQ4RgUG4Lwp7ZBP91ap4e5OQ4tbvy+BZ/tTkIZW/MzDMMw/yMcIrqDn/9hjCnLLyM1+ybgEoTIHh5ovD+pleFa0iXccgtDZIBD013G26SpyoEkswhKa090C+sGN+O79i1oIbuWhEu33BAWGQCHdgpt69i62gKkpeRD6RICYXe3Nn+8qa38d0Rbjetp6Siod0BgVAS8W69hb4tWlgtJRhmsgkQI82i/gh1qk/RrjOqyCfHnTmOJ4d0E6KqRm5QJqWsYhHcw3gBQV5wOSU4N7LpEItzXtvGCS1t9HWnpBah3CERUhDcau0Z+HHOiJ+HG6xfx4zNeJq/sdbIcXLxUA7ewSASYCIwOtRsA6oqRLslBjV0XRIb7wtZQmFZ2DUmXbpk+vk6GnIuXUNPGXDCb14jpvrm9uG+bBlU5EmQWKWHt2Q1h3dya5rMpd2mOMwzDMMy9wBb9DHOnNClY3nMkilZexZZHzS4L/wEaZLw3EA8dHovff5+PUPY8OcMwDMMw7PEehrkL+OGYuPhFxHc28Rb3P01bhOu8Efho4yy24GcYhmEYphG7088wDMMwDMMwDzh2p59hGIZhGIZhHnBs0c8wDMMwDMMwDzi26GcYhmEYhmGYBxxb9DMMwzAMwzDMA44t+u8qBcpyclCmMNqsqUJedlHTL5zeJbUHZiN25Dpkaoz3/PdoLm3AmJgXsbfGeI85cmT99g1+TtH/Su89J8/Cb9/8jBSZvjSz42eU9n5hts4MwzAMw9y32KL/LtIVbcZE4WisT1W12F7788uIHbQcJ4wvBu6ICmnHj+CahQd82FczQnrmMI7V2cOjrV8OM0VxAuteXIgvEivxT3yFleLEOry48AskVlK749cy7f3CfJ3/V5SJazBp5hZcNv7RYIZhGIZhGrFF/12kSpYgyyIcojCL5ltxKTkdih5iiJpvBgClFOUypdFGYyrIyspQbXxnVXcTyZIiBIlFsDXaZZZOgaqKajQdToXq8irUtXFDWSkth+kqKiEtKUaFvIMrLZ0C0nIZWl4OdYQSstI2ylFVo6y8BhookXIhA7xwEZp3vVJWiuIKOUzk1LMcgc355Tj4cqDRr6cqIS2XoXWzlZCWlEDaaocW8ooS03XUyVElVUAHwHLEZuSXH8TLgbzG8QuOFsEWSkjLpS3Ka5G26WCQV0mhaByrturTgbYD5vNLS1rnNxlzbcRnc7cTc0oZSosrYKorAVNzRoNLh7/HgesaOHGabUYHjtXITIwBZuLh9rU5n1QylJU176O2aeUVKDEeGwAqWRnKzA1Es1g0t81s7LRK34HxZxiGYe4PxNwlakp/M5qse71LlzXNNmtL6fPhttRtQSIpiaj+jwXU64l36MuFwyg0wJucrL1oxKeXqHmWBvUZW2hKlCs5e/mQZ9eh9Pqyp0n89DbDzv001cubZvymIKIa2veSiIaskpCaiIg0lPPZWApvTPsHLeg1gVZ/vYSGhQWQp6MtBU39gS6f+YgmRgeRj4s1OSe8TecVRET19MeCXvTEO1/SwmGhFODtRNZeI+jTSw01VNK13QtoUJfO5B4QQG4OHhQ3azflm2qA4g9a0Gs8rfhkLg0M8ScfFzvyGrqWJApqv86kpuv7ltDwbp7kHRhAro5+NOzdv6iGiIjklPblFBK6OZOXjycF9H+WxoZZUdyqy6QhIvX1fbRkeDfy9A6kAFdH8hv2Lv2lz9hC/e/zKGbgSjqvbuijJ+idLxfSsNAA8nayJq8Rn1JDs6Wn36VHg93Iq2sXcncJpQV/KoiISJ6+lWbE+ZKHXzD5u3tT3KJDRFRPh+b2pPHLVtPEEFvi2oyirVX19Pu8GBq48ry+vfX7aaqXH014cwWNjupKvi625DH4fUo2jEHztPWH5lLP8cto9cQQsuXa0KitVW3Wp6Ntbyu/8tpuWjCoC3V2D6AANwfyiJtFuxsGt0XMtReftxNzRKS+TvuWDKdunt4UGOBKjn7D6F1DxducM5ps2jCyK7na8oln60o+viE07Ycqs8dqyUyMtRMPzdXse4lEQ1aRRB/IpMn5jMaGP03byrUdmE/1lLFlCkW56mO569DXadnTYnp6W3nzIvTk6bR1Rhz5evhRsL87ecctokNVRFSfQVumRJGrsxf5eHaloa8vo6fFTeWbisXW28zFjun0ZsefYRiGue+wRf9dI6VvxzqSz/OHqGEdQ0REioP0nI8jjdsuIyI1pa2IJmuHABq64jiVaxV0Yk4wWQ1YT/na5pmISH6KFkY4U+ySk1SpJZImLqd4ez51nX2MiIjU6W9StN1Q2liiJVKeoYU9HGjU1kpD5lu043FnCmxIm7aCoq0dKWDYG3TyppZqfp5MHna+1K3/8/RjnprUqctJZCWmFalqInUarYi2JoeAobTieDlpFSdoTrAVDVifT0RENScWUqSzmOb8eoPURCS/sJTElsE075SyseoN1GlvULSlDfkMXk7Hy7WkubaW+tn404t/KNqtc/2ZpRTtGk3zDhaRhojKvxpFDp7T6EA9Ue3x+RTqGEOLT1SSlqSUuCKBHPjeNOOggqj+DC2NdqXoeQepSJ+RRjl40rQD9S3qRqQmybIosh+xmcob+8iBAoauoOPlWlKcmEPBVgNofb6WSJ1OK2PtKG5lGtUTkbo0h3KlWiLZEZoV0pkSVpwhKRHRrVTasy+VSC2hZUIrsvOKp1k7Uyknt4hq1BJaFmVPIzbrF3Pq9Dcp2sKOfAYupiOlGtLkvE99rQPopT8V+vyNadUkWSYkKzsvip+1k1JzcqlI2kZ9Otr2ttpTc4IWRjqTeM6vdEM/uLRUbEnB80411bkh5tqLz9uJOaqnM0ujyTV6Hh3UV5y+GuVAntMOUL3ZOaMlZdV+es7ficZ9XUxSWQ0ptOaO1ZK5GDMbDy0o6czCHuQwais1RvKOx8k5cDYdU1C780l+aiFFOMfSkpOGWF4eT/b8rjT7WIuzCBHJ6MisEOqcsILO6IONUvfso9R6OZ1aGEHOsUvopH4gaHm8PfG7NpTfRiwabzMXO6bStzP+DMMwzP3nP/N4T11ZLq5kZyM7+wpySm7rbc+OUaUjOUODMLEQgmabtdclSKsKhlhoC6AGkpQr4Ivn4ONl/eHK5cDCgg+BrQPsjEaiYs86fCUdi+Wv9YUzF3CMGYG+PjYIF0cCAGolElzzEUHozIVOmoLUG10hFNnrM6suQZKpRZghbY0kBVf4IszZsBR9O3MhsLQAT2mDR1auw2MBfHAEnSDgWsPOjgPUSJByhQ/xnI+xrL8ruBwLWPAFsHWwA3SF+G7VZsgnvo9VI7zBB2AdHoNwuxLkF7T+fL82NRVXLeOw8LPl6O/KBc8rEAHW1ZBWac3XWVeGnas/Q+mQWXjWrwLnft2MVVvPoVNsAsL5Ffjpo69xa/wKvN7PGVw4Iuah3vCyDEO0kIeynavxWekQzHrWDxXnfsXmVVtxrlMsEsKNn626BUnKdfgLhXBq7CMx5ny8DP1dueBYWIAvsIWDHRfQSVElU6PmxjWUKAC+eyC6OAKFOz7Ad5qJeGtRLzgCgF0kxo6MBG5JkJLDQ+QrX2D9hEgEdvGC7S0JUq77Qyh0Agzjd9UiAi9veAtD3HngeQeji40MVZVaff7GtLcgSckBL/IVfLF+AiIDu8DL2nR9Otz2ttrz3Spslk/E+6tGwFs/uIgJt0NJfkFjnRtirr34vJ2Y05XtxOrPSjFk1rPwqziHXzevwtZznRCbEA4Ls3OGC/6tHFy5GYzoODc4OthCUGHuWM37wEyMWbQTDy2OI0VK6g10FYqgj2QVLkkyoQ0TI7ITzM8nVGDPuq8gHbscr/U1xPKIvvCxCYc4suXLKbrCHfjgOw0mvrUIvfTBhsixIxFZswfrvpJi7PLX0Fc/EBjR1wc24Yby24rFFts8IDcXO63Se6G+nfFnGIZh7j//jUW/rgC7Fj2BCRMmYMKECXj2/RPGKe6YriIVaUV+iBI6tejU2uRkXHGKhDiQB6jSkZTJx+BpkxHCA4AaZF4qgn9kBOya5QEUOHf0LChhGAYYHp7WlZ7DhYKGRbIKaUmZ4EWIEWYBqCXJyLIOhyhY/3alruICkgqb0qYnZYI/eBomh/AAaFGcmQ1pxERM622jLy0zA7nOoQj34kGVnoRM/mBMmxyif869JhOXivwRGWEHyE/hyDlr9H+4N6wbqiq/iZv1znBza/lUPKBCRnImeAOn4plu+n06aRGK69zg6ck3X+e6Ezh0sh6apA8xdcpLWLrpFLhjNuPk99Pgr0rEH6eBhGEDDM+V61B24SIKfIUQOitw4tBJ1GuS8OHUKXhp6Sac4o7B5pPfY5q/Uagr05CcKUC4qAf4rfoIqMm8hCL/SETYAbDojflrX4H7bxMREfYI3jpaDh1qcPLIOVj1H474xs5oOHQyMgVDMfO5cDS876rfFg5RD37j+HEHPYfp4Yb2y0pQYuibFmkN9Rw68zkYkrZRn7qOt91kfjlOHTkH6/4Po3fT4OLmzXo4u7kZxVz78Xk7MVd34hBO1muQ9OFUTHlpKTad4mLM5pP4fpo/uO3MGVVqCrIdIyDsoh83s8dqaJY+YdsxxjWuv1E8NKeWIDnLGuGiYP1Y6ypwIamw8SLA7HxSnMPRs9QilkvPXUBBVyEaroUb1Jw8gnNW/THcKNgU547iLCVgWNNA4NyFgsby247F5tvMx07r9O2NP8MwDHM/+m8s+rl+mPrNRUhSUpCSIsHpdY8ap7hjmvzruEFu8PJs/rUmlfj9QCJ4vQejVydAV5qMtNLuiOvloN+tTEFypgBhwh6Nf5ABALoq5F2vhkdAgOHupAbZO3bhvHUExMF8QFcKSWoJuolFsIYWhWmZqAqK1N/ZgwaXt+3AWaumtMlppege1wv6UpWQSC7DWdwT+vW2BlmSDCjDoiES6FCanIbS7nFoqmIyMgVhEPbgQ1tRjDKVC7y8mmorPfonkq16YUC00dfm6G4iJbUYIT17Gu6AArJjx5BiH4/+Qp7ZOmuL81CgjMDsvUlIupCIo/u+xdr5IxFiA+ikhbgh90CAv+G+reYKdv5wHoJwEcJ4xcgrUCJi9l4kJV1A4tF9+HbtfIwM0S80m9OVSJBWFgKRyNJkH6UkZ0IQJkQPPgDw4DvyPRzNuoB1wjS8s/gLXFZVoKhUBU9fv5ZjBx1KJGko6x6HeEMfNm4LEUFkqV+YSVKL0b1XPJwNKWTHjkJiH4/+Qn6LtPp6dkdc08HaqE/H2246fwWKy1Rw8fJqao/0KP5MtkKvAdEtY64D8Wncn23HnBbFeQVQRszG3qQkXEg8in3frsX8kSGwQXtzRoNrqRmoDRFCKID+4sLMsZozF2Om6t8yHpodpzANmVVBiDTcmddc3oYdZ60QIQ4GH+bnk64qD9erPRAQ0BDL2dix6zysI8SGfmqgRUVRKVSevvBreaJAVd51VHsEoOkQO7DrvHVj+W3GYvNtWnOxYyJ9e+PPMAzD3Jf+G4v+fwDPwxPuSMUv25Mg1QE6+XX8+d6zWHDAEy/MHwsnAAqJBJedIyH21d891BZJkFZhWHg2x7WCrQ0H1RXlUAOQnV2DeRsk0ISK9YtGhQTJl50RKfYHD1qUl1dCx+eDzzGk/Ti5RVrJZWdEin31dxo12ZCkKxAaLTI8hiRFSko+/EUiOHMV+sVZpBj6KmpRJElDhWEBynN0hQu/FDlXqgEAuvLDeOPtQ/CaOR+j9U+tNFFJkJKlQtX1HFTqAFQn4oN1R+A5ZSYesjVfZ46DI+w5JcjNafplA2VtLZQAuJY2sObKUFGhBiDD2TWzsfa8CiEiEaw5DnC056AkN6fpNxGUtag18W0pihQJsl0iIPLhte4jbREkaRUIEYlgqatCpiQHcgCwDUJEoAM6OTjBjmsLOxugJC9Xvw91yE1KR7lOgRRJNjo39iEA6Le5RIjgwzOMX6YKsqJCyHQAZKex5oPfDX3TMq0iRYLszk0xgzbr08G2t5Wf7whXFz5Kc66gGgB05Tj8xts45DUT80c7tYy5DsRnx2OOAwdHe3BKctE03ErUGipufs5ocPVqASw8POHMBQDzx2rOXIy1qn/zeGh2DADQlpejUscHXx/IWDPvYyRrQiHWd4TZ+cS1soUNpxoV5Q2xPA8bJBqEio3L4cBWH2zI1Qcb6nKTkF4OWNnagFNdAf0hzmLNvA2QNCu/rVhssc3svDGRvr3xV2Vi26KX8f7RyoajMQzDMPcBtui/S3gB07ByYSSyVvSCu50dbBwCMfpzJSZt24MVvfQLlLy0LKiEcYa7koA6IwO5HmLENP1FNnDAsEmjwN01EwkJMej3agF6DglCUHQMPLiAJi8NWaoo9IwSALBA6IB+8Dy/Cg/3jkbfRQWIf6i7UVoh4hoKrc1Axo2u6BndWT/4qktIv2oDUWwo+Jo8pGWpIIxreC9BjYyMXHiIY/R/8J1HY+7sLjjyQk/EDx4IkXg6/ur1CXYsi2u9GMqVIK26K9zSX0bPmL6IFY7FLp83sXVpPDq1U2eu6zjMnu6EPZNj0HvocAyKDUH4U9tQpAXgNAJTxgqw67l4xEcnYN4VEQYHeyNKHAAe1xXjZk+H057JiOk9FMMHxSIk/Cls+//2zj0uqjr//y8umtwRBbkKgoACAzMDikjlJS+7lrf24tqWpmX+Kq3Uxa3NS+uWtbpZ2363Nk3dcrtf19yytbzmekEYLqJSgIpyG5QZBGSGubx+f8xwmWHmDChtrX2ej4d/+Dmfy/v6Oe85nEuV/csHjagoPgND2mik9XNgI8NJnKwIhTIjCh7mC/h8xQQkKSdi8s1p+NkH0Vj99HxEeYZg1gO/gu+HCzDq5tswTi7Hz14thdlYgeIzhi42BGBtSxudhn4AjBVFKPXKxsiiRcgYfQsy5LPxftQ6i21s+lrl7BIzcCpPD3V3Nt49CDMfW4phe/4fRmfdhgkKJe77zxj839urkTnAPuZ6Ep89jDm4I/jOpbhv4EeYlzEWk6dOxKjEFPx6RxVMLnPGE3Ejh8PwrycwccJsPHvMKDGXLVIx1k3+rvFgN0//pPG4New41v90LNJvWYnKrJ9gxPB0ZFgMIZ1PAVNw1wx3vLs4G9kZt+K3laMxafhwpGeE2m3M7giZ9QB+5fshFoy6GbeNk0P+s1dRagYCptyFGe7vYnF2NjJu/S0qR0/C8I71nceiTZtU3jjq78L/pov/xtaXP0BenaN3sgoEAoHg+8KN5A/p6z//8+jqTqOwVA1jQAxSUqIRYF8l9BgTtOV5OHUlBMmpMS7mMaOxIg8lmmAky131vV5MaDxXhOLKVgTEpUEWYX/jhIWmt3+OmD/EYpdqNcKKC1EzIA6KlLAuPw5cyWxEQ5kKJVV6eIclIDkhpHOsWYuyE6fQFJKM1JiAboWYsaEMqpIq6L3DkJCcgBD7XyS9xdyMyqICnNcPRqJ8BEK63Ml0tboYqrIm+A1LRUqUb+9+RZu0qFCdRJ3XcCiSQ7v9cHKKhDw90l1ivKnxHIqKK9EaEIc0WUS322I66U189gBjA8pUJajSeyMsIRkJDgV3RDMq81So9IyFMi3C8qxJj+eSiLFeYG6sQF6JBsHJcsT01hAmLcrzTuGKk1i24Wo1ilVlaPIbhtSUKPhag82kLUfeqSsISU7t/fpd6FHsdNDH/hcIBALBd44o+gXfAW04kpOG2ytW4eyHv7beFy0QCAQCgUAg+L7o1YVJgaBnGNHcPxZ3Th/Tu68FCwQCgUAgEAi+E8SVfoFAIBAIBAKB4AZHXOkXCAQCgUAgEAhucETRLxAIBAKBQCAQ3OCIol8gEAgEAoFAILjBEUW/QCAQCAQCgUBwgyOK/j5Fh7qyMtTp7JqNDThbWtX5tcs+onnXUoyavgklRvsjPz6Mp17CrIwH8UmT/REpWnD6s9fxcYEW/5XPCLWcxmevf4wCrWU1Sf/Z9f2hICmzQCAQCASCHyyi6O9DzFVbMFc+Ey8Uttm0N3/8MEZNXIMD9j8Gros2FO3fg/L+oYj0tD/240Nz5Avsu+qP0C4fmnKJ7gA2PZiDzYcv47/xCivdgU14MGczDl+mS//Z9v2hIC2zQCAQCASCHy6i6O9D2vJVON0/BYrk/l1bcSq/GLqRSii6NgOAXgO1Vm/XaE8btHV1aLS/smq+hHxVFYYrFb17F75Zh4b6RnRO14ZGdQOuOrmgrNeo4VhEPTQ11ahvMdkfcIxZB41aC9ufQz1BD22tk3XaGlGnboIRehTknoRHigJdTa/X1qK6vgUORloYMA1bzqvx+cNxdl9C1UOj1qK72npoamqg6XbAhJb6GscymlvQoNHBDGDAtC04r/4cD8d5dPgvPl0BX+ihUWts1rPp2zkZWho00HX4ypk8PdAdkB6vqek+3knMOex7rTjNCSd50Fv0WtRW18ORq3qEq/FO5e8tzmIQaNPWoa5HhnAWl65taW5pgKYz0Jy0SeSmo/5tWtTVdd17BAKBQPDfRBT9fYYRZaoiXElUQO7VpdmsgUp1HhFyBQa7A7qvfoOsOeuxdeVUJI+QYURELG5/+bTDgklXsg33yiMRp8zAyMQpWLXmHqTf8w/LwbZ85J8JQJoyFh5oxqcPKzH52QLrCdWE8lfuhKy9r+4r/CbrV/jj67/D1NSRSEmIxMiF76P06Eu4KyMZKclRiLr1GeTqAUCHr36ThTnrt2Ll1GSMkI1AROztePl0u4RtqPjwN7gtNgIjx2YjJSISY5Z+iEpHCui/wm+yfo6n/roME5NGIDV5KIZN2YQCPQBXMsOI85/+Dj9JHIaUm7ORHBmLqc8dsd4idRXFW++FIioWyvRExI//f3jl63okKBTwBmA8/yl+95NEDEu5GdnJkYid+hyOOLi3SrdnOUZN/ANyje02moP1W1diavIIyEZEIPb2l9Gutvbwc5ieMBQpN2djZGQyfrPXUo5dPfl3LBozDMMzxmFUXDTG/PYLADp8sSwTP1/zR9yVFIrgqDl4Q6PDnuWjMPEPuRZ92/KRfyYIw4zv4mfyJKQlD0XMpD9BZfVB1766L5Yh8+dr8Me7khAaHIU5b2icytNT3Z2Nb6v4EL+5LRYRI8ciOyUCkWOW4sN259rEnIu+Nkj72lVOSOZBO+YqbPtVCn75WmXHrVqNny5Fxtjf4WAbAON5fPq7nyBxWApuzk5GZOxUPHekGWjZhSWyaAyNikJUVBSiojOwcp+DUtvZ+B7I34m0HVzFIHQl2HavHJFxSmSMTMSUVWtwT/o9+Ed991/sjuPShS11X2BZ5s+x5o93ISk0GFFz3oDGUZtUbjrsr0PJtnshj4yDMmMkEqeswpp70nHPP+ptZBYIBALBdwwFfYSGb8wOZOQDu6nr2qz7nIsiA3nnm1qSBhatTad3QAwnr91PtUnHA4/G02v8Czxv6jqIZMsh5siCOOqJg7xsIjWH1zDL35OxS/eRJA3Fv2e632S+UmMi9UeYMzKAM7Zftg6+wrd/EcS49r5Fa5nuHciYKU/x4CUTmz6ex1C/KCaMe4DvnzXQULiGCi8l1xYaSEMR16Z7MyBmMtfuV9OkO8BH4704/oXzJMmmAzlMDVLy0X9dpIFkS+4qKgfEc9khfYfo7RiKnmL6AB9G3raG+9UmGsuf560+0XzwS51LmVuPrGJ6cDqXfV5FI0n1thkMCFvIXa1k8/7lTArM4OMHLtNEDQ+vzWaAZwTv/1xHth7hqvRgpi/7nFWWgZwREMaFu1ptZCMNVK1Oo/+0LVR32CiAMZPXcr/aRN2BRxnvNZ4vnDeRhmKuG+XHzHVFbCVpqC1jhcZEavdwSeIgZq89Qg1JXinkRzsLSYOKq+Ve9AvP4pJ3CllWUcUmg4qr0/w5bYvasnrx75ne34+REx7nnlojjWUbeYt3DB/6SmcZ39HXQNVqOb38wpm15B0WllWwSuNEnp7q7kyfpgPMSQ2i8tF/8aLFuVylHMD4ZYc6ZW6PORd9bZD0tYuccJEHnbTw/bmDOPT/7bHm32W++fPBjLxvF5vZyiOr0hmcvoyfWwzDbTMCGLZwF1tpYMsVLTWa89z5UBKDx67j8Ra7qV2Ml5S/K5J2cBGDbOGhHBmDRj3BgxZDcE2WPz1jl3KfzYZD53HpwpYG1WrKvfwYnrWE7xSWsaKqyWGbVG466t9yKIeyoFF84qA1X9dk0d8zlku7CS4QCASC75IfzZX+q3UV+Ka0FKWl36CspldPe/aMtmLknzQiWSlHvy7NpnMqFDXEQyn3BdAEVcE38FQ+ir+sHodgdzf07++Jfr4B8LPzRP1Hm7BNMxtrfncLgtyBwIxpuCXSBynKVABAs0qF8kgF5EHuMGsKUHgxFnKFv2Vw2ymoSkxItvZtUhXgG08FHn1pFW4Z5I5+A/rDQ++D29dtws9jPOHW7yb0c/eGn58b0KRCwTeeUD76F6weFwx3t/7o79kPvgF+gPkC/rF+C1rmbsT6aRHwBOCdkoEUvxqcr+z+R/vmwkJ8OyATOS+vwbhgd3iExyHGuxGaBpO0zOY6vPPcy6idtAT3Dq3HsX9twfrtx3DTqGykeNbjwz//HVd+thZP3hoEdwQi4ydjET4gGelyD9S98xxerp2EJfcORf2xf2HL+u04dtMoZKfY31t1BaqCc4iWyzGww0ZKPPqX1RgX7A63/v3h2c8XAX7ugFmDBq0BTRfLUaMDPIfEYVggcOHtP+Efxrn4w8oxCAQAv1TMnp4KXFGhoMwDqY9sxgtzUhE3LBy+V1QoOBcNuXwgYPXft/1lePilP2DSEA94RMRjmI8WDZdNlvEdfa9AVVAGj9RHsPmFOUiNG4Zwb8fy9Fh3Z/r8Yz22tMzFxvXTEGFxLjJS/FBzvrJDZkvMue5ru5yEr13khKs86KQ/EuKHoqH8W2jNgPn8O/j7l8H41cJJ8Kp7B8+9XItJS+7F0Ppj+NeW9dh+7CaMyk5Bf3jC288XVz5biUd2JuK5Hb/DKG/bmc2S46Xlt5lH0g4uYrD+I2zapsHsNb/DLRZDYNotkfBJUSLV5jkWs9O4dGXLK6oClHmk4pHNL2BOahyGhft2bwttcZ6b/R3N0YqPNm2DZvYa/O4Wa75OuwWRPilQ2gouEAgEgu+YH0fRb67Euyt/iTlz5mDOnDm4d+MB+x7Xjbm+EEVVQ5EmH2hj1Ob8fHwzMBXKOA+grRh5JZ64beE8JHoAQBNKTlUhOlUGvy5jAB2O7T0KZk/BeOvN0+baY8itbC8Y2lCUVwIPmRLJ/QGDKh+nvVOgiLc8XWmuz0Xehc6+xXkl8LxtIeYlegAwobqkFBrZXCwc62NZreQkKoKSkBLugbbiPJR43oaF8xIt97k3leBUVTRSZX5AyyHsOeaNcT8di466qOUSLrUGISTE9q54oA0n80vgMWEB7kmwHDNrqlB9NQRhYZ7SMl89gN0HW2HMexEL5j+EVa8egvusLTj41kJEtx3Gl18D2VPGW+8rN6Mu9wQqo+SQB+lwYPdBtBrz8OKC+Xho1as45D4LWw6+hYXRdqGuL0J+ST+kKEbCs5uNgKaSU6iKToXMD0D/sVj+/CMY8tlcyJJvxx/2qmFGEw7uOQavcVORZVck6ovyUdJvMhYvSkH7866WthQoRnp2+M994iLcl2LVX1uDGqttbPpa5Zy8eBGsXZ3Ic7Xnujsc34JDe47Be9xPMbbTubh0qRVBISF2Meeqry2SvpbMCVd50BVPxI6Ihef5b/GtUYdjL7+CvFEP46HMm3D1wG4cbDUi78UFmP/QKrx6yB2zthzEWwuj4Q5AV/A85q8oxu2bt+DeWPs4hvR4SfltkbSDixjUHduLo8zGlE5D4FhuJWLlCthawllcurKlHkX5Jeg3eTEWdQSagzap3HR30F93DHuP0iZfa4/lojJWjm4uFAgEAsF3yo+j6HcfigWvn4CqoAAFBSp8vekO+x7XjfH8OVxkCMLDur7W5DL+veswPMbehjE3AebafBTVjkDmmADLYX0B8kv6IVk+sqM4BACYG3D2XCNCY2JguUZrROnb7+K4twzKeE/AXAtVYQ0SlAp4w4QLRSVoGJ5qveJnxJkdb+OoV2ff/KJajMgcA8uqeqhUZxCkHA1L7WHEadVJ6JPToehnRm1+EWpHZKJTxHyU9EuGfKQnTPXVqGsbjPDwTmk1e79CvtcYjE+3u2pnvoSCwmokjh7dUZRo9+1DgX8Wxsk9JGU2VZ9FpV6GpZ/kIS/3MPbufAPPL5+ORB/ArLmAiy2hiIm2Xr02foN33juOfikKJHtU42ylHrKlnyAvLxeH9+7EG88vx/REy4+brphrVCiqS4RCMcChjQryS9AvWY6RngDggajpf8Te07nYJC/CM49vxpm2elTVtiEsaqit72BGjaoIdSMykWW1YUdbogKKAZaCTVVYjRFjshBk7aHdtxcq/yyMk3va9LXIOQKZnZM5kafnujseX4/qujYMDg/v1EezF1/le2HM+HTbmDO56GuDdHxK5oSrPLBjQHwiomrL8c2p17B2uxvuW7sAwzxMqD5bCb1sKT7Jy0Pu4b3Y+cbzWD49ET4AzJe/QM7dm2B+5B/4008HOdgQXYyXkt9uHik7SMegGQ1nz6ExNAYx7WFf+jbePe4NmTLedh2Tk7h0ZUtzDVRFdRiRmWVdHw7bpHLTUX9zw1mcawxFTKfgePvd4/CWKa37j0AgEAj+W3Q/xwmuCY/QMAxBIf75Zh40ZsDccg5f/fFerNgVhv+3fDYGAtCpVDgTlApllOVKnqlKhaJ6a+HZFXcv+Pq4obFeDQMA7dENWPaSCsYkpaVo1KmQfyYIqcpoeMAEtfoyzJ6e8HSz9v1Lvk1f1ZkgpCqjLFfujaVQFeuQlK6w3oakQUHBeUQrFAhy11l+EKQqYRHRhCpVEeqtBahHYDAGe9ai7JtGAIBZ/QWeeno3whcvx0zLXSudtKlQcLoNDefKcNkMoPEw/rRpD8LmL8ZPfKVldgsIhL9bDSrKOp9A1Tc3Qw/AfYAPvN21qK83ANDi6IaleP54GxIVCni7BSDQ3w01FWWd30TQN6PZwXOZugIVSgfLoIj06G4jUxVURfVIVCgwwNyAElUZWgDAdzhkcQG4KWAg/Nx94ecD1JytsBzDVVTkFUNt1qFAVYpBHTYEAEvbYJkCkR5W/5W0QVt1AVozAO3X2PCnf1ttY9tXV6BC6aDOmIFTeXqou7PxnoEIHuyJ2rJv0AgAZjW+eOpp7A5fjOUzB9rGnIeLvjZI+1oyJ1zlgR2ewxMRiwL85d5ncG72s3g8yxuAGwIC/eFWU4HOcNKjuVkPGMvx90X3Y+fIjXh9pQIOppQe35ucdmEHyRiEO7x8feDWWA+1xRDYsOwlqIxJUNqv4+YkLuHClroCqEoHda4Px21Suemov7uXL3zcGlFvERxHNyzDSyojkpQWe7eV7MDKhzdi7+XuDyMLBAKBoI+xv8lfcI2YGrhvzTiG9nNnP29fDvBwp0/MZP72n+doIEkaeHLdKAbN2Ea19QG/1n/OZ3jcEn7V7Xk2Ey++NZdRPuFMG5tO2a2LuXqejMkrvqaepOHkOo4Kms6tdZaJNJ8uYqxXMJMylUy5ZTHXLpTb9Z3Bbe2Lat7grKA0rsq1SEX9fj4SH8Z7PmomDSe5blQQZ2xT09K7lf+cH864JV9ZH47UcN+TmRwUGMsxE8czNSKCGQ+8ydLuz/DSWPIHjvIewZvHxjBacTMzYoIZO/NFnmi2HJeSmSY1dz2SysDA4cyaNIUTMhI4fMbLLDeSNNXwvXui6RMq4xhlEsfMz+FdyTF8YLeOpInqXY8wNTCQw7MmccqEDCYMn8GXy4120hlY3MUX3WzU+k/OD4/jkq90pKGAGydEcqhiAidlJzBs2DRuPNpE0sTq9xcy3ieQ8dkTeWtaPOWL3meNvtjOhu0Pzna2GYrXMXPoeM6+JYYx6TczPXowY2f+2WIbm762clrmci5Pj3R3Op7U7HuSmYMCGTtmIsenRjAi4wG+aXVut5iT6GuPc1+7ygnpPOiG/hifSOlPX0UO92o6m03qXXwkNZCBw7M4acoEZiQM54yXy9my50EO9fDgAP+BHDhwIIMGJ/HRL7slo9PxRpfy2+LcDi5ikKTp4lucG+XD8LSxTJfdysWr51GWvIJfdzOEk7g0SdvSUGy3vpM2qdx03P8i35obRZ/wNI5Nl/HWxas5T5bMFV/rSRpZvmkcfULm8K2uYwQCgUDwneBG8of09Z//eXR1p1FYqoYxIAYpKdEI6H6LcA8xQVueh1NXQpCcGuNiHjMaK/JQoglGstxV3+vFhMZzRSiubEVAXBpkEY5uHwGa3v45Yv4Qi12q1QgrLkTNgDgoUsK6XE11JbMRDWUqlFTp4R2WgOSEkM6xZi3KTpxCU0gyUmMC7N6xDxgbyqAqqYLeOwwJyQkIsb/o2lvMzagsKsB5/WAkykcgpMudTFeri6Eqa4LfsFSkRPn27k9nJi0qVCdR5zUciuRQJ1eaHSAhT490lxhvajyHouJKtAbEIU0WAcfetdDzvq58LUVv8kACYwPKVCWo0nsjLCEZCQ4NI8H1jgeu0w6ASVuOvFNXEJKcihgXgx3HZR/ZUio3HWHSojzvFK44yVeBQCAQ/HcQRb/gO6ANR3LScHvFKpz98Ned9wgLBAKBQCAQCL4XenVhUiDoGUY094/FndPH9O5rwQKBQCAQCASC7wRxpV8gEAgEAoFAILjBEVf6BQKBQCAQCASCGxxR9AsEAoFAIBAIBDc4ougXCAQCgUAgEAhucETRLxAIBIIfL2YdtJpmGO3bBQLB94AeTdqrMNk3XxNm6LQaNP+QklvfBO3VvtHuWhBFf5+ih7q8DLVX7dt/QLScxmevf4wCrRlAM3YtHYXpm0p+WCc842WUFeThxIkT1n95OFVzrUb9DnXUq1FeVgudffv3jhGXywqQ12G/E8g7VWPfqcc071qKUdM3oaTPDehczpbTn+H1jwssXyy+Hpp3Yemo6dhUYgTQgtOfvY6PC7S43ml/LBhPvYRZGQ/ikyb7I/9lbPzYd2j2r8Ok2KFIViTjJxvP2B/uAd/h/vJd8B3Z8fvj2u3/3e1rPxz6bB/tEbb7q7R9ne3Fjdi3LAOpC9/DheutizX7sW5SLIYmK5D8k43IP9lHtrDLoV7ZuHEflmWkYuF7F/roR03vEUV/H2Ku2Ypfp92B5wva7A999+gPY8Ndi7H1jHQo6Q5swoM5m3H4MoG2IuzfU47+oZHwtO/oEj0Ob7gLi7ee6ePgNaNq86+Qmj4aY8aMsfzLugULtlbYd+wZVh1vuiYdpTCjeuuvkXbH88j/HtwthblqM36Vmo7R7fYbk4VbFmy179ZD2lC0fw/KbwpFZN8aUEJOHQ5sehA5mw/j8nW+W6ytaD/2lPdHaKQnoDuATQ/mYPPhy7jOaX80aI58gX1X/RHa5QNu3wc2fuwr2o5j4yMvwrT0IM6eO48vc0bY93DNd7a/fDd8J3b8Prnmc5h1X+vf9/vaD4e+20d7hM3+6sK+TvbilkPPYOWBCfjblnmIua6v+LXh+MZH8KJpKQ6ePYfzXy5F7Z/7xha2OdQbG7fg0DMrcWDC37BlXsz39pFCUfT3IW2qfJzqJ4NS1t/+EABAr6lBdX2LwyJZr6lBjUZv39ydNi3q6hq7XdUwnvoCb+06B+NAN7sjAMwtaNDoYAYwYNoWnFd/jofjPGC+lA9VVTzSFb6AXgN1T9Zvx3gKX7y1C+eMA9FtRb0GNdX1aHGgqGs925B/4iT6z/w7LhmNMBqNMBqu4tiqlM4uei1qncxvaqlHTRcbW3RMgFLpC7POmY5t0NbVodHeqJK0QZV3Cv1kSnRzt14DtdbBOnoNamo06HbE1IL6Gsf6XAtt+Sdwsv9M/P2S1X5GA64eW9XZoRf2g/kS8lVVSFAq4WvWQaN2IP812U9KzgGYtuU81J8/jDi7nVGvUcORaR3nhRmX8lWoGq6EwhfAgGnYcl6Nzx+Ou4YN14SW+hrUOzCaVF4DZrQ0aKCzuQrkoM2pT/TQ1NTAYdjCDJ1GDa3DH516aGqqHcrbgbM4bWtEnboJRuhRkHsSHikKJHeNcaeyWnE2bzd6Gjd2frTSpq1DnbPBznKtC6azX2FfRSpm/jwBturVOvFn9xjo0f7iMDbbkfKvHddtd8d2lJSvB3YE2tBYV4dGh3HoGuf2tsOB/hb7D4fSRqGuOIkx6742XKno3bdkzDo01He1VRsa1Q246uwqr1Of9CA/rTg9Zzqwhy293UedxWL3uO+ky17WdX+12jc+XQFf6LufNxzuxTpc8Z6KFz/cgKmDrrM0NZ3FV/sqkDrz50joj2uwhbO8sM8h5/N2Q3cF3lNfxIcbpuJ61bsuKOgjjCz5Qwa9M9fzjNH2iL78A66YOIyDhsQwJiSAoZlL+MF5ayfN13z2jniGhMdy2JDBTFrxFXW2w6208uTW+UwLDmJ4ZBhjJz/J1XcrefeOGpa+NJ2xwb709PBlcGQUExe+R7KVux8bzZ+tfo5zE33p7jOD2xta+e9lGZyw7jgNJFs/XcDwoXP4+7UzmRYbxcG+obxtY751/SbufEjBSetVNJAkjSx7eTZT7t5BY+lLnB4bTF9PD/oGRzIqcSHfayCpL+cHKyZy2KAhjIkJYUBoJpd8cJ5G9kJPQxGfUnpx1NMllnE2x85x5xNTmRAWwbiYYAYOncJn/9NkOdZSzO33ZzIqdCjjo4cwInMldzdYdIyI/hkfXzaJI6IjONA7jD95qcSqE9l6civnpwUzKDySYbGT+eTqu6m8e0fXVR1jOMl16d7MXH+GRpKtX67gmF8+w9dypjApJoIDvcM57a+nrDpo+PWzdzA+JJyxw4ZwcNIKfqUjyRYWb7+fmVGhHBofzSERmVy5u8FuIROrt89l8qy/sqzdIFd28ZH00czZ68iCBhY9paTXqKdZYm/Aa7AfWz/lgoho/uzxZZw0IpoRA70Z9pOXWGI14DXbT0rO1n9zWcYErjtuINnKL1eM4S+feY05U5IYEzGQ3uHT+NdT7YOc5YWaZCs/XRDOiPs/o45k67+XMWPCOh43kM2fPsyUoVGMjIxkZGQkh6bn0KE5SbYUb+f9mVEMHRrP6CERzFy5m3SR1627H+Pon63mc3MT6evuwxnbGxy2SflE8/WzvCM+hOGxwzhkcBJXfKUjqeOXK8bwZ2v/j49NSGR05GD6hU/m86p24fUs/2AFJw4bxCExMQwJCGXmkg/Yvt1Ix2kLi16bT3mIxZYx4+7l7GSvjhiXklV63u70Lm5s/cjWk9w6P43BQeGMDIvl5CdX827l3dyhNknkWleMPPu32YwL8WM/Dx8OjozhpOcK2XpuJ5+YmsCwiDjGBAdy6JRn2ZkejmNAen+Rik1n/nVAn9ndzo6S8vXEjmRL8TYuUA7hoIhIDom6hY8s/yUV7X5s2smHFJO4XmXdLIxlfHl2Sof+Bgl72yCl/6cLGB5xPz9zIJtkjLV+ygXhEbz/M53kuc7S90uuGDOHz/39CU5JjmFYoC+HL3iPZ478mXPThzNysDeDsp/mcasM0j6Rzk8bnJ0zJexhQy/2UWex6DTuHexlXfdXi32Hcs7v13JmWiyjBvsy9LaNzG+3Ude+PbSJqXo75ybP4l87T4Tc9Ug6R+fstakljGf/xtlxIfTr50GfwZGMmfQcC5t6bgvpvLDfi7rM2/wpH04ZyijrOSVyaLrlHC1VF30PiKK/z9DyH3cGMvKB3bbFbNMB5qQGUfnov3jRQLIll6uUAxi/7BBJA4vXjaJf5joWtZI01LKsQkNT1/FWWg7lUBY0ik8cvEwTNTy8Jov+nrFcuk9Hk76Bny6K5sA7/85qjZZNOhNpUHG13It+4Vlc8k4hyyqq2GRQcXWaP6dtUVvW/n06+/tFcsLje1hrNLJs4y30jnnIsrnrjzBnZABnbL9sleAK3/5FEOOW7iNNejZ8uojRA+/k36s11DbpaGITD+SkMkj5KP9lUZS5q5QcEL+Mh/Q915MNr3Omfzjnf1hHjUZDjUbLZj1JtvLIqnQGpy/j51VGkmpumxHAsIW72Eot9yxJ5KDstTyiIckrLPxoJwtbrToOCOPENfupNul4aFkCvca9wPMmki2HmCML4qgnDvKyidQcXsMsf0/GLt1nL1V3NG9wdmAkH9itsxSwa9PpHRDDyWst6xx4NJ5e4y3rGIrXcZRfJtdZlGdtWQU1JlK7ZwkTB2VzrUVoXin8iDsLW+1XYuvH9zAkZB4/sR5qeHcOQyLm85Mr9j1JsoGvz/Rn+PwPWafRUKPRUNusv0b7kYbi3zO9/wCGTVzD/WoTdYeWMcFrHF84b7o++zmVkzSoVjPNfxotYVrEteneDIiZzLX71TTpDvDReC+Of+E86SIvaCjm79P9OPmVGppooGp1Gv2nbaGaJA0tvKLVUHN+Jx9KCubYdcfZYiugBe0eLkkcxOy1R2gxTSE/2lnoMq9Vq+X08gtn1pJ3WFhWwaomR20SPjEUc90oP2auK6IlZcpYoTFZfhSnD6BP5G1cs19Nk7Gcz9/qw+gHvyRJNh3IYWqQko/+6yItYq2ickA8lx3Su4zT5v3LmRSYwccPWG25NpsBnhG8/3Odi/iRnrcbvY0bGz+28FCOjEGjnuBBy2CuyfKnZ+xSWlzuONe6oddwz9IEBtzxKs9rrrCl6QhXpQczfdnntKi3jTMCwrhwV6vzGGjfQ53sL65i06F/u9GHdrexo7R8PbJjy0H+JmUgRz/5NTUktcee5q2B/Tjs4b0kSf2RHI4MmMHOU8jb/EVQnEX/Vgl72yCtf/Hv0+k3+RXWdJNNOsYMxb9nut9kvlJjkj7XkTQUrWW6dyBjpjzFg5dMbPp4HkP9opgw7gG+f9ZAQ+EaKryUXFtocJlj0vnZFWfnTCl72M3Q033UWSxKxH33vcx2f7WcN/wYOeFx7qk10li2kbd4x/Chryzny659e2yT1o95T0gI53WeCDknJILzu50I9dTsWcqEgDv46nkNr7QYem4LF3lhn0M289LAlitaajTnufOhJAaPXcfjLVJ1kZ3Y/yV+NEV/S205S8+c4Zkzpfy22j5I+gD911ye4MufvFrXpZg1sfKVqQyMe5hfdVQUrfxkXjB973yTpJ4HH4vngKQH+HGFfcp2Rc0dswcx8r5P2f57Xn90JZPaN1TTOb4wzoejnznd+evx8jZO9/Vl9nPFHVe1eXkbpwfI+LtcA0kN35jlT9+xz7LY2qH1k3kMDvwV32shTbWvcIqfgmsKrAf1R7kyqX1jNPHcC+PoM/oZnrYuaKp8hVMD4/hwp6KW+Xzv5JstPdWT1O9/hHH9fBnc/ms5Ko7T//It22q3c2ZQBOduL2RJwWHu2vwYbxkSwhlbz9FgXXvJXvuyzaJjwMQ/s9RIknoeXpFIvzu2sYGkesdsDoq8j592GrWLjtLoDzzK4b4/4at1JmsB60f/CS9Y/8qj55GckfS3rqM/+BjjByTxgY8rOjdmUyVfmRrIuCV7HRebXTCeWc8xPtncUGYkTRf56rSBTHj0QLdNniSp389H4vrRN9hqv8goxk3/C0urrsV+pOaNWfQPmMg/WwxI/eEVTPS7g9sars9+zuT81khe3jadAbLfMddg/RHo588JL1ivNuuPMGekP+/Y1uA6LzRvcFbgSK48oid5mdumB1D2u9zOfDCe55tzYhg5eyvLHV52ac/fJbQ1jau8vsxt033pm/1cR245ajNJxLRJf5CPxQ9g0gMf0yZlNDs42z+QE/9cas11y7qBv3qvM6Ye/qozplo/4bxgX975Zot0nJrUfH12kK0tj+RwpO8UvlJjkpZVat52ObrQ67jp6kf1Ds4eFMn7Ogfz6MokBszYzsvOcs0Rplq+MsWPijUFNNDE2u0zGRQxl9sLS1hweBc3P3YLh4TM4NZzBicxQBf7i4vYdOZfO/rS7rb5IC1fT+x46R8/4+DIhdzZfjrVH+ZvEv15+2uXSJpY+8oU+inWsPMU0j6/lL1tq3dp/TV8Y1YgR648Qvv6yVWMad6YxcCRK3lE7+pcRza8PpN+/hP4gvVP+LrP72dE/xFcdqCZJGk89QxH+9zMP1UYXeSYq/zsiuNzprQ9bOnxPuowFp3tfXS4l9nvr5o3ZtHfdyyf7SwuOC84kL96r8W2b29sYjzD9WN8mL2hjEaaePHVaRyY8CgPdAvQ7rHXY1u4yAvbHLKblyRp5Pk35zAmcja3lhtd1EUdTf9Vvs87i/57mCvx7spfYs6cOZgzZw7u3XjAvsd1Y65XoaAqBgpFUJcHJVpwaM8xeI/7KcZ6d7ZdutSKoJAQAP0xdvnzeGTIZ5grS8btf9gLtaN7A3XHsPcokT1lvPX+QzNqj+WiMlYOhT+AtkIUlAZCJh/WcX+cvigfJf0mY/GilI4HnCxtKVCM9ATaipBX4o6Ji+5DiqdlTm1NDa6GhCHMEzCo8nHaOwWKeMtoc30u8i7EQm5ZEIUFpQiUyTHMumDLoT045j0OP+1UFC2XLqE1KAQhHj3UE2bU5BeiJukxfHH2Ai5cuIALlWXYuWQ49Ad242CrEXkvLsD8h1bh1UPumLXlIN5aGI2Wg3twzGscpmZ1rg3AqmM/TLpvHhI8AJi1OFlSjehUGfygw7G9R8HsKRhvvanTXHsMuZXtOkphRm1+IapjFFAEuQNtxcgr8cRtC+ch0QMAmlByqsq6DtB/7HI8/8gQfDZXhuTb/4C9ajPQdBB7jnlh3NQs2EndDY/oJCT4nkPpGQPaVJvx6hEZHngwGwPsOwIw1+SjsCYJj31x1mK/C5Uo27kE4V9fg/3QhqK8EvSbdB/mWQwI7ckSVEenQuZ3PfZzLudwDz2K8kvQL0WBkZ5AW3EeSjxvw8J5iZbYbirBqapopMr8XOZFW1EeSjxkUCb3B/RFyC/phxTFSGs+6FDw/HysKL4dm7fci1iH92M24eCeY/AaNxW2pnGR19a1Ji9eZM0tOGy7KhHT7v3HYvnzj2DIZ3MhS74df9irhhlA28l8lHhMwIJ7Eiz2MGtQVX0VIWFhQMsh7DnmjXE/HdsZUy2XcKk1CCEhHtJxqjuML7+GjS3rck+gMkoOeZC7tKxS87bL0UHv46arH3XH9uIoszGlczCO5VYiVq6Av7Ncc4ShAKrTXkiWx8MTV3Fg90G0GvPw4oL5eGjVqzjkPgtbDr6FhdEtTmLAxf7iIjbhxL/29J3d7fLBhXyu7ajD0b1HYM6eignWxcy1uThxMRrytAAABqjyT8M7RQHLKcSM+tw8XIiVQ+EvZW/bkkRa/yLklXhApky2eSbDdYxZ9jUPmRLJ/V2f64rzSuB520LMS/QAYEJ1SSk0srlYONbHslrJSVQEJSEl3EWOucpPGxyfMyXtYTO+F/uow1h0tvc53sts91eLfd0nLsJ91g5mbQ1qroYgLMzTtm9vbOIRjaQEX5wrPQNDmwqbXz0C2QMPIrvbidCAAtVpeCXLrbHXC1u4yAubHLKbFwB0Bc9j/opi3L55C+6N9XBRF3U0/Vf5cRT97kOx4PUTUBUUoKBAha833WHf47ppU+Xj9AAZlEldHlU31aO6rg2Dw8M73yyg2Yuv8r0wZnw6AMAjajr+uPc0cjfJUfTM49js4O075oazONcYipgY69ZmLMXb7x6Ht0yJeE/AWF6Ik82JkMv7tY9AjaoIdSMykRXQMYulLVEBxQDAXKtCYfUIjMkKsh7XYt9eFfyzxkHe34QLRSVoGJ6K1JsAwIgzO97GUS8ZlJYFUXiyGYlyOSwrmlBfXYe2weEI71QUe7/Kh9eY8Ui/qWd6Ajrk55+CT4oCiV3MCJhQfbYSetlSfJKXh9zDe7HzjeexfHoifGBCfVUt2sKiMNRmjFXHmhHIzLSelQxFUJ3ujxT5SHiaG3D2XCNCY2KsJwwjSt9+F8e9rTpKYpHTS6ZEkidgrs1HUe0IZI6xGltfgPySfkiWWwtMjyhM/+NenM7dBHnRM3h88xm01Vehti0MUfZCO6LfSIwcpkVZaSHefGYLmuauxgOWM0o3dPn5OOWTAoWNAa/NfjDXQlVYgxGZmdYiwoAi1Wn0T5FjpPv12M+ZnADMNVAV1SFRocAAmFGbX4TaEZnoNG0+SvolQz7S00VemFGrKkRNghIKb8Bco0JRXSIUigEAzLj8RQ7u3mTGI//4E37q7KkqUz2qatsQFjXU9s0gLvLastYIZHYmn4M2KZ8AgAeipv8Re0/nYpO8CM88vhlnTGZcKihEdeJojG6vj7X7sK/AH1nj5DDVV6OubTDCO5MQmr1fId9rDMan3yQZp+6aC7jYEoqY6HZbfoN33juOfikKJPeXllVq3m6R0Ou86+pHMxrOnkNjaAw6Xf423j3uDZky3mmuOdppTBeLUNKQCLn8JsBUjbOVesiWfoK8vFwc3rsTbzy/HNMTfZzHgIv9xV0yNuHEv11nh8sY6ZXdbezo+pzi0o7mBpw9p7Xx4+k338Hxmyy5CdMFFJU0YHhqKiynkDPY8fZReMmUiHeTsLcNrvRXobAmAUqFXVXqKsas+1qCUgFvuDjXmWuRX1SLEZljYLGyHirVGQQpR1v9aMRp1Unok9Oh6CftEzcX+WlP93Nmm6Q9bOjFPuowFtsk4r7bXma3v5proSqsxogxWeioLvbthco/C+Pk/W36utqzbOmHkSOHQVtWisI3n8GWprlY/YC1cO+K6SKKShqQKJdbYq8XtpDOC9scsp0XMF/+Ajl3b4L5kX/gTz8dBPce1EXfB07OdoLeYURZfhG0QyPgV1GCkpISnDp9Dg0MRPBgT9SWfYNGADCr8cVTT2N3+GIsnxmAhhIVyloAwBfDZXEIuCkAA/26vQsH7l6+8HFrRL3aAECLoxuW4SWVEUlKS7AZv/0Wlf1DERbU7k4dClSlGJSqRFRHRljaBssUiPQAdKp8lLRpUXXB8p5c7dcb8Kd/h2H+4p/AFyao1Zdh9vSEpxugPboBy/6SD2OSEgrLgvi2sj9Cw9r/quGBwODB8KwtwzcWRaH+4ik8vTsci5dPB3uoJ4ylyC9uwQil0u4qthsCAv3hVlOBsub2Nj2am/UA3ODr5wPUnEVFi+XI1Yo8FKvN0KnycWaQDIpIixFMF1UovmTdmNy94OvjhsZ6NQyw6viSqlNHKYzfIL+oGSOtcupUKpwJSoXSamxTlQpF9ZZ1zA0lUFmUh+9wGeICbkLAQD+4+/rBBzU42yk08oodX+2Dx1AkJfri1JYFWHViPJ5ePdHhlTzAiNL8YrSMUEJpo8O12Q86FfLPDIJMEWnZWE0XoSq+ZNnkrsd+TuUEoCuAqnSwdU2d5QTbEccmVKmKUG/94SqdFzqo8i1joz0AXYEKpYMtsWAs/zsW3b8TIze+jpVSwrr5wmKaClhMcxUVecVQu0nl9UDLWoM64wGwrm/TJuETcwNKVGWWNX2HQxYXgJsCBsLPrQ2qgtNoaziHsstmAI04/KdN2BM2H4t/4guPwGAM9qxFmSUJYVZ/gaee3o3wxcsxc6B0nLoP8IG3uxb19e22XIrnj7chUaGAt5SsLuK/G72Om65+dIeXrw/cGuthcflRbFj2ElTGJCglcs3BTgNdQQG+CU6BPNwDcAtAoL8bairK0KleMyzp4SQGzJY91Nn+IhmbTv3bIZ6VPrS7XT5Iyde/J3Z0vwkDBrhBW6+GAWZojzyLpZvyYBihgHwAAJMa6stmeHp6ws06/1/yrfpL2dsGV/rnW/SPtiv7XMWYToX8M0FIVUbDw9W5TqeC6kwQUpVRlj3QWApVsQ5J6QrrBS8NCgrOI1qhQJC7tE9c5WcnZie1gbukPWzo6T7a30ksukvEfbe9zHZ/hU6F/JI2aKsuWN5dr/0aG/70b4TNX4yf+Nr27blNAMADQ5MS4XtqCxasOoHxT6/GREcnQl0BCr4JRoo83OKzntqil+cUm3mN5fj7ovuxc+RGvL7SUpdJ10Uz0U29/xb29/sIroUWfnDXQLoDhPWf2003c+O3Rmr2PcnMQYGMHTOR41MjGJHxAN8stTxUV7BxAiOHKjhhUjYTwoZx2sajHfeR2WC6yLfmRtEnPI1j02W8dfFqzpMlc8XX1gcfi9Yzyy+A8VnjOWv9UeoNxVw3Kogztqk77/OzaTOweF0mh46fzVtiYph+czqjB8dy5p9P0HKXIqn5dBFjvYKZlKlkyi2LuXahnMkrvrbcO2ko4vosPwbEZ3H8rPU8qiep2ccnMwcxMHYMJ45PZUREBh94s5T63uipeYOzAxP42AH7OzRJk3oXH0kNZODwLE6aMoEZCcM54+VyGkmaqt/nwngfBsZnc+KtaYyXL+L7NXqeXDeKQdO3Um01Qus/5zMs9mHrWyhMvPjWXEb5hDNtbDplty7m6nmyTh2l0O7g7IHxfHS/xY8n141i0IxtNuuExy3hVzrSULCREyKHUjFhErMTwjhs2kYebSJpqub7C+PpExjP7Im3Mi1ezkXvWx4O6o6Rpc9lsZ/nUN79XrWTPrTcYzw7kAmPHeimQ+/tZ6Lh5DqOCprOrZ2KcX5YLB/+Snd99pOQ01C8jqOCZnCb2mR5Q5JNHLfyn/PDGbfE+hYLqbywjp2+tc4a7+0+0nHPg0Pp4TGA/gMHcuDAIA5OepRfOnj7B2li9fsLGe8TyPjsibw1LZ7yRe+zxkTJvO5cq30eR20SPjEUcOOESA5VTOCk7ASGDZvGjUebSGMJ/zDKmyNuHsuYaAVvzohhcOxMvniiI2u578lMDgqM5ZiJ45kaEcGMB95kqSVpJeOUphq+d080fUJlHKNM4pj5ObwrOcb6oLqErK7m7UYv48bGj6Tp4lucG+XD8LSxTJfdysWr51GWvIJf6yVyrRsG5q9Oo/9PN1se6qaJ6l2PMDUwkMOzJnHKhAwmDJ/Bl8uNEjFg1dvZ/iIZm07864A+s7udHaXk65kdTbz45q8Y5R1K2Rglk8fO4/zxgxnV8SILDT9dFEuv4CRmKlN4y+K1XChvP2dJ2dtuFVf6T9/Kum4bonSMdexr1oFS5zpLX+t+ROs93UFpXNV+E7d+Px+JD+M9HzW7zjHJ/OyK83Omc3vYzdDTfdRpLDqP++57mW2boXgdM4eO5+xbYhiTfjPTowczduafadmm7Mf31CYWjKXPMaufJ4fe/R6ru/ndgiF/NdP8f8rNluTuuS0onRf2OdR1Xt2eBznUw4MD/Ady4MCBDBqcxEe/1EnURd8fbiRdflJAcH2YGs+hqLgSrQFxSJNFdPlTnBnNlUUoOK/H4EQ5RoRI/L3HpEV53ilcCUlGakxAtz9pNVfmQVXpiVhlGiLs78GTwKStgOpkHbyGK5Ac2vUKkRmNFXko0QQjWR6DgO4LIk9VCc9YJdLaFzQ14lxRMSpbAxCXJkNEh6K90FMKYwPKVCWo0nsjLCEZCSFd5L1ajWJVGZr8hiE1JQq+Pfoblgna8jycuhKC5FQHOvYR5uZKFBWch35wIuQjQix/cgQAXEV1sQplTX4YlpqCKGdCG8/g/26fgD9HvYr/bJ6BYCfdXPI/aj9JXORFX3C1uhiqsib4DUtFSpRvx59Hned1L3DmE3MzKosKcF4/GInyEQi5CUDT2/h5zB8Qu0uF1WHFKKwZgDhFCsJsLuya0HiuCMWVrQiIS4OsMwldY9ai7MQpNDmzpTNZe831xY1JW468U1cQkpyKGLvBznOtC+Y6bL49EX8bfQDHf5/WcfuCsaEMqpIq6L3DkJCcANv0cBwDkkjFpiP/OqPP7G6HhHw9smO7H7XBSEq+jI2jJ+DEQ2X4/P8NsdjH3IiKvBJogpMht9ffhb1tuCb9exNjLs51fUpP81PinHlN9pBAIhavKe7bMWlRoTqJOq/hUCSHOnwGzUJPbWLEmf+7HRP+HIVX/7MZMxyeCM2o23w7Ev82GgeO/x5p9vcm9QSJvLgmnNZF3w+i6BcIumLW4lxxOS4ZHKSF2wAMSUxBVK++5nK9XMWJpydh6j8UePM/f8VP2m+S/MFihvZcMcovGRx89dYNA4YkIuW/a8AbhrYjOUi7vQKrzn6IX3feTivoMWY0lOej+Og2PLbkOGbtO4q18mupCgTdaNiG6cP+hJFfFGDDGNvHagWCvuDqiacxaeo/oHjzP/irgxOhuaEc+cVHse2xJTg+ax+OrpV3ex5BIIp+gcAG0/k3sHjeqzht/wVHAG4eQ/Grv+7AEtl/bysx1+/Ebxf8A4N+uwWP3/I/UOmZzuONxfPwqmMDYuiv/oq3l8jsjwh6wNU9T+IX78bjpVfvdf31R4EDmvHFqp/juRMDkXXfU1jzi0SJq4+C3mAq3YL7f3MBd7+zDrd9z1cyBTcg5nrs/O0C/GPQb7Hl8VusD1Xb0vzFKvz8uRMYmHUfnlrzCySK5HaIKPoFAoFAIBAIBIIbHEc3RQkEAoFAIBAIBIIbCFH0CwQCgUAgEAgENzii6BcIBAKBQCAQCG5wRNEv6BP0TVpc7fZFye8Z01Vomxx8uEQg+C7RN0H7g0sGRxjRom1Gm31zN/Roarzq8Mu2AoFAIPjfQRT9fUnzLiwdNR2bShy8ueQGRnfiKdyaPA9vXXT4Pdk+xIhTL81CxoOfoMn+kD3mKrx5VwpuefIgNPbHrpPmXUsxavomfO9u7ut4azmNz17/GAXa79CPfS3zd0jL6c/w+scFlq9K9pTGfViWkYqF7134zopk46mXMCvjQXziMgmkMKH0/27HiMkbkHfV/pgdl/+BuQlz8Hd1bwwhEAgEgh8aoujvQ9qK9mNPeX+ERv73Xun4vWM6hb8sfwWeDz2Le6PdAf1hbLhrMbae+S5KHg2OfLEPV/1DnXwsph0zat7LwXr1A3hjw+Q+/tx1G4r270F5/1B8327u63jTHdiEB3M24/Dl7+6FXtcusx6HN9yFxVvPfGfFtC06HNj0IHI2H0bPzdGCQ8+sxIEJf8OWeTFOPupy/XpojnyBfVf9ESqdBJKYyrdgxcs3YdU/1iDL1cf8/JKRHKzC4WOu/yYgEAgEgh8uoujvM8y4lK9C1XAlFF2+PdSmrUNdY0+uaprQUl+D+hb7UqAN2ro6SE1hbmmARmd7Fa57mx7a2moH81vo1r9Ni7q6RkgsC8CM+g//gBcrp+OJB5PhCcB46gu8tescjAPd7PpKrw/ooVFr4ehmnLbGOqibjIC+ALknPZCiSEbXz790l70RTcMexocfrYTiOt7V69B35kvIV1VhuFKBrp+Y0mtqUF3f4rSQ6yajA/QaNbSODOAQx/EGvQY11fVwauYO9NDU1EDTZb0B07bgvPpzPCz5EnjnfnJlA2cyO7SzPcZT+OKtXThnHIhukaWtdb6uuQUNGh3ssgO6hnqbnGprVKPhatdeAzBty3moP3+42zvxnfpJdwXeU1/EhxumYpCznVVKDyn7tTWiTt0EI/QoyD0JjxQFkjuSwPUeYY+b/wQ889mbWJzY5ceXs5z3DEd4cCPKv621PyIQCASC/yUo6CNa+emCcEbc/xl1JNl6klvnpzE4KJyRYbGc/ORq3q28mzvUJvuBbCnezvszoxg6NJ7RQyKYuXI3LVNs5fy0YAaFRzIsdjKfXH03lXfvsAxq3c3HRv+Mq5+by0Rfd/rM2M4GR2008NzOJzg1IYwRcTEMDhzKKc/+h03O5mArT26dz7TgIIZHhjF28pNcfbeSd+9Q28hMkjSe4Yab/SlfnU8DjSx9aTpjg33p6eHL4MgoJi58j5Rc/0uuGPNLPvNaDqckxTBioDfDp/2Vp4zW+VuK+Np8OUOCwhkZFsNx985mslcm158xXp/spovcOieZv9hynu3e0O5cwvSsJ3hA78J3rZ9yQXgE7/9MR5LUl3/AFROHcdCQGMaEBDA0cwk/OG9VwKGMXWnllyvG8JfPvMacKUmMiRhI7/Bp/KvVAE07H6Ji0nqqDJbexrKXOTulPYbs4k1fzg9WTOSwQUMYExPCgNBMLvngPNtN2RXN18/yjvgQhscO45DBSVzxlY5kK/+9LIMT1h2ndblOXPhJ0gY2XFuOGEtf4vTYYPp6etA3OJJRiQv5XgNpOLeTT0xNYFhEHGOCAzl0yrP8jyWwuPux0fzZ6uc4N9GX7j4zuL3BYus5z/2dT0xJZkxYIH2HL+B7Z47wz3PTOTxyML2Dsvn0cYtf2fpvLsuYwHXHDS791FPbO9ND2n4tLHptPuUhlpiOGXcvZyd7MXP9GRql9gjJGLf3tau8UfPVqT5MW62y/l8gEAgE/4uIor+vMBTz9+l+nPxKDU1s4aEcGYNGPcGDl02k5jDXZPnTM3Yp91lrig60e7gkcRCz1x6hhiSvFPKjnYVkyyHmyII46omDtEyxhln+noxdus+ynGo15V5+DM9awncKy1hR1eSwrfXIKqYHp3PZ51U0klRvm8GAsIXc1ep4jpZDOZQFjeITBy/TRA0Pr8miv2csl3YTnDQUrqXSJ5PPWIsfk76Bny6K5sA7/85qjZZNOpP0+kVrme4dwJjJa7lfbaLuwKOM9xrPF86bSDZz//IkBmY8zgNWG67NDqBnxP38XHe9srfw/bmDOPT/7bEUn7zMN38+mJH37WKzC98Zin/PdL/JfKXGRDYdYE5qEJWP/osXDSRbcrlKOYDxyw6RTnxkg6GIa9O9GRAzmWv3q2nSHeCj8V4c/8J5knoeyRnJgBnbedna/crbv2BQnDWGbOKtiQdyUhmkfJT/sgjC3FVKDohfxkN62yVpKOa6UX7MXFfEVpKG2jJWaEykQcXVaf6ctqX7jztJP7mwge1E15gjJj0bPl3E6IF38u/VGmqbdDS1HuGq9GCmL/ucVZbA4oyAMC60BDZXy73oF57FJe8Usqyiik1WWwfGTOFTBy/R1PQx54X6MSphHB94/ywNhkKuUXhRubbQIqpqNdP8p3GL2pWfemF7R3q4sF/z/uVMCszg4wesMb02mwGeEbz/c52LPUIixu187TJvTOe46VZvpj9V1KmLQCAQCP7nEEV/X6F5g7MCR3LlET2p3sHZgyJ536ftRZ6eR1cm2RRwFkysfGUqA+OWcG+LzQGqd8zmoMj72DnFUa5MCuCM7ZYZLm+bTl/fbD5X3HldtlubqZbbZwYxYu52FpYU8PCuzXzsliEMmbGV50wO+lPNHbMHMfK+Ty1X4knqj65kUsAMWpftgpHf/nEsvdNWM799uOkcXxjnw9HPnLZc5XSxfsPrM+nnP4EvnLH8aNAfyeFI/zu4rYE0qV/n7CBbGx7JGUnfKa+w5rplN7BwjYK+k19mrYk0nfsrJweO5G8O61z6TvPGLAaOXMkj+nbfPcyvOnzXyk/mBdP3zjdJR/6wp+F1zvTz54QXLFdtqT/CnJH+vGNbA2mq5StT/KhYU2C9GmsXQ13izVT5CqcGxvHhTkHY+sk8BvveyTft4or6g3wsfgCTHviYFa1d2i9v4/QAGX+X211W535ybQMbrilHSNLEcy+Mo8/oZ3jaElis3T6TQRFzub2whAWHd3HzY7dwSMgMbrUENqf7+jL7ueLOv1rY21r3Oe+P6M8Ryw6wmSSNp/jMaB/e/KcK0uq7ANnvmGtwMLaLn3plewd6SNrPpObrs4NsY/pIDkf6TuErNSYXe4REjNv4ugd5oz/Ix+J9OPXV7j8IBQKBQPC/g7M7TwW9pK0oDyUeMiiT+0N3bC+OMhtTxltvXDbX4lhuJWLlCvjbjGrCwT3H4DVuqt3DdDoc23sUzJ6CzimOIbcyFnKFPwA9ivJL0G/yYixKab8n10Hb1QPYfbAVxrwXsWD+Q1j16iG4z9qCg28tRLS7g/66Y9h7lMieMt56v7oZtcdyURkrh8JWcACtyMs7DX/laIxsF6GtEAWlgZDJh1keYpRcvw3FeSXwvG0h5iVabppuKjmFquhUyPwA3eEv8TW62rAOuScqESWXI+i6ZfdE7IhYeJ7/Ft8adTj28ivIG/UwHsq8yYXv2lCUVwIPmRLJ/VtwaM8xeI/7KcZ2+K4Fly61IigkxLE/7GgrzkOJ521YOC/RYq+mEpyqikaqzA8wqJB/2hspinh4AoC5Hrl5FzpiqGu8tRzag2Pe4/DTTkHQcukSWoNCEGJ/e37/sVj+/CMY8tlcyJJvxx/2qmEGoC/KR0m/FCg6nNmOlJ9c2cCWa8sRAGhDYUEpAmVyDLMEFg7sPohWYx5eXDAfD616FYfcZ2HLwbewMNrdqstkLF6UYrGdA1ubqktQqpFh7sKx8AEAXQlOVgQhKSW803cpCoz07D62q596Zftueriwn+4wvvwaNjFdl3sClVFyyIPaXOwRzmPcxtc9yBtzfSGKqiOQnBzQLqRAIBAI/gcRRX+fYEatqhA1CUoovM1oOHsOjaExiLE+aGcsfRvvHveGTGkt4Nox1aOqtg1hUUNt280NOHuuEaExMdYHVo0offtdHPeWQRnvCZhroCqqw4jMLHSchh20marPolIvw9JP8pCXexh7d76B55dPR6KP4/7mhrM41xiKmE7B8fa7x+EtUyLevhY01eL8RT2i44ejn7XJWF6Ik82JkMstLdLr1yK/qBYjMsdY19ejIL8E/ZLlGOlphubCRbSExiC6XZRv3sF7x/tZHuK9XtkBDIhPRFRtOb459RrWbnfDfWsXYJiHC9+Za6EqrEGCUgFvUz2q69owODy803eavfgq3wtjxqc7tK8tZtTmF6F2RCbGWDvoC/JR0i8Z8pGeMF0oQknDcKSmWl7RYjyzA28f9bLGUNd4M6G+ug5tg8MR3ikI9n6VD68x45He7Q0vHoia/kfsPZ2LTfIiPPP4ZpwxmVGjKkJdoqL7g89SfnJzYQMbrjFHAMBYjsKTzUiUyy2xZqrG2Uo9ZEs/QV5eLg7v3Yk3nl+O6ZbAsugyIhNZncnR3dYqFc4EKTHaGhzG0yqc1CcjXdGvw3eJCgUGOBrb4Se33tm+mx7S9jNrLuBiSyhiOpMA77x3HP1SFEj2dLFHSMR4V1/3JG8a9+9DQeDNmKDo+vi8QCAQCP7XEEV/n6CDKv8MglKViPZwh5evD9wa66E2ANAexYZlL0FlTILSvqJy84WfD1BztgItAICrqMgrhhpe8PVxQ2O9GpYpNmDZSyoYk5SWokxXAFXpIKQqozpfC+igzS0gEP5uNagoa27vBX1zs+XNKw76u3v5wsetEfUWwXF0wzK8pDIiSamAfS0INqO5xQ0DBwV3jDd++y0q+4ciLMgSVtLrq6A6E9S5vqkKqqJ6a6HljgE+3nDX1qO+3YZLn8fxtkQoFN7XLzsAz+GJiEUB/nLvMzg3+1k8nuUNwIXvdCrknwlCqjIaHh6BCB7sidqyb9AIAGY1vnjqaewOX4zlMwc6lNEWHVQqS8xEWQyAKlUR6q3FmEmtxmWzJzw93axy/AX5HTHUNd48EBg8GJ61ZfjGIgjUXzyFp3eHY/HymbavKzU3oERVZok13+GQxQXgpoCB8HPToUBVisEyBSLthZXykysb2E50bTkCAMZv8W1lf4SGBVk2LLcABPq7oaaiDB2RpW9GsyWwUKAqxaAOu1rabG1tRKmqGLqkdCisv1g1BQU4H62AIsjd6rvBkCki4dFtbFc/9cL2cKCHC/u5D/CBt7sW9ZYkwNENS/H88TYkKhTwdnexRziNcVtfu86by/jXRwfgO+3nmOANtJXswMqHN2LvZek3UQkEAoHgh4co+vsC41kUnW5D2ug09AMQMOUuzHB/F4uzs5Fx629ROXoShg9PR0aonbndQzDrgV/B98MFGHXzbRgnl+Nnr5bCjABMuWsG3N9djOzsDNz620qMnjQcw9MzEOoOGCuKccYgR6b1ijrguM09+E4svW8gPpqXgbGTp2LiqESk/HoHqkyO+yNgCu6a4Y53F2cjO+NW/LZyNCYNH470jNDugeLWH/37u6Hrewc940ZiuOFfeGLiBMx+9hiMUuufLcLpti7rG07iZEUolBmW4nLgtPmY3e9dLMrKQnr2MnyjuA3xEWlQxnhcv+wA4D0CSUNrUeZ+D1794+2w/k6R9J1F5jSMTusHIAgzH1uKYXv+H0Zn3YYJCiXu+88Y/N/bq5E5wIl9u2KNGXmm9aovDDh5sgKhygxEeQD9k8bj1rDjWP/TsUi/ZSUqs36CEe0xZBdvQTMfw9Jhe/D/RmfhtgkKKO/7D8b839tYnWlXQJsv4PMVE5CknIjJN6fhZx9EY/XT8xFlrkDxGUPHfF2R9pO0DewmurYcAQDPOIwcbsC/npiICbOfxTFjMO5ceh8GfjQPGWMnY+rEUUhM+TV2WAIbxWcMXezqyNbNOHnyImJHp1tfrdmGU8XfwkcxCkme7b6z+rnbWFs/9dj2cKBHmwv7DZyG+bP74d1FWchKz8aybxS4LT4CacoYeLjYIwAnMW61T4evXeSN6eyb2L43Avc8cBt8YMLFf2/Fyx/koU7U/AKBQPA/hxvJHn96RtBzTNpy5J26gpDkVMQE2F8+teVqdTFUZU3wG5aKlChfa5FqgrY8D6euhCA5NQYuppDAiIYyFUqq9PAOS0ByQojDK98dmLQozzuFKyHJSI0JcHKVGgA0+PuMYXg16xi+fsJ6rzOA5so8qCo9EatMQ4Q3er9+F8zaMpw41dQjGwK9kV2a3vjO1HgORcWVaA2IQ5oswnJ/eB9hbqxAXokGwclyl3LA1IhzRcWobA1AXJoMEc4EMTejsqgA5/WDkSgfgRD7W1CugWu1QW/sjOZK5Kkq4RmrRJolsGBsKIOqpAp67zAkJCcgpKeB1df01PZwrIek/cxalJ04hSaHMd1He4TTvGnB/kfTcdfFJ3Hi/XsQ7uD3mEAgEAj+dxBFv+AaMaJgzWhMr1qHb7fe0eNCXiAQ/G9gPPlHTPjJF5j9739jeVK3Jy0EAoFA8D+GuHYjuEY8kTL3cTyYNQgG+0MCgeB/HBOqznlg2p9fwRJR8AsEAsENgbjSLxAIBAKBQCAQ3OCIK/0CgUAgEAgEAsENjij6BQKBQCAQCASCGxxR9AsEAoFAIBAIBDc4ougX/ODRN2lx1WTfKhAIBAKBQCDoKaLo72PMTeU48MF2bN76DvacasD/Vq3agtOfvY6PC7T4oXx7p3HfMmSkLsR7Fzot2bxrKUZN34QSo03X66N5F5aOmo5NPZjUeOolzMp4EJ80AWg5jc9e/xgF2h+KxX7Y9Nx3Rpx6aRYyHvwETfaH/gvY+FggEAgEghsAUfT3IS0nNuH2kSmYlfMSXnt5Le4acwt+d6TNvtsPBD0Ob7gLi7ee6fxhojuATQ/mYPPhy/hBvNKp5RCeWXkAE/62BfNi2j8Z1Iai/XtQ3j8UkX34JsG2ov3YU94foT2YVHPkC+y76o/QmwDdgU14MGczDl/uW4vpD2/AXYu34sz3/Kuxb+Xoje80OPLFPlz1D0UffD+s13T1sUAgEAgENwKi6O8rzBfw+u9+j6KszSgsU+F4XimqyvdghbJ/Zx+9FrXV9WjpSQFl1qGhvhGdF0Tb0KhuwFUHF5TbtHWoa5S+dKrXqKHVd2kwnsIXb+3COeNAuLW3DZiGLefV+PzhuC5f5dRDW1uNeqdC66FRa9F16o4j2lpU17e4+GuHHpqaGmgcTKC74o2pL36IDVMHdQaq+RLyVVUYrlTAt0tfvaamB2tZ6C6XGZfyVagaroSi66RdaWtEnboJRuhRkHsSHikKJPcHBkzbgvPqz/FwXNfPoZrR0qCBrquvJHxvaqlHjY08Rpz64i3sOmfEwA7nWNFrUONkHgAwtzRAY7NwV9qgrauD01AxtaC+puvcEnK4wGFMOvFdV9oa66BuMgL6AuSe9ECKIhldMsiB7xzT3aYWHMrVjhMfdxyWGmvHNa3vxH/d26Rzslv/Ni3q6rruJQKBQCD4UUJB36D/mssTBjBj3Uka7Y8ZznHnE1OZEBbBuJhgBg6dwmf/02Tfi2z9kivGzOFzf3+CU5JjGBboy+EL3uOZI3/m3PThjBzszaDsp3lc197/JLfOT2NwUDgjw2I5+cnVvFt5N3eoTSRb+eWKMfzlM68xZ0oSYyIG0jt8Gv96ykhj6UucHhtMX08P+gZHMipxId9rIFv/vYwZE9bxuIEkDTy38wlOTQhjRFwMgwOHcsqz/2FTh5y/5DOv5XBKUgwjBnozfNpfecqquOHcTj4xNYFhEXGMCQ7k0CnP0pG6mq+f5R3xIQyPHcYhg5O44iuLYvryD7hi4jAOGhLDmJAAhmYu4QfnrZO3fsoF4RG8/7Me9LXDuVyt/HRBOCPu/4ztpu2khUWvzac8JIjhkWGMGXcvZyd7MXP9GRrZyn8vy+CEdcdpINm6+zGO/tlqPjc3kb7uPpyxvUHa9y3F3H5/JqNChzI+eggjMldyd30pX5oey2BfT3r4BjMyKpEL32sg9eX8YMVEDhs0hDExIQwIzeSSD85bYq11Nx8b/TOufm4uE33d6TNjOxvstGg9uZXz04IZFB7JsNjJfHL13VTevcN6tIXF2+9nZlQoh8ZHc0hEJlf+67hjOZp28iHFJK5XGSxDjWV8eXYK796hbl/IeUza+c6GliK+Nl/OkKBwRobFcNy9s5nslcn1Zyy+dO47OxzZtMGFXJI+djW2D9Z35D9HbZI56ah/K09unc+0YItesZOf5Oq7lZ2+EggEAsGPClH09xlafv7gcPYPTOf/e6OI2o72Vh5Zlc7g9GX8vMpIUs1tMwIYtnAXW23Gk4aitUz3DmTMlKd48JKJTR/PY6hfFBPGPcD3zxpoKFxDhZeSawsNJFt4KEfGoFFP8OBlE6k5zDVZ/vSMXcp9OpKGIq5N92ZAzGSu3a+mSXeAj8Z7cfwL50mTng2fLmL0wDv592oNtU06mmiganUa/adtoZpk65FVTA9O57LPq2gkqd42gwFhC7mrtV3OAMZMXsv9ahN1Bx5lvNd4vnDeRLYe4ar0YKYv+5wWdbdxRkAYF+6y09ZQzHWj/Ji5roitJA21ZazQmMimA8xJDaLy0X/xooFkSy5XKQcwftkh67DfM91vMl+pcd3XBim5DMX8fbofJ79SQ/syrnn/ciYFZvDxA5dpooaH12YzwDOC93+uIw0qrk7z57QtapIGqlbL6eUXzqwl77CwrIJVTVK+13LPkkQOyl7LIxqSvMLCj3aysNVEfcOnXBQ9kHf+vZoabRN1piYeyEllkPJR/suiKHNXKTkgfhkP6UmDajXlXn4Mz1rCdwrLWFFlVw23HGKOLIijnjhIS6isYZa/J2OX7iNJavcsYeKgbK61CMIrhR9xZ2GLAzlI/ZEcjgyYwe2XrXNfeZu/CIrj0n06lzFp4zsbmrl/eRIDMx7nAeu4tdkB9Iy4n5/rXPjOBmc2lZZL0scudOqL9R35z1GbZE466N9yKIeyoFF84qBVrzVZ9PeMtfpKIBAIBD82fjRFf0ttOUvPnOGZM6X8tvqK/eG+Qfct318+nhE3eXHYzBd4/Appqt3OmUERnLu9kCUFh7lr82O8ZUgIZ2w9163AbHh9Jv38J/AF69VN3ef3M6L/CC470EySNJ56hqN9buafKoykegdnD4rkfZ+2F3h6Hl2ZxIAZ23nZMhln+vlzwgvWq5X6I8wZ6c87tjWQNPHcC+PoM/oZnu64KH6Z26YHUPa7XBpMtdw+M4gRc7ezsKSAh3dt5mO3DGHIjK08Z+oup/5IDkf638FtDSbWbp/JoIi53F5YwoLDu7j5sVs4JGQGt56z01Z/kI/FD2DSAx+zoqN2M7HylakMjHuYX7W0t7Xyk3nB9L3zTZKk5o1ZDBy5kkf0rvt24kIuzRucFTiSK4/o7Yap+frsIEbe96nlamq7rr5TLIXr5W2cHiDj73INVvv50jf7ORZbL4JL+d5Q+QqnBsZxyd4O4TswnXuB43xG8xmrc0zWvg93KsrWT+Yx2PdOvtlCXt42nb6+2XyufWE71Dtmc1DkfewMlaNcmRTAGdsvk6ZKvjI1kHFL9tJeEns5SBNrX5lCP8UaFliX0h9dyaT2HwEuYrLTd+0rWDCpX+fsINtxR3JG0nfKK6wxufBd13mc2VRKLlc+lhprbWnnmtanY/91a3ORk936U80dswfZ6tXVVwKBQCD40fHjuKffXIl3V/4Sc+bMwZw5c3DvxgP2PfqGm4bj589/hcIvcxB54HE8uKkIVw7sxsFWI/JeXID5D63Cq4fcMWvLQby1MNrugYo2FOeVwPO2hZiX6AHAhOqSUmhkc7FwrA8AQFdyEhVBSUgJ94Du2F4cZTamjLfeHW2uxbHcSsTKFfAH0FachxLP27BwXqLl/vymEpyqikaqzA9AGwoLShEok2NY+63o+iLkl/RDimIkPK8ewO6DrTDmvYgF8x/CqlcPwX3WFhx8ayGi3e3lBJpKTqEqOhUyv6s4sPsgWo15eHHBfDy06lUccp+FLQffwsJou1DrPxbLn38EQz6bC1ny7fjDXjXMaMGhPcfgPe6nGOvd3rEFly61IigkxPIgaF4JPGRKJPd31bcr0nK1FeWhxEMGZdcbuAFAdxhffg1kTxlvvQfdjLrcE6iMkkMe5A59UT5K+qVAMdKzw36TFy9CivUh1asSvm85uAfHvMZhalaH8B20FRagNFAGudU5LYf24Jj3OPy0U1G0XLqE1qAQhHjoUZRfgn6TF2NR+8I26HBs71Ewewo6Q+UYcitjIVf4A00HseeYF8ZNzYK9JPZyAAao8k/DO0WBeE8AMKM+Nw8XYuVQ+MNFTHb1XZdFAOgOf4mv0XVcHXJPVCJKLkeQu7TvutLkxKaScrnwseTYLmvgWteHI/85aJPMSQf9dcew9yht9Ko9lotKq68EAoFA8OPjx1H0uw/FgtdPQFVQgIICFb7edId9jz7EHYPG3o+fK9xQfeEcLpythF62FJ/k5SH38F7sfON5LJ+eCEsZ3wVzLfKLajEicwwCAAB6qFRnEKQcbS2wjDitOgl9cjoU/cxoOHsOjaExiLEWUMbSt/HucW/IlPHwhBm1+UWoHZGJMZbJoC/IR0m/ZMhHegLGchSebEaiXI5+7cvXqFBUlwiFYgBM1WdRqZdh6Sd5yMs9jL0738Dzy6cj0cexnAX5JeiXLMdIt2qcrdRDtvQT5OXl4vDenXjj+eWYnthNWwAeiJr+R+w9nYtN8iI88/hmnGmrR3VdGwaHh6OjfNXsxVf5XhgzPh0w10JVWIMEpQLeJhd9u2KSksuMWlUhahKUUNhVvWbNBVxsCUVMdLuRv8E77x1HvxQFkvubUaMqQl2iAooB7fYbgcwsq8FhQrVT35tQX1WLtrAoDO1WpxtRXngSzYlyyPtZ5qmvrkPb4HCEdyqKvV/lw2vMeKT3q4GqqA4jMrOs/rDD3ICz5xoRGhNjfSDWiNK338VxbxmU8Z4w1Vehti0MUd0EsZcDgOkCikoaMDw11fJGHeMZ7Hj7KLxkSsR7uojJrr7rsgpghubCRbSExqDTzO/gveP9LA/xSvquK85sKi2XuwsfS421tdi1re9pduA/B23SOdm9v7nhLM41hiKmc1G8/e5xeMuU1v1EIBAIBD82fhxF/3eM6Zv3sfH/dqO8yQygBd98tB5bjw/EuCmZGBzoD7eaCpQ1t/fWo7nZ0atqVFCdCUKqMspyZd5YClWxDknpCmthrkFBwXlEKxQIcneHl68P3BrroTYA0B7FhmUvQWVMglIxAIDO8oMhVYkoDwAwoUpVhHprgQrjt/i2sj9Cw4I6AkBXoELpYBkUkR5wCwiEv1sNKjqFhr652fKGHns5TVVQFdUjUaHAALcABPq7oaaiDJ3qNqObuuYGlKjK0AIAvsMhiwvATQED4ecZiODBnqgt+waNAGBW44unnsbu8MVYPnMgoFMh/0wQUpXR8PBw0bcrknLpoMq32Cq66wt4ALgP8IG3uxb19QYAWhzdsBTPH29DokIBb+hQoCrFYJkCkR5W+w1KhdJicABuCHDqezf4+vkANWdR0WI5crUiD8VqMwAjvv22Ev1DwxDkDgAeCAweDM/aMnxjURTqL57C07vDsXj5TAzUFUBVOqjTH/a4e8HXxw2N9WpYQmUDlr2kgjFJCcUAwM3XDz6owdlOQZBXrIa5mxwATGqoL5vh6ekJN2hxdMMy/CXfiCSlAgPgIia7+q6rfHDHAB9vuGvrYTHzUWxY+jyOtyVCofB24buuOLMpJOWS9rELnfpgfTjyn4M26Zzs3t/dyxc+bo2otyyKoxuW4SVVu6+AtpIdWPnwRuy97OxNTwKBQCC44bC/30fQewzFf+WsWG969POhv08/evgN5/Sn91FtIk3qXXwkNZCBw7M4acoEZiQM54yXy7u94cdwch1HBc3gtvY3gmje4KygNK7Kbb95ej8fiQ/jPR9Z7u83XXyLc6N8GJ42lumyW7l49TzKklfwaz1Jw0muGxXEGdvU1ucGWvnP+eGMW/KV5e00hiKuz/JjQHwWx89az6N6A4vXjWLQjG1Umyz3su96JJWBgcOZNWkKJ2QkcPiMl1ludCBn6z85PzyOS77SkTRRvesRpgYGcnjWJE6ZkMGE4TP4crmdtoYCbpwQyaGKCZyUncCwYdO48ajlzmPNvieZOSiQsWMmcnxqBCMyHuCbpZabwC1rT+fWOsvaUn1tkZDLaqvpW+u6PWNBUw3fuyeaPqEyjlEmccz8HN6VHMMHduusDyK329jOfu3DJXxvqn6fC+N9GBifzYm3pjFevojv15hIGli0Pot+AfHMGj+L64/qSc0+Ppk5iIGxYzhxfCojIjL4wJul1JM0FNv5oxsmXnxrLqN8wpk2Np2yWxdz9TwZk1d8TT1Jmqr5/sJ4+gTGM3virUyLl3PR+zU0OZKDGn66KJZewUnMVKbwlsVruVCezBVfW2wuFZP2vuuKqeY93hPtw1DZGCqTxnB+zl1MjnmAu3WU9p39PE5sKiWXpI9d6GTPtazvyH+O2iRz0mH/i3xrbhR9wtM4Nl3GWxev5jxZu6+MLN80jj4hc/iW07gRCAQCwY2GG8m+/arQjxWTFmeLTuJCqz9iZCkY6tfljyjGBpSpSlCl90ZYQjISQuyvEl4bJm058k5dQUhyKmICHF7ndU5zJfJUlfCMVSItwv5ubgAwoqFMhZIqPbzDEpCcEIKeSm1sKIOqpAp67zAkJCfAobrmZlQWFeC8fjAS5SMQ0uUjSKbGcygqrkRrQBzSZBHdb4XqQm/69kgue8xalJ04haaQZKTGBDi+mi6FlO+vVqNYVYYmv2FITYmCb0fINKMyT4VKz1go0yIst8OYGnGuqBiVrQGIS5MhQkrRbpigLc/DqSshSE6NQfdQuYrqYhXKmvwwLDUFUR2COJDD3IiKvBJogpMhd2CPa41Js7YMJ041OR3XY985samkXC58LDnWnmtZv8f0MidNWpTnncIVJ3oJBAKB4MeFKPoFAoFAIBAIBIIbHHFPv0AgEAgEAoFAcIMjin6BQCAQCAQCgeAGRxT9AoFAIBAIBALBDY4o+gUCgUAgEAgEghscUfQLBAKBQCAQCAQ3OKLoF/QafZMWV032rYIfJGYdtJpmGO3bBQKBQCAQ/KgQRX+fooe6vAy1V+3brwPjKbw0KwMPftJkf+Q7peX0Z3j94wJo7T7Y2bhvGTJSF+K9C31R9Rtx6qVZyHjwE/ROu2bsWjoK0zeViGJWAs3+dZgUOxTJimT8ZGM+Tn/2Oj4u0OIH8w3W5l1YOmo6NpX8QL3Ychqfvf4xCuyTALiO2EUvx/amb88x13+JtT+VQ3bLPGz6ug7lm3+NX796zr5bn2E89RJmZTyI//I21sf0nS++X3v0nR4CgeB/C1H09yHmmq34ddodeL6gzf7QtaM5gi/2XYV/aJevV33n6HBg04PI2XwYl7t+xaHlEJ5ZeQAT/rYF82L64lM/Ghz5Yh+u+oeiV9q1FWH/nnL0D42Ep/0xgYW249j4yIswLT2Is+fO48ultdj0YA42H76MH8qHOdqK9mNPeX+ERv4AvKg/jA13LcbWM50/ZnUHNuHBnM04bJME7Vxj7AK9HNubvj3FjPpP/g+7R67H1oeDseueJGQ+34YJE6LsO/YZmiNfYN9Vf/xXt7E+p+988f3ao+/0EAgE/1uIor8PaVPl41Q/GZSy/vaHALRBW1eHxh5d1GxDY50aTUZAX5CLkx4pUCQ7mtMJ5hY0aHRdrui6WNvUgvqaerR01DsDMG3Leag/fxhxXWp73RVvTH3xQ2yYOshx4Og1UGv19q3daGusg9qiHHJPeiBFkYyu2um1taiub4GzvyWYL+VDVTUcSoVvZ2ObFnV1jT268m9qqUeNg/nbtHWoc2okR3Z13CYpf7f+LnxjT7fxjtcznf0K+ypSMfPnCRbbDpiGLefV+PzhuC5fZtVDW1uN+k7H22BuaYBGZ7OSZP9OeqKTGZfyVagaroStG134oAMTWuprHMjSk7X10Ki16BqpxlNf4K1d52Ac6NbRNmDaFpxXf46HuySBdOxKry091hbpvtfrB3cMWfQJjm2ahtG/Wo8Pj5WjqvR93J9g+0Ner6npFlddj9VoXOR6WyPq1E0wQo+C3JPwSFHAZhvTa1Fb3XXfcUK3/amHdMsVPTQ1NegutjM7WZD2hbSdbPiu7eFiD5TUw8VYG65x/e7+cNzmaD/rwEH/nu8ZAoEAFPQRRpb8IYPemet5xmh7pPXkVs5PC2ZQeCTDYifzydV3U3n3DttOVlqKXuN8eYilb8w43js7mV7WOZt2PkTFpPVUGSx9jWUvc3bK3dyhNpFs5e7HRvNnq5/j3ERfuvvM4PYGV2u3sHj7/cyMCuXQ+GgOicjkyt0NZOu/uSxjAtcdtyykL/+AKyYO46AhMYwJCWBo5hJ+cN6iZOuXKzjml8/wtZwpTIqJ4EDvcE776ynamcBCSxFfmy9nSFA4I8NiOO7e2Uz2yuR6q8EM53byiakJDIuIY0xwIIdOeZb/abKfhGz9dAHDI+7nZzqSbOXJrfOZFhzE8Mgwxk5+kqvvVvLuHWr7YWRLMbffn8mo0KGMjx7CiMyV3N1AsvUkt85PY3BQOCPDYjn5ydW8WyllV0dtUvI77i/tm644Hu94PSPP/m0240L82M/Dh4MjYzjpuUI2/XsZMyaso8WlBp7b+QSnJoQxIi6GwYFDOeXZ/9Ai6m4+NvpnXP3cXCb6utNnxnY2SPW3ozc6fbognBH3f0aLG6V8YEtL8XbenxnF0KHxjB4SwcyVu2mZQmLt1i+5Yswv+cxrOZySFMOIgd4Mn/ZXnjIaWfrSdMYG+9LTw5fBkVFMXPgeyVb+e1kGJ6w7TgNdx67k2i7G2iDZt4/84NQWlsNS+U7N13z2jniGhMdy2JDBTFrxlcV/NrSw6LX5lIdYcjJm3L2cnezFzPVnLPuC4Rx3PjGVCWERjIsJZuDQKXzWUaI725+advIhxSSu79wI+fLsFGvOO84VzdfP8o74EIbHDuOQwUlc8ZVFakk7SfrChZ1s+I7t4WoPlNTDxVgbrmV9R/5w1OZsP6OTOXq3ZwgEAgui6O8ztPzHnYGMfGC37Umw5RBzZEEc9cRBXjaRmsNrmOXvydil+7r2stC8n8uTApnx+AFr37XMDvBkxP2fU0c9j+SMZMCM7bxs7X7l7V8wKG4p9+lIGlRcLfeiX3gWl7xTyLKKKja5WFu7ZwkTB2Vz7RGNZb7Cj7izsJUG1Wqm+U/jFjXJpgPMSQ2i8tF/8aKBZEsuVykHMH7ZIZIGFq1Np3dADCev3U+1SccDj8bTa/wLPN9t323m/uVJDMx4nAcswnBtdgA9I+7n5zqSrUe4Kj2Y6cs+Z5WRpHobZwSEceGuVrt5DCz+fTr9Jr/CGhPZciiHsqBRfOLgZZqo4eE1WfT3jOXSffaliJZ7liRyUPZaWtS9wsKPdrKwtYWHcmQMGvUED1rlWpPlT89YCbs6apOS31F/F76xwdF4qfX0Gu5ZmsCAO17lec0VthgMVK1Oo/+0LVSTbD2yiunB6Vz2eRUtQ2cwIGwhLaKuptzLj+FZS/hOYRkrqpok+9vQK52K+ft0P05+pYYmuvBBV7R7uCRxELPXHqHFjYX8aGehy7UNRWuZ7h3AmMlruV9tou7Ao4z3Gs8Xzpto0jfw00XRHHjn31mt0bJJZ7LYPM2f07aoXceu5Nouxtog3bev/CBlC1f5XrxuFP0y17GolaShlmUVGtqnevP+5UwKzODjB6w5uTabAZ4RvN+S6DyyKp3B6cv4uSVwuW1GAMMW7qK9Gs72J/2RHI4MmMHtnRshfxEUZ8l5R7liKOa6UX7MXFdEi9hlrNCYXNhJ2hfSdrLlu7aH9B4orYf02D5Y36E/HLRJ7WeO+vdmzxAIBB38aIr+ltpylp45wzNnSvlt9RX7w9eP/msuT/DlT16tszkJqnfM5qDI+/hp+4Ub/VGuTArgjI4zVjsmql+fzSCbvkeYM9KXU16poclUy1em+FGxpsBy5ZF6Hl2Z1Pkj4PI2Tvf1ZfZzxdbjLtY2VfKVqYGMW7KXLdbD7VzeNp0Bst8x12Bi5StTGRj3ML/q6NTKT+YF0/fON0k28PWZfvSf8IL1rxuWHyb+d2xjg82MpEn9OmcHRfK+TmF4JGckfae8whqTibXbZzIoYi63F5aw4PAubn7sFg4JmcGt5+xLCg3fmBXIkSuPUE81d8wexMj7Pu242qk/upJJXQsCK6bKVzg1MI5L9tppq97B2YNs5XJl1+5tLuTv1t+Fb+zpNt7Fet1i5TK3TQ+g7He5NJhquX1mECPmbmdhSQEP79rMx24ZwpAZW2kRdTp9fbP5XLFVUhf9u9IrnTRvcFbgSK48onftgw7a43EJu7tReu2G12fSz38CX2i/SnskhyP97+C2BpKmc3xhnA9HP3O68y9Ul7dxeoCMv8s1uIhd6bVdje2KZF9D3/nBuS1c5bueBx+L54CkB/hxhX1JasWk5uuzg2xz8kgOR/pO4Ss1Jppqt3NmUATnbi9kScFh7tr8GG8ZEsIZW8/Z/nhwuj+ZWPvKFPop1rDAGqI2Od8tV0jqD/Kx+AFMeuBjdhVbyk6SvjC5slMXvnN7SO+B0npIj7XhGtd36I9ubS72s279e7BvCwQChzi8NfuGw1yJd1f+EnPmzMGcOXNw78YD9j2uG3O9CgVVMVAogrrc767Dsb1HwewpGG+9b9lcewy5lbGQK/w7B1v7Hv7ya6Br37pcnKiMglweBHeDCvmnvZGiiLc8vGquR27eBcTKFfAHoC/KR0m/yVi8KMX6cKuLtZsOYs8xL4ybmgXvTiEA6FGUX4J+KQqM9GzBoT3H4D3upxjb0akFly61IigkBGgrRl6JJ25bOA+JHgDQhJJTVYhOlcHPZk5Ad/hLfI1sTOlUDrknKhEllyPI/SoO7D6IVmMeXlwwHw+tehWH3Gdhy8G3sDDaLkTbipBX4gGZMhn9dcew9yiRPWU8LLOaUXssF5Wxctibt+ngHhzzGoepWbba6o7txVF2lasWx3IrJezqqE1a/u79XfjGju7jpdeDoQCq015IlltjRV+E/JJ+SFGMhOfVA9h9sBXGvBexYP5DWPXqIbjP2oKDby1EtLvV95MXY1GKVVvJ/l2l7J1ObUV5KPGQQZnc36UPOmnCwT3H4DVuKmzd6GrtNhTnlcDztoWYZwlUNJWcQlV0KmR+ANoKUVAaCJl8WMfzDhabp0Ax0tNF7EqvLT3WupgVyb66vvKDlC1c5Dv6Y+zy5/HIkM8wV5aM2/+wF2r7FxvpDsOyjXXmZF3uCVRGySEPcsfVA7txsNWIvBcXYP5Dq/DqIXfM2nIQby2Mtn1OyOn+ZIAq/zS8UxSIt2yEqM/NwwVrznfPFQD9x2L5849gyGdzIUu+HX/Yq4bZhZ0kfeHuyk5d+K7t4WIPlNSjTXqsDde4viN/dG+T3s+693e9bwsEAsf8OIp+96FY8PoJqAoKUFCgwteb7rDvcd20qfJxeoAMyqQubyIxN+DsuUaExsRYH5gyovTtd3HcWwal5YzVpa8GFy62IDQmuqPvN++8h+P9LA/xmi4UoaRhOFJTLe9bMJ7ZgbePekGmjIcnzKhRFaFuRCayAtrnk17bVF+F2rYwRA21l6MGqqI6JCoUGGCqR3VdGwaHh3eeQDV78VW+F8aMT4e5Nh9FtSOQOca6qL4A+SX9kCwfafdWHTM0Fy6iJTQG0dYnx4zfvIP3jvezPExmqsbZSj1kSz9BXl4uDu/diTeeX47piT42swCAuVaFwpoEKBXeMDecxbnGUMTEtE9airffPQ5vmdJaELRjQn1VLdrComCrrhkNZ8+hMTQGnVO8jXePezu3q6M2Sfkd9HfhG1scjJdcDzBdLEJJQyLkckusmGtUKKpLhEIxAKbqs6jUy7D0kzzk5R7G3p1v4Pnl02ER1eL7EZlZ6FxKon9XeqlTraoQNQlKKLxd+aALpnpU1bYhLGqobburtc21yC+qxYjMMVa99CjIL0G/ZDlGegLG8kKcbE6EXN6vfUKLzRMVUAxwEbuSa7tLj7WuZkF6HY++8oOULdyk8x0APKKm4497TyN3kxxFzzyOzV3edgQAZs0FXGwJRUynEnjnvePol6JAcn8Tqs9WQi9bik/y8pB7eC92vvE8lk9PhL0aTvcn0wUUlTRgeGqq5c0zxjPY8fZReMmUiPd0kCsAAA9ETf8j9p7OxSZ5EZ55fDPOGKTs5MJvLvbFrnzX9pDeA6VjylNybOcauI71u/vDQZvkfuagv8t9WyAQOOPHUfR/5xhRll8E7dAI+FWUoKSkBKdOn0OD2Qu+Pm5orFfDAEB7dAOWvaSCMUkJxQC7KdwHwMfbHdr6+o6+S58/jrZEBRTegEmtxmWzJzw93QDtUWxY9hfkG5OgVAwAoEOBqhSDUpWIar9U6S69tpuvH3xQg7MVLZb+VyuQV6yGWVcAVelgyBSR8PAIRPBgT9SWfYNGADCr8cVTT2N3+GIsnzkQOpUKZ4JSobQuaqpSoajeUlza4o4BPt5w19aj3iIMNix9HsfbEqFQeANuAQj0d0NNRRma24fom9Hc7S0bgE6Vb1kz2gPuXr7wcWtEvdoAQIujG5bhJZURSUoFbCVwg6+fD1BzFp3q5qFYDXj5+sCtsR6WKY5iw7KXoJKyq6M2Sfkd9HfhG1scjJdcD9AVFOCb4BTIwy0DdAUqlA6WQRHpAbeAQPi71aCirGMk9M3NljfZ6AqgKh2EVGVUxxVvyf5d6aVOqvwzCEpVItrD3YUPuuDmC4sbK2Bx41VU5BVDDRdr61RQnQnq1MtUBVVRveWHLQDjt9+isn8owjouvVtsPlimQKSHi9iV1NvFWBuk+/aZH6RsIZnvAWgoUaGsBQB8MVwWh4CbAjDQr/NtRwDgPsAH3u5a1FuUwNENS/H88TYkKhTwhhsCAv3hVlOBTjX0aHaQ6E73J5Ma6stmeHp6ws2a83/Jb895B7libkCJqswSL77DIYsLwE0BA+HnIWUnaV9A0k4DO5X4L9gDknugtB493z+vdX0H/nDUJrmfOegPF3tGWwl2rHwYG/debh8gEAjasb/fR3AttPCDuwbSHSCs/9xuupkbv23jxbfmMsonnGlj0ym7dTFXz5MxecXX1NtPQRNr3ruH0T6hlI1RMmnMfObclcyY9geDNZ9yUawXg5MyqUy5hYvXLqQ8eQW/1lseilw3Kogztqm73Adqkl7bVM33F8bTJzCe2RNvZVq8nIver6G+eB1HBc3gNusbEDT7nmTmoEDGjpnI8akRjMh4gG+W6kkaeHLdKAbN2Mb2lyW0/nM+w+OW0PpiDBtMNe/xnmgfhsrGUJk0hvNz7mJyzAPcrSNJE9W7HmFqYCCHZ03ilAkZTBg+gy+X278Jw7rm9K2sM5E0XeRbc6PoE57Gseky3rp4NefJkrniawfWrX6fC+N9GBifzYm3pjFevojv15houvgW50b5MDxtLNNlt3Lx6nmUSdnVUZuU/E76S/qmK07GO12PBuavTqP/TzfT8v4Ny8OXHX4yqbnrkVQGBg5n1qQpnJCRwOEzXqZFVFvfW5Zy3t+W3uh0kutGBXH6VsvzL5I+sMHE6vcXMt4nkPHZE3lrWjzli95njUl6bcNJO71a/8n54XFcYg1UQ9F6ZvkFMD5rPGetP0q9nc1dxa7U2tJjbZHs20d+cGULqXwv2DiBkUMVnDApmwlhwzht49Hubw4y1fC9e6LpEyrjGGUSx8zP4V3JMXzAqrBJvYuPpAYycHgWJ02ZwIyE4Zzxcnn3t3052Z9M1PDTRbH0Ck5ipjKFtyxey4Vya847yhVDATdOiORQxQROyk5g2LBp3Hi0yaWdJH0haSc7vmt7uNgDJfVwMdaGa1nfoT8ctEntZw77S+8ZxvJNHOcTwjlvOXoDkUDw48aNpKMvzwj6DBO05Xk4dSUEyakxCOi4WuEIM7RlJ3CqyXFfc2MF8ko0CE6WI8b+oENcrX0V1cUqlDX5YVhqCqJ8Hf/hx9R4DkXFlWgNiEOaLKLbn557illbhhOnmhCSnOpQfmNDGVQlVdB7hyEhOQEh9pebHGHSojzvFK6EJCM1JqDLO+gdcLUaxaoyNPkNQ2pKFNrVNWnLkXfqilO5ekrv5HflG9c4XM9ch823J+Jvow/g+O/TnPyp24iGMhVKqvTwDktAckJItyt7tvS0/7Xr1BsfXK0uhqqsCX7DUpES5Wv9c+W1rw0AzZV5UFV6IlaZhgj7i/AuY1d6bemxtkj3/e79AMl8N6O5sggF5/UYnCjHiBAnn3Yya1F24hSanOWksQFlqhJU6b0RlpCMBKeJ4mR/MjeiIq8EmuBkyB3Nb4+5GZVFBTivH4xE+Qh0ii1tJ2lfSNnJju/aHi72QEk9XIy15drW7ykO9zMJerNnCAQCC6LoFwhuCMxoKM9H8dFteGzJcczadxRr5Y5LfoFAIBAIBD8+HF/aFQgE/2NcRe72VXhqhwY/3fwmfisKfoFAIBAIBF0QV/oFAoFAIBAIBIIbHHGlXyAQCAQCgUAguMERRb9AIBAIBAKBQHCDI4p+gUAgEAgEAoHgBkcU/QKBQCAQCAQCwQ2OKPoFAoFAIBAIBIIbHFH0CwQCgUAgEAgENzii6BcIBAKBQCAQCG5wRNEvEAgEAoFAIBDc4IiiXyAQCAQCgUAguMH5/xGaKZuhadOfAAAAAElFTkSuQmCC;" parent="1" vertex="1">
          <mxGeometry x="10" y="80" width="765" height="241" as="geometry" />
        </mxCell>
        <mxCell id="MRjh7O3aRTi7gveGqWzr-3" value="Alumnos = {cuil, carrera,fechaInsc,fechaFinal,duracionCarrera,directorCarrera}" style="text;html=1;align=center;verticalAlign=middle;resizable=0;points=[];autosize=1;strokeColor=none;fillColor=none;" parent="1" vertex="1">
          <mxGeometry x="30" y="360" width="440" height="30" as="geometry" />
        </mxCell>
        <mxCell id="MRjh7O3aRTi7gveGqWzr-4" value="A)" style="text;html=1;align=center;verticalAlign=middle;resizable=0;points=[];autosize=1;strokeColor=none;fillColor=none;" parent="1" vertex="1">
          <mxGeometry x="40" y="410" width="40" height="30" as="geometry" />
        </mxCell>
        <mxCell id="MRjh7O3aRTi7gveGqWzr-5" value="Claves candidatas = {cuil}" style="text;html=1;align=center;verticalAlign=middle;resizable=0;points=[];autosize=1;strokeColor=none;fillColor=none;" parent="1" vertex="1">
          <mxGeometry x="60" y="430" width="160" height="30" as="geometry" />
        </mxCell>
        <mxCell id="MRjh7O3aRTi7gveGqWzr-6" value="Atributos no primos = {carrera,fechaIns, fechaFinal, duracionCarrera,directorCarrera}" style="text;html=1;align=center;verticalAlign=middle;resizable=0;points=[];autosize=1;strokeColor=none;fillColor=none;" parent="1" vertex="1">
          <mxGeometry x="70" y="460" width="470" height="30" as="geometry" />
        </mxCell>
        <mxCell id="MRjh7O3aRTi7gveGqWzr-7" value="DF1" style="text;html=1;align=center;verticalAlign=middle;resizable=0;points=[];autosize=1;strokeColor=none;fillColor=none;" parent="1" vertex="1">
          <mxGeometry x="20" y="500" width="50" height="30" as="geometry" />
        </mxCell>
        <mxCell id="MRjh7O3aRTi7gveGqWzr-8" value="Alumnos = {cuil, carrera,fechaInsc,fechaFinal,duracionCarrera,directorCarrera}" style="text;html=1;align=center;verticalAlign=middle;resizable=0;points=[];autosize=1;strokeColor=none;fillColor=none;" parent="1" vertex="1">
          <mxGeometry x="10" y="530" width="440" height="30" as="geometry" />
        </mxCell>
        <mxCell id="CSv5Y-i8hmoGf-z6vXla-2" value="" style="endArrow=classic;html=1;rounded=0;" edge="1" parent="1">
          <mxGeometry width="50" height="50" relative="1" as="geometry">
            <mxPoint x="130" y="580" as="sourcePoint" />
            <mxPoint x="190" y="560" as="targetPoint" />
            <Array as="points">
              <mxPoint x="190" y="580" />
            </Array>
          </mxGeometry>
        </mxCell>
        <mxCell id="CSv5Y-i8hmoGf-z6vXla-3" value="" style="endArrow=classic;html=1;rounded=0;" edge="1" parent="1">
          <mxGeometry width="50" height="50" relative="1" as="geometry">
            <mxPoint x="170" y="580" as="sourcePoint" />
            <mxPoint x="230" y="560" as="targetPoint" />
            <Array as="points">
              <mxPoint x="230" y="580" />
            </Array>
          </mxGeometry>
        </mxCell>
        <mxCell id="CSv5Y-i8hmoGf-z6vXla-4" value="cuil---&amp;gt; carrera,fechaIns,fechaFinal" style="text;html=1;align=center;verticalAlign=middle;resizable=0;points=[];autosize=1;strokeColor=none;fillColor=none;" vertex="1" parent="1">
          <mxGeometry x="20" y="585" width="210" height="30" as="geometry" />
        </mxCell>
        <mxCell id="CSv5Y-i8hmoGf-z6vXla-5" value="DF2" style="text;html=1;align=center;verticalAlign=middle;resizable=0;points=[];autosize=1;strokeColor=none;fillColor=none;" vertex="1" parent="1">
          <mxGeometry x="20" y="630" width="50" height="30" as="geometry" />
        </mxCell>
        <mxCell id="CSv5Y-i8hmoGf-z6vXla-6" value="Alumnos = {cuil, carrera,fechaInsc,fechaFinal,duracionCarrera,directorCarrera}" style="text;html=1;align=center;verticalAlign=middle;resizable=0;points=[];autosize=1;strokeColor=none;fillColor=none;" vertex="1" parent="1">
          <mxGeometry x="20" y="650" width="440" height="30" as="geometry" />
        </mxCell>
        <mxCell id="CSv5Y-i8hmoGf-z6vXla-7" value="" style="endArrow=classic;html=1;rounded=0;" edge="1" parent="1">
          <mxGeometry width="50" height="50" relative="1" as="geometry">
            <mxPoint x="140" y="680" as="sourcePoint" />
            <mxPoint x="320" y="680" as="targetPoint" />
            <Array as="points">
              <mxPoint x="140" y="710" />
              <mxPoint x="320" y="710" />
            </Array>
          </mxGeometry>
        </mxCell>
        <mxCell id="CSv5Y-i8hmoGf-z6vXla-8" value="" style="endArrow=classic;html=1;rounded=0;" edge="1" parent="1">
          <mxGeometry width="50" height="50" relative="1" as="geometry">
            <mxPoint x="244" y="710" as="sourcePoint" />
            <mxPoint x="414" y="680" as="targetPoint" />
            <Array as="points">
              <mxPoint x="414" y="710" />
            </Array>
          </mxGeometry>
        </mxCell>
        <mxCell id="CSv5Y-i8hmoGf-z6vXla-9" value="" style="endArrow=classic;html=1;rounded=0;exitX=0.186;exitY=1.033;exitDx=0;exitDy=0;exitPerimeter=0;" edge="1" parent="1" source="MRjh7O3aRTi7gveGqWzr-8">
          <mxGeometry width="50" height="50" relative="1" as="geometry">
            <mxPoint x="30" y="560" as="sourcePoint" />
            <mxPoint x="140" y="560" as="targetPoint" />
            <Array as="points">
              <mxPoint x="92" y="580" />
              <mxPoint x="140" y="580" />
            </Array>
          </mxGeometry>
        </mxCell>
        <mxCell id="CSv5Y-i8hmoGf-z6vXla-10" value="carrera---&amp;gt;duracionCarrera,directorCarrera" style="text;html=1;align=center;verticalAlign=middle;resizable=0;points=[];autosize=1;strokeColor=none;fillColor=none;" vertex="1" parent="1">
          <mxGeometry x="25" y="720" width="250" height="30" as="geometry" />
        </mxCell>
        <mxCell id="CSv5Y-i8hmoGf-z6vXla-11" value="B)" style="text;html=1;align=center;verticalAlign=middle;resizable=0;points=[];autosize=1;strokeColor=none;fillColor=none;" vertex="1" parent="1">
          <mxGeometry x="25" y="778" width="40" height="30" as="geometry" />
        </mxCell>
        <mxCell id="CSv5Y-i8hmoGf-z6vXla-12" value="Alumnos = {cuil, carrera,fechaInsc,fechaFinal,duracionCarrera,directorCarrera}" style="text;html=1;align=center;verticalAlign=middle;resizable=0;points=[];autosize=1;strokeColor=none;fillColor=none;" vertex="1" parent="1">
          <mxGeometry x="60" y="808" width="440" height="30" as="geometry" />
        </mxCell>
        <mxCell id="CSv5Y-i8hmoGf-z6vXla-14" value="1FN" style="text;html=1;align=center;verticalAlign=middle;resizable=0;points=[];autosize=1;strokeColor=none;fillColor=none;" vertex="1" parent="1">
          <mxGeometry x="60" y="790" width="50" height="30" as="geometry" />
        </mxCell>
        <mxCell id="CSv5Y-i8hmoGf-z6vXla-15" value="2FN" style="text;html=1;align=center;verticalAlign=middle;resizable=0;points=[];autosize=1;strokeColor=none;fillColor=none;" vertex="1" parent="1">
          <mxGeometry x="65" y="850" width="50" height="30" as="geometry" />
        </mxCell>
        <mxCell id="CSv5Y-i8hmoGf-z6vXla-16" value="alumno = {&lt;u&gt;cuil&lt;/u&gt;,carrera,fechaIns,fechaFinal}" style="text;html=1;align=center;verticalAlign=middle;resizable=0;points=[];autosize=1;strokeColor=none;fillColor=none;" vertex="1" parent="1">
          <mxGeometry x="60" y="880" width="250" height="30" as="geometry" />
        </mxCell>
        <mxCell id="CSv5Y-i8hmoGf-z6vXla-17" value="Carrera = {&lt;u&gt;carrera,&lt;/u&gt;duracionCarrera,directorCarrera}" style="text;html=1;align=center;verticalAlign=middle;resizable=0;points=[];autosize=1;strokeColor=none;fillColor=none;" vertex="1" parent="1">
          <mxGeometry x="60" y="910" width="300" height="30" as="geometry" />
        </mxCell>
        <mxCell id="CSv5Y-i8hmoGf-z6vXla-18" value="3FN&lt;div&gt;BCFN&lt;/div&gt;" style="text;html=1;align=center;verticalAlign=middle;resizable=0;points=[];autosize=1;strokeColor=none;fillColor=none;" vertex="1" parent="1">
          <mxGeometry x="490" y="890" width="60" height="40" as="geometry" />
        </mxCell>
        <mxCell id="CSv5Y-i8hmoGf-z6vXla-19" value="" style="endArrow=classic;html=1;rounded=0;entryX=0;entryY=0.5;entryDx=0;entryDy=0;entryPerimeter=0;" edge="1" parent="1" target="CSv5Y-i8hmoGf-z6vXla-18">
          <mxGeometry width="50" height="50" relative="1" as="geometry">
            <mxPoint x="380" y="910" as="sourcePoint" />
            <mxPoint x="414" y="870" as="targetPoint" />
          </mxGeometry>
        </mxCell>
        <mxCell id="CSv5Y-i8hmoGf-z6vXla-20" value="&lt;font style=&quot;font-size: 48px;&quot;&gt;}&lt;/font&gt;" style="text;html=1;align=center;verticalAlign=middle;resizable=0;points=[];autosize=1;strokeColor=none;fillColor=none;" vertex="1" parent="1">
          <mxGeometry x="340" y="870" width="40" height="70" as="geometry" />
        </mxCell>
      </root>
    </mxGraphModel>
  </diagram>
</mxfile>
